<svg width="1728" height="1440" viewBox="0 0 1728 1440" fill="none" xmlns="http://www.w3.org/2000/svg">
<mask id="mask0_1_36" style="mask-type:alpha" maskUnits="userSpaceOnUse" x="104" y="0" width="1440" height="1440">
<rect width="1440" height="973" transform="translate(104)" fill="url(#paint0_radial_1_36)"/>
</mask>
<g mask="url(#mask0_1_36)">
<g clip-path="url(#clip0_1_36)">
<mask id="path-3-inside-1_1_36" fill="white">
<path d="M56 0H152V96H56V0Z"/>
</mask>
<path d="M152 96V97H153V96H152ZM151 0V96H153V0H151ZM152 95H56V97H152V95Z" fill="white" fill-opacity="0.1" mask="url(#path-3-inside-1_1_36)"/>
<mask id="path-5-inside-2_1_36" fill="white">
<path d="M152 0H248V96H152V0Z"/>
</mask>
<path d="M248 96V97H249V96H248ZM247 0V96H249V0H247ZM248 95H152V97H248V95Z" fill="white" fill-opacity="0.1" mask="url(#path-5-inside-2_1_36)"/>
<mask id="path-7-inside-3_1_36" fill="white">
<path d="M248 0H344V96H248V0Z"/>
</mask>
<path d="M344 96V97H345V96H344ZM343 0V96H345V0H343ZM344 95H248V97H344V95Z" fill="white" fill-opacity="0.1" mask="url(#path-7-inside-3_1_36)"/>
<mask id="path-9-inside-4_1_36" fill="white">
<path d="M344 0H440V96H344V0Z"/>
</mask>
<path d="M440 96V97H441V96H440ZM439 0V96H441V0H439ZM440 95H344V97H440V95Z" fill="white" fill-opacity="0.1" mask="url(#path-9-inside-4_1_36)"/>
<mask id="path-11-inside-5_1_36" fill="white">
<path d="M440 0H536V96H440V0Z"/>
</mask>
<path d="M536 96V97H537V96H536ZM535 0V96H537V0H535ZM536 95H440V97H536V95Z" fill="white" fill-opacity="0.1" mask="url(#path-11-inside-5_1_36)"/>
<mask id="path-13-inside-6_1_36" fill="white">
<path d="M536 0H632V96H536V0Z"/>
</mask>
<path d="M632 96V97H633V96H632ZM631 0V96H633V0H631ZM632 95H536V97H632V95Z" fill="white" fill-opacity="0.1" mask="url(#path-13-inside-6_1_36)"/>
<mask id="path-15-inside-7_1_36" fill="white">
<path d="M632 0H728V96H632V0Z"/>
</mask>
<path d="M728 96V97H729V96H728ZM727 0V96H729V0H727ZM728 95H632V97H728V95Z" fill="white" fill-opacity="0.1" mask="url(#path-15-inside-7_1_36)"/>
<mask id="path-17-inside-8_1_36" fill="white">
<path d="M728 0H824V96H728V0Z"/>
</mask>
<path d="M824 96V97H825V96H824ZM823 0V96H825V0H823ZM824 95H728V97H824V95Z" fill="white" fill-opacity="0.1" mask="url(#path-17-inside-8_1_36)"/>
<mask id="path-19-inside-9_1_36" fill="white">
<path d="M824 0H920V96H824V0Z"/>
</mask>
<path d="M920 96V97H921V96H920ZM919 0V96H921V0H919ZM920 95H824V97H920V95Z" fill="white" fill-opacity="0.1" mask="url(#path-19-inside-9_1_36)"/>
<mask id="path-21-inside-10_1_36" fill="white">
<path d="M920 0H1016V96H920V0Z"/>
</mask>
<path d="M1016 96V97H1017V96H1016ZM1015 0V96H1017V0H1015ZM1016 95H920V97H1016V95Z" fill="white" fill-opacity="0.1" mask="url(#path-21-inside-10_1_36)"/>
<mask id="path-23-inside-11_1_36" fill="white">
<path d="M1016 0H1112V96H1016V0Z"/>
</mask>
<path d="M1112 96V97H1113V96H1112ZM1111 0V96H1113V0H1111ZM1112 95H1016V97H1112V95Z" fill="white" fill-opacity="0.1" mask="url(#path-23-inside-11_1_36)"/>
<mask id="path-25-inside-12_1_36" fill="white">
<path d="M1112 0H1208V96H1112V0Z"/>
</mask>
<path d="M1208 96V97H1209V96H1208ZM1207 0V96H1209V0H1207ZM1208 95H1112V97H1208V95Z" fill="white" fill-opacity="0.1" mask="url(#path-25-inside-12_1_36)"/>
<mask id="path-27-inside-13_1_36" fill="white">
<path d="M1208 0H1304V96H1208V0Z"/>
</mask>
<path d="M1304 96V97H1305V96H1304ZM1303 0V96H1305V0H1303ZM1304 95H1208V97H1304V95Z" fill="white" fill-opacity="0.1" mask="url(#path-27-inside-13_1_36)"/>
<mask id="path-29-inside-14_1_36" fill="white">
<path d="M1304 0H1400V96H1304V0Z"/>
</mask>
<path d="M1400 96V97H1401V96H1400ZM1399 0V96H1401V0H1399ZM1400 95H1304V97H1400V95Z" fill="white" fill-opacity="0.1" mask="url(#path-29-inside-14_1_36)"/>
<mask id="path-31-inside-15_1_36" fill="white">
<path d="M1400 0H1496V96H1400V0Z"/>
</mask>
<path d="M1496 96V97H1497V96H1496ZM1495 0V96H1497V0H1495ZM1496 95H1400V97H1496V95Z" fill="white" fill-opacity="0.1" mask="url(#path-31-inside-15_1_36)"/>
<mask id="path-33-inside-16_1_36" fill="white">
<path d="M1496 0H1592V96H1496V0Z"/>
</mask>
<path d="M1592 96V97H1593V96H1592ZM1591 0V96H1593V0H1591ZM1592 95H1496V97H1592V95Z" fill="white" fill-opacity="0.1" mask="url(#path-33-inside-16_1_36)"/>
<mask id="path-35-inside-17_1_36" fill="white">
<path d="M56 96H152V192H56V96Z"/>
</mask>
<path d="M152 192V193H153V192H152ZM151 96V192H153V96H151ZM152 191H56V193H152V191Z" fill="white" fill-opacity="0.1" mask="url(#path-35-inside-17_1_36)"/>
<mask id="path-37-inside-18_1_36" fill="white">
<path d="M152 96H248V192H152V96Z"/>
</mask>
<path d="M248 192V193H249V192H248ZM247 96V192H249V96H247ZM248 191H152V193H248V191Z" fill="white" fill-opacity="0.1" mask="url(#path-37-inside-18_1_36)"/>
<mask id="path-39-inside-19_1_36" fill="white">
<path d="M248 96H344V192H248V96Z"/>
</mask>
<path d="M344 192V193H345V192H344ZM343 96V192H345V96H343ZM344 191H248V193H344V191Z" fill="white" fill-opacity="0.1" mask="url(#path-39-inside-19_1_36)"/>
<mask id="path-41-inside-20_1_36" fill="white">
<path d="M344 96H440V192H344V96Z"/>
</mask>
<path d="M344 96H440V192H344V96Z" fill="white" fill-opacity="0.1"/>
<path d="M440 192V193H441V192H440ZM439 96V192H441V96H439ZM440 191H344V193H440V191Z" fill="white" fill-opacity="0.1" mask="url(#path-41-inside-20_1_36)"/>
<mask id="path-43-inside-21_1_36" fill="white">
<path d="M440 96H536V192H440V96Z"/>
</mask>
<path d="M536 192V193H537V192H536ZM535 96V192H537V96H535ZM536 191H440V193H536V191Z" fill="white" fill-opacity="0.1" mask="url(#path-43-inside-21_1_36)"/>
<mask id="path-45-inside-22_1_36" fill="white">
<path d="M536 96H632V192H536V96Z"/>
</mask>
<path d="M632 192V193H633V192H632ZM631 96V192H633V96H631ZM632 191H536V193H632V191Z" fill="white" fill-opacity="0.1" mask="url(#path-45-inside-22_1_36)"/>
<mask id="path-47-inside-23_1_36" fill="white">
<path d="M632 96H728V192H632V96Z"/>
</mask>
<path d="M728 192V193H729V192H728ZM727 96V192H729V96H727ZM728 191H632V193H728V191Z" fill="white" fill-opacity="0.1" mask="url(#path-47-inside-23_1_36)"/>
<mask id="path-49-inside-24_1_36" fill="white">
<path d="M728 96H824V192H728V96Z"/>
</mask>
<path d="M824 192V193H825V192H824ZM823 96V192H825V96H823ZM824 191H728V193H824V191Z" fill="white" fill-opacity="0.1" mask="url(#path-49-inside-24_1_36)"/>
<mask id="path-51-inside-25_1_36" fill="white">
<path d="M824 96H920V192H824V96Z"/>
</mask>
<path d="M920 192V193H921V192H920ZM919 96V192H921V96H919ZM920 191H824V193H920V191Z" fill="white" fill-opacity="0.1" mask="url(#path-51-inside-25_1_36)"/>
<mask id="path-53-inside-26_1_36" fill="white">
<path d="M920 96H1016V192H920V96Z"/>
</mask>
<path d="M1016 192V193H1017V192H1016ZM1015 96V192H1017V96H1015ZM1016 191H920V193H1016V191Z" fill="white" fill-opacity="0.1" mask="url(#path-53-inside-26_1_36)"/>
<mask id="path-55-inside-27_1_36" fill="white">
<path d="M1016 96H1112V192H1016V96Z"/>
</mask>
<path d="M1112 192V193H1113V192H1112ZM1111 96V192H1113V96H1111ZM1112 191H1016V193H1112V191Z" fill="white" fill-opacity="0.1" mask="url(#path-55-inside-27_1_36)"/>
<mask id="path-57-inside-28_1_36" fill="white">
<path d="M1112 96H1208V192H1112V96Z"/>
</mask>
<path d="M1208 192V193H1209V192H1208ZM1207 96V192H1209V96H1207ZM1208 191H1112V193H1208V191Z" fill="white" fill-opacity="0.1" mask="url(#path-57-inside-28_1_36)"/>
<mask id="path-59-inside-29_1_36" fill="white">
<path d="M1208 96H1304V192H1208V96Z"/>
</mask>
<path d="M1208 96H1304V192H1208V96Z" fill="white" fill-opacity="0.1"/>
<path d="M1304 192V193H1305V192H1304ZM1303 96V192H1305V96H1303ZM1304 191H1208V193H1304V191Z" fill="white" fill-opacity="0.1" mask="url(#path-59-inside-29_1_36)"/>
<mask id="path-61-inside-30_1_36" fill="white">
<path d="M1304 96H1400V192H1304V96Z"/>
</mask>
<path d="M1400 192V193H1401V192H1400ZM1399 96V192H1401V96H1399ZM1400 191H1304V193H1400V191Z" fill="white" fill-opacity="0.1" mask="url(#path-61-inside-30_1_36)"/>
<mask id="path-63-inside-31_1_36" fill="white">
<path d="M1400 96H1496V192H1400V96Z"/>
</mask>
<path d="M1496 192V193H1497V192H1496ZM1495 96V192H1497V96H1495ZM1496 191H1400V193H1496V191Z" fill="white" fill-opacity="0.1" mask="url(#path-63-inside-31_1_36)"/>
<mask id="path-65-inside-32_1_36" fill="white">
<path d="M1496 96H1592V192H1496V96Z"/>
</mask>
<path d="M1592 192V193H1593V192H1592ZM1591 96V192H1593V96H1591ZM1592 191H1496V193H1592V191Z" fill="white" fill-opacity="0.1" mask="url(#path-65-inside-32_1_36)"/>
<mask id="path-67-inside-33_1_36" fill="white">
<path d="M56 192H152V288H56V192Z"/>
</mask>
<path d="M152 288V289H153V288H152ZM151 192V288H153V192H151ZM152 287H56V289H152V287Z" fill="white" fill-opacity="0.1" mask="url(#path-67-inside-33_1_36)"/>
<mask id="path-69-inside-34_1_36" fill="white">
<path d="M152 192H248V288H152V192Z"/>
</mask>
<path d="M248 288V289H249V288H248ZM247 192V288H249V192H247ZM248 287H152V289H248V287Z" fill="white" fill-opacity="0.1" mask="url(#path-69-inside-34_1_36)"/>
<mask id="path-71-inside-35_1_36" fill="white">
<path d="M248 192H344V288H248V192Z"/>
</mask>
<path d="M344 288V289H345V288H344ZM343 192V288H345V192H343ZM344 287H248V289H344V287Z" fill="white" fill-opacity="0.1" mask="url(#path-71-inside-35_1_36)"/>
<mask id="path-73-inside-36_1_36" fill="white">
<path d="M344 192H440V288H344V192Z"/>
</mask>
<path d="M440 288V289H441V288H440ZM439 192V288H441V192H439ZM440 287H344V289H440V287Z" fill="white" fill-opacity="0.1" mask="url(#path-73-inside-36_1_36)"/>
<mask id="path-75-inside-37_1_36" fill="white">
<path d="M440 192H536V288H440V192Z"/>
</mask>
<path d="M536 288V289H537V288H536ZM535 192V288H537V192H535ZM536 287H440V289H536V287Z" fill="white" fill-opacity="0.1" mask="url(#path-75-inside-37_1_36)"/>
<mask id="path-77-inside-38_1_36" fill="white">
<path d="M536 192H632V288H536V192Z"/>
</mask>
<path d="M536 192H632V288H536V192Z" fill="white" fill-opacity="0.1"/>
<path d="M632 288V289H633V288H632ZM631 192V288H633V192H631ZM632 287H536V289H632V287Z" fill="white" fill-opacity="0.1" mask="url(#path-77-inside-38_1_36)"/>
<mask id="path-79-inside-39_1_36" fill="white">
<path d="M632 192H728V288H632V192Z"/>
</mask>
<path d="M728 288V289H729V288H728ZM727 192V288H729V192H727ZM728 287H632V289H728V287Z" fill="white" fill-opacity="0.1" mask="url(#path-79-inside-39_1_36)"/>
<mask id="path-81-inside-40_1_36" fill="white">
<path d="M728 192H824V288H728V192Z"/>
</mask>
<path d="M824 288V289H825V288H824ZM823 192V288H825V192H823ZM824 287H728V289H824V287Z" fill="white" fill-opacity="0.1" mask="url(#path-81-inside-40_1_36)"/>
<mask id="path-83-inside-41_1_36" fill="white">
<path d="M824 192H920V288H824V192Z"/>
</mask>
<path d="M920 288V289H921V288H920ZM919 192V288H921V192H919ZM920 287H824V289H920V287Z" fill="white" fill-opacity="0.1" mask="url(#path-83-inside-41_1_36)"/>
<mask id="path-85-inside-42_1_36" fill="white">
<path d="M920 192H1016V288H920V192Z"/>
</mask>
<path d="M920 192H1016V288H920V192Z" fill="white" fill-opacity="0.1"/>
<path d="M1016 288V289H1017V288H1016ZM1015 192V288H1017V192H1015ZM1016 287H920V289H1016V287Z" fill="white" fill-opacity="0.1" mask="url(#path-85-inside-42_1_36)"/>
<mask id="path-87-inside-43_1_36" fill="white">
<path d="M1016 192H1112V288H1016V192Z"/>
</mask>
<path d="M1112 288V289H1113V288H1112ZM1111 192V288H1113V192H1111ZM1112 287H1016V289H1112V287Z" fill="white" fill-opacity="0.1" mask="url(#path-87-inside-43_1_36)"/>
<mask id="path-89-inside-44_1_36" fill="white">
<path d="M1112 192H1208V288H1112V192Z"/>
</mask>
<path d="M1208 288V289H1209V288H1208ZM1207 192V288H1209V192H1207ZM1208 287H1112V289H1208V287Z" fill="white" fill-opacity="0.1" mask="url(#path-89-inside-44_1_36)"/>
<mask id="path-91-inside-45_1_36" fill="white">
<path d="M1208 192H1304V288H1208V192Z"/>
</mask>
<path d="M1304 288V289H1305V288H1304ZM1303 192V288H1305V192H1303ZM1304 287H1208V289H1304V287Z" fill="white" fill-opacity="0.1" mask="url(#path-91-inside-45_1_36)"/>
<mask id="path-93-inside-46_1_36" fill="white">
<path d="M1304 192H1400V288H1304V192Z"/>
</mask>
<path d="M1400 288V289H1401V288H1400ZM1399 192V288H1401V192H1399ZM1400 287H1304V289H1400V287Z" fill="white" fill-opacity="0.1" mask="url(#path-93-inside-46_1_36)"/>
<mask id="path-95-inside-47_1_36" fill="white">
<path d="M1400 192H1496V288H1400V192Z"/>
</mask>
<path d="M1496 288V289H1497V288H1496ZM1495 192V288H1497V192H1495ZM1496 287H1400V289H1496V287Z" fill="white" fill-opacity="0.1" mask="url(#path-95-inside-47_1_36)"/>
<mask id="path-97-inside-48_1_36" fill="white">
<path d="M1496 192H1592V288H1496V192Z"/>
</mask>
<path d="M1592 288V289H1593V288H1592ZM1591 192V288H1593V192H1591ZM1592 287H1496V289H1592V287Z" fill="white" fill-opacity="0.1" mask="url(#path-97-inside-48_1_36)"/>
<mask id="path-99-inside-49_1_36" fill="white">
<path d="M56 288H152V384H56V288Z"/>
</mask>
<path d="M56 288H152V384H56V288Z" fill="white" fill-opacity="0.1"/>
<path d="M152 384V385H153V384H152ZM151 288V384H153V288H151ZM152 383H56V385H152V383Z" fill="white" fill-opacity="0.1" mask="url(#path-99-inside-49_1_36)"/>
<mask id="path-101-inside-50_1_36" fill="white">
<path d="M152 288H248V384H152V288Z"/>
</mask>
<path d="M248 384V385H249V384H248ZM247 288V384H249V288H247ZM248 383H152V385H248V383Z" fill="white" fill-opacity="0.1" mask="url(#path-101-inside-50_1_36)"/>
<mask id="path-103-inside-51_1_36" fill="white">
<path d="M248 288H344V384H248V288Z"/>
</mask>
<path d="M344 384V385H345V384H344ZM343 288V384H345V288H343ZM344 383H248V385H344V383Z" fill="white" fill-opacity="0.1" mask="url(#path-103-inside-51_1_36)"/>
<mask id="path-105-inside-52_1_36" fill="white">
<path d="M344 288H440V384H344V288Z"/>
</mask>
<path d="M440 384V385H441V384H440ZM439 288V384H441V288H439ZM440 383H344V385H440V383Z" fill="white" fill-opacity="0.1" mask="url(#path-105-inside-52_1_36)"/>
<mask id="path-107-inside-53_1_36" fill="white">
<path d="M440 288H536V384H440V288Z"/>
</mask>
<path d="M536 384V385H537V384H536ZM535 288V384H537V288H535ZM536 383H440V385H536V383Z" fill="white" fill-opacity="0.1" mask="url(#path-107-inside-53_1_36)"/>
<mask id="path-109-inside-54_1_36" fill="white">
<path d="M536 288H632V384H536V288Z"/>
</mask>
<path d="M632 384V385H633V384H632ZM631 288V384H633V288H631ZM632 383H536V385H632V383Z" fill="white" fill-opacity="0.1" mask="url(#path-109-inside-54_1_36)"/>
<mask id="path-111-inside-55_1_36" fill="white">
<path d="M632 288H728V384H632V288Z"/>
</mask>
<path d="M728 384V385H729V384H728ZM727 288V384H729V288H727ZM728 383H632V385H728V383Z" fill="white" fill-opacity="0.1" mask="url(#path-111-inside-55_1_36)"/>
<mask id="path-113-inside-56_1_36" fill="white">
<path d="M728 288H824V384H728V288Z"/>
</mask>
<path d="M824 384V385H825V384H824ZM823 288V384H825V288H823ZM824 383H728V385H824V383Z" fill="white" fill-opacity="0.1" mask="url(#path-113-inside-56_1_36)"/>
<mask id="path-115-inside-57_1_36" fill="white">
<path d="M824 288H920V384H824V288Z"/>
</mask>
<path d="M920 384V385H921V384H920ZM919 288V384H921V288H919ZM920 383H824V385H920V383Z" fill="white" fill-opacity="0.1" mask="url(#path-115-inside-57_1_36)"/>
<mask id="path-117-inside-58_1_36" fill="white">
<path d="M920 288H1016V384H920V288Z"/>
</mask>
<path d="M1016 384V385H1017V384H1016ZM1015 288V384H1017V288H1015ZM1016 383H920V385H1016V383Z" fill="white" fill-opacity="0.1" mask="url(#path-117-inside-58_1_36)"/>
<mask id="path-119-inside-59_1_36" fill="white">
<path d="M1016 288H1112V384H1016V288Z"/>
</mask>
<path d="M1112 384V385H1113V384H1112ZM1111 288V384H1113V288H1111ZM1112 383H1016V385H1112V383Z" fill="white" fill-opacity="0.1" mask="url(#path-119-inside-59_1_36)"/>
<mask id="path-121-inside-60_1_36" fill="white">
<path d="M1112 288H1208V384H1112V288Z"/>
</mask>
<path d="M1208 384V385H1209V384H1208ZM1207 288V384H1209V288H1207ZM1208 383H1112V385H1208V383Z" fill="white" fill-opacity="0.1" mask="url(#path-121-inside-60_1_36)"/>
<mask id="path-123-inside-61_1_36" fill="white">
<path d="M1208 288H1304V384H1208V288Z"/>
</mask>
<path d="M1208 288H1304V384H1208V288Z" fill="white" fill-opacity="0.1"/>
<path d="M1304 384V385H1305V384H1304ZM1303 288V384H1305V288H1303ZM1304 383H1208V385H1304V383Z" fill="white" fill-opacity="0.1" mask="url(#path-123-inside-61_1_36)"/>
<mask id="path-125-inside-62_1_36" fill="white">
<path d="M1304 288H1400V384H1304V288Z"/>
</mask>
<path d="M1400 384V385H1401V384H1400ZM1399 288V384H1401V288H1399ZM1400 383H1304V385H1400V383Z" fill="white" fill-opacity="0.1" mask="url(#path-125-inside-62_1_36)"/>
<mask id="path-127-inside-63_1_36" fill="white">
<path d="M1400 288H1496V384H1400V288Z"/>
</mask>
<path d="M1496 384V385H1497V384H1496ZM1495 288V384H1497V288H1495ZM1496 383H1400V385H1496V383Z" fill="white" fill-opacity="0.1" mask="url(#path-127-inside-63_1_36)"/>
<mask id="path-129-inside-64_1_36" fill="white">
<path d="M1496 288H1592V384H1496V288Z"/>
</mask>
<path d="M1592 384V385H1593V384H1592ZM1591 288V384H1593V288H1591ZM1592 383H1496V385H1592V383Z" fill="white" fill-opacity="0.1" mask="url(#path-129-inside-64_1_36)"/>
<mask id="path-131-inside-65_1_36" fill="white">
<path d="M56 384H152V480H56V384Z"/>
</mask>
<path d="M152 480V481H153V480H152ZM151 384V480H153V384H151ZM152 479H56V481H152V479Z" fill="white" fill-opacity="0.1" mask="url(#path-131-inside-65_1_36)"/>
<mask id="path-133-inside-66_1_36" fill="white">
<path d="M152 384H248V480H152V384Z"/>
</mask>
<path d="M248 480V481H249V480H248ZM247 384V480H249V384H247ZM248 479H152V481H248V479Z" fill="white" fill-opacity="0.1" mask="url(#path-133-inside-66_1_36)"/>
<mask id="path-135-inside-67_1_36" fill="white">
<path d="M248 384H344V480H248V384Z"/>
</mask>
<path d="M344 480V481H345V480H344ZM343 384V480H345V384H343ZM344 479H248V481H344V479Z" fill="white" fill-opacity="0.1" mask="url(#path-135-inside-67_1_36)"/>
<mask id="path-137-inside-68_1_36" fill="white">
<path d="M344 384H440V480H344V384Z"/>
</mask>
<path d="M440 480V481H441V480H440ZM439 384V480H441V384H439ZM440 479H344V481H440V479Z" fill="white" fill-opacity="0.1" mask="url(#path-137-inside-68_1_36)"/>
<mask id="path-139-inside-69_1_36" fill="white">
<path d="M440 384H536V480H440V384Z"/>
</mask>
<path d="M536 480V481H537V480H536ZM535 384V480H537V384H535ZM536 479H440V481H536V479Z" fill="white" fill-opacity="0.1" mask="url(#path-139-inside-69_1_36)"/>
<mask id="path-141-inside-70_1_36" fill="white">
<path d="M536 384H632V480H536V384Z"/>
</mask>
<path d="M632 480V481H633V480H632ZM631 384V480H633V384H631ZM632 479H536V481H632V479Z" fill="white" fill-opacity="0.1" mask="url(#path-141-inside-70_1_36)"/>
<mask id="path-143-inside-71_1_36" fill="white">
<path d="M632 384H728V480H632V384Z"/>
</mask>
<path d="M632 384H728V480H632V384Z" fill="white" fill-opacity="0.1"/>
<path d="M728 480V481H729V480H728ZM727 384V480H729V384H727ZM728 479H632V481H728V479Z" fill="white" fill-opacity="0.1" mask="url(#path-143-inside-71_1_36)"/>
<mask id="path-145-inside-72_1_36" fill="white">
<path d="M728 384H824V480H728V384Z"/>
</mask>
<path d="M824 480V481H825V480H824ZM823 384V480H825V384H823ZM824 479H728V481H824V479Z" fill="white" fill-opacity="0.1" mask="url(#path-145-inside-72_1_36)"/>
<mask id="path-147-inside-73_1_36" fill="white">
<path d="M824 384H920V480H824V384Z"/>
</mask>
<path d="M920 480V481H921V480H920ZM919 384V480H921V384H919ZM920 479H824V481H920V479Z" fill="white" fill-opacity="0.1" mask="url(#path-147-inside-73_1_36)"/>
<mask id="path-149-inside-74_1_36" fill="white">
<path d="M920 384H1016V480H920V384Z"/>
</mask>
<path d="M1016 480V481H1017V480H1016ZM1015 384V480H1017V384H1015ZM1016 479H920V481H1016V479Z" fill="white" fill-opacity="0.1" mask="url(#path-149-inside-74_1_36)"/>
<mask id="path-151-inside-75_1_36" fill="white">
<path d="M1016 384H1112V480H1016V384Z"/>
</mask>
<path d="M1112 480V481H1113V480H1112ZM1111 384V480H1113V384H1111ZM1112 479H1016V481H1112V479Z" fill="white" fill-opacity="0.1" mask="url(#path-151-inside-75_1_36)"/>
<mask id="path-153-inside-76_1_36" fill="white">
<path d="M1112 384H1208V480H1112V384Z"/>
</mask>
<path d="M1208 480V481H1209V480H1208ZM1207 384V480H1209V384H1207ZM1208 479H1112V481H1208V479Z" fill="white" fill-opacity="0.1" mask="url(#path-153-inside-76_1_36)"/>
<mask id="path-155-inside-77_1_36" fill="white">
<path d="M1208 384H1304V480H1208V384Z"/>
</mask>
<path d="M1304 480V481H1305V480H1304ZM1303 384V480H1305V384H1303ZM1304 479H1208V481H1304V479Z" fill="white" fill-opacity="0.1" mask="url(#path-155-inside-77_1_36)"/>
<mask id="path-157-inside-78_1_36" fill="white">
<path d="M1304 384H1400V480H1304V384Z"/>
</mask>
<path d="M1400 480V481H1401V480H1400ZM1399 384V480H1401V384H1399ZM1400 479H1304V481H1400V479Z" fill="white" fill-opacity="0.1" mask="url(#path-157-inside-78_1_36)"/>
<mask id="path-159-inside-79_1_36" fill="white">
<path d="M1400 384H1496V480H1400V384Z"/>
</mask>
<path d="M1496 480V481H1497V480H1496ZM1495 384V480H1497V384H1495ZM1496 479H1400V481H1496V479Z" fill="white" fill-opacity="0.1" mask="url(#path-159-inside-79_1_36)"/>
<mask id="path-161-inside-80_1_36" fill="white">
<path d="M1496 384H1592V480H1496V384Z"/>
</mask>
<path d="M1592 480V481H1593V480H1592ZM1591 384V480H1593V384H1591ZM1592 479H1496V481H1592V479Z" fill="white" fill-opacity="0.1" mask="url(#path-161-inside-80_1_36)"/>
<mask id="path-163-inside-81_1_36" fill="white">
<path d="M56 480H152V576H56V480Z"/>
</mask>
<path d="M152 576V577H153V576H152ZM151 480V576H153V480H151ZM152 575H56V577H152V575Z" fill="white" fill-opacity="0.1" mask="url(#path-163-inside-81_1_36)"/>
<mask id="path-165-inside-82_1_36" fill="white">
<path d="M152 480H248V576H152V480Z"/>
</mask>
<path d="M248 576V577H249V576H248ZM247 480V576H249V480H247ZM248 575H152V577H248V575Z" fill="white" fill-opacity="0.1" mask="url(#path-165-inside-82_1_36)"/>
<mask id="path-167-inside-83_1_36" fill="white">
<path d="M248 480H344V576H248V480Z"/>
</mask>
<path d="M344 576V577H345V576H344ZM343 480V576H345V480H343ZM344 575H248V577H344V575Z" fill="white" fill-opacity="0.1" mask="url(#path-167-inside-83_1_36)"/>
<mask id="path-169-inside-84_1_36" fill="white">
<path d="M344 480H440V576H344V480Z"/>
</mask>
<path d="M344 480H440V576H344V480Z" fill="white" fill-opacity="0.1"/>
<path d="M440 576V577H441V576H440ZM439 480V576H441V480H439ZM440 575H344V577H440V575Z" fill="white" fill-opacity="0.1" mask="url(#path-169-inside-84_1_36)"/>
<mask id="path-171-inside-85_1_36" fill="white">
<path d="M440 480H536V576H440V480Z"/>
</mask>
<path d="M536 576V577H537V576H536ZM535 480V576H537V480H535ZM536 575H440V577H536V575Z" fill="white" fill-opacity="0.1" mask="url(#path-171-inside-85_1_36)"/>
<mask id="path-173-inside-86_1_36" fill="white">
<path d="M536 480H632V576H536V480Z"/>
</mask>
<path d="M632 576V577H633V576H632ZM631 480V576H633V480H631ZM632 575H536V577H632V575Z" fill="white" fill-opacity="0.1" mask="url(#path-173-inside-86_1_36)"/>
<mask id="path-175-inside-87_1_36" fill="white">
<path d="M632 480H728V576H632V480Z"/>
</mask>
<path d="M728 576V577H729V576H728ZM727 480V576H729V480H727ZM728 575H632V577H728V575Z" fill="white" fill-opacity="0.1" mask="url(#path-175-inside-87_1_36)"/>
<mask id="path-177-inside-88_1_36" fill="white">
<path d="M728 480H824V576H728V480Z"/>
</mask>
<path d="M824 576V577H825V576H824ZM823 480V576H825V480H823ZM824 575H728V577H824V575Z" fill="white" fill-opacity="0.1" mask="url(#path-177-inside-88_1_36)"/>
<mask id="path-179-inside-89_1_36" fill="white">
<path d="M824 480H920V576H824V480Z"/>
</mask>
<path d="M920 576V577H921V576H920ZM919 480V576H921V480H919ZM920 575H824V577H920V575Z" fill="white" fill-opacity="0.1" mask="url(#path-179-inside-89_1_36)"/>
<mask id="path-181-inside-90_1_36" fill="white">
<path d="M920 480H1016V576H920V480Z"/>
</mask>
<path d="M920 480H1016V576H920V480Z" fill="white" fill-opacity="0.1"/>
<path d="M1016 576V577H1017V576H1016ZM1015 480V576H1017V480H1015ZM1016 575H920V577H1016V575Z" fill="white" fill-opacity="0.1" mask="url(#path-181-inside-90_1_36)"/>
<mask id="path-183-inside-91_1_36" fill="white">
<path d="M1016 480H1112V576H1016V480Z"/>
</mask>
<path d="M1112 576V577H1113V576H1112ZM1111 480V576H1113V480H1111ZM1112 575H1016V577H1112V575Z" fill="white" fill-opacity="0.1" mask="url(#path-183-inside-91_1_36)"/>
<mask id="path-185-inside-92_1_36" fill="white">
<path d="M1112 480H1208V576H1112V480Z"/>
</mask>
<path d="M1208 576V577H1209V576H1208ZM1207 480V576H1209V480H1207ZM1208 575H1112V577H1208V575Z" fill="white" fill-opacity="0.1" mask="url(#path-185-inside-92_1_36)"/>
<mask id="path-187-inside-93_1_36" fill="white">
<path d="M1208 480H1304V576H1208V480Z"/>
</mask>
<path d="M1304 576V577H1305V576H1304ZM1303 480V576H1305V480H1303ZM1304 575H1208V577H1304V575Z" fill="white" fill-opacity="0.1" mask="url(#path-187-inside-93_1_36)"/>
<mask id="path-189-inside-94_1_36" fill="white">
<path d="M1304 480H1400V576H1304V480Z"/>
</mask>
<path d="M1400 576V577H1401V576H1400ZM1399 480V576H1401V480H1399ZM1400 575H1304V577H1400V575Z" fill="white" fill-opacity="0.1" mask="url(#path-189-inside-94_1_36)"/>
<mask id="path-191-inside-95_1_36" fill="white">
<path d="M1400 480H1496V576H1400V480Z"/>
</mask>
<path d="M1496 576V577H1497V576H1496ZM1495 480V576H1497V480H1495ZM1496 575H1400V577H1496V575Z" fill="white" fill-opacity="0.1" mask="url(#path-191-inside-95_1_36)"/>
<mask id="path-193-inside-96_1_36" fill="white">
<path d="M1496 480H1592V576H1496V480Z"/>
</mask>
<path d="M1592 576V577H1593V576H1592ZM1591 480V576H1593V480H1591ZM1592 575H1496V577H1592V575Z" fill="white" fill-opacity="0.1" mask="url(#path-193-inside-96_1_36)"/>
<mask id="path-195-inside-97_1_36" fill="white">
<path d="M56 576H152V672H56V576Z"/>
</mask>
<path d="M152 672V673H153V672H152ZM151 576V672H153V576H151ZM152 671H56V673H152V671Z" fill="white" fill-opacity="0.1" mask="url(#path-195-inside-97_1_36)"/>
<mask id="path-197-inside-98_1_36" fill="white">
<path d="M152 576H248V672H152V576Z"/>
</mask>
<path d="M152 576H248V672H152V576Z" fill="white" fill-opacity="0.1"/>
<path d="M248 672V673H249V672H248ZM247 576V672H249V576H247ZM248 671H152V673H248V671Z" fill="white" fill-opacity="0.1" mask="url(#path-197-inside-98_1_36)"/>
<mask id="path-199-inside-99_1_36" fill="white">
<path d="M248 576H344V672H248V576Z"/>
</mask>
<path d="M344 672V673H345V672H344ZM343 576V672H345V576H343ZM344 671H248V673H344V671Z" fill="white" fill-opacity="0.1" mask="url(#path-199-inside-99_1_36)"/>
<mask id="path-201-inside-100_1_36" fill="white">
<path d="M344 576H440V672H344V576Z"/>
</mask>
<path d="M440 672V673H441V672H440ZM439 576V672H441V576H439ZM440 671H344V673H440V671Z" fill="white" fill-opacity="0.1" mask="url(#path-201-inside-100_1_36)"/>
<mask id="path-203-inside-101_1_36" fill="white">
<path d="M440 576H536V672H440V576Z"/>
</mask>
<path d="M536 672V673H537V672H536ZM535 576V672H537V576H535ZM536 671H440V673H536V671Z" fill="white" fill-opacity="0.1" mask="url(#path-203-inside-101_1_36)"/>
<mask id="path-205-inside-102_1_36" fill="white">
<path d="M536 576H632V672H536V576Z"/>
</mask>
<path d="M632 672V673H633V672H632ZM631 576V672H633V576H631ZM632 671H536V673H632V671Z" fill="white" fill-opacity="0.1" mask="url(#path-205-inside-102_1_36)"/>
<mask id="path-207-inside-103_1_36" fill="white">
<path d="M632 576H728V672H632V576Z"/>
</mask>
<path d="M728 672V673H729V672H728ZM727 576V672H729V576H727ZM728 671H632V673H728V671Z" fill="white" fill-opacity="0.1" mask="url(#path-207-inside-103_1_36)"/>
<mask id="path-209-inside-104_1_36" fill="white">
<path d="M728 576H824V672H728V576Z"/>
</mask>
<path d="M824 672V673H825V672H824ZM823 576V672H825V576H823ZM824 671H728V673H824V671Z" fill="white" fill-opacity="0.1" mask="url(#path-209-inside-104_1_36)"/>
<mask id="path-211-inside-105_1_36" fill="white">
<path d="M824 576H920V672H824V576Z"/>
</mask>
<path d="M920 672V673H921V672H920ZM919 576V672H921V576H919ZM920 671H824V673H920V671Z" fill="white" fill-opacity="0.1" mask="url(#path-211-inside-105_1_36)"/>
<mask id="path-213-inside-106_1_36" fill="white">
<path d="M920 576H1016V672H920V576Z"/>
</mask>
<path d="M1016 672V673H1017V672H1016ZM1015 576V672H1017V576H1015ZM1016 671H920V673H1016V671Z" fill="white" fill-opacity="0.1" mask="url(#path-213-inside-106_1_36)"/>
<mask id="path-215-inside-107_1_36" fill="white">
<path d="M1016 576H1112V672H1016V576Z"/>
</mask>
<path d="M1112 672V673H1113V672H1112ZM1111 576V672H1113V576H1111ZM1112 671H1016V673H1112V671Z" fill="white" fill-opacity="0.1" mask="url(#path-215-inside-107_1_36)"/>
<mask id="path-217-inside-108_1_36" fill="white">
<path d="M1112 576H1208V672H1112V576Z"/>
</mask>
<path d="M1208 672V673H1209V672H1208ZM1207 576V672H1209V576H1207ZM1208 671H1112V673H1208V671Z" fill="white" fill-opacity="0.1" mask="url(#path-217-inside-108_1_36)"/>
<mask id="path-219-inside-109_1_36" fill="white">
<path d="M1208 576H1304V672H1208V576Z"/>
</mask>
<path d="M1304 672V673H1305V672H1304ZM1303 576V672H1305V576H1303ZM1304 671H1208V673H1304V671Z" fill="white" fill-opacity="0.1" mask="url(#path-219-inside-109_1_36)"/>
<mask id="path-221-inside-110_1_36" fill="white">
<path d="M1304 576H1400V672H1304V576Z"/>
</mask>
<path d="M1400 672V673H1401V672H1400ZM1399 576V672H1401V576H1399ZM1400 671H1304V673H1400V671Z" fill="white" fill-opacity="0.1" mask="url(#path-221-inside-110_1_36)"/>
<mask id="path-223-inside-111_1_36" fill="white">
<path d="M1400 576H1496V672H1400V576Z"/>
</mask>
<path d="M1400 576H1496V672H1400V576Z" fill="white" fill-opacity="0.1"/>
<path d="M1496 672V673H1497V672H1496ZM1495 576V672H1497V576H1495ZM1496 671H1400V673H1496V671Z" fill="white" fill-opacity="0.1" mask="url(#path-223-inside-111_1_36)"/>
<mask id="path-225-inside-112_1_36" fill="white">
<path d="M1496 576H1592V672H1496V576Z"/>
</mask>
<path d="M1592 672V673H1593V672H1592ZM1591 576V672H1593V576H1591ZM1592 671H1496V673H1592V671Z" fill="white" fill-opacity="0.1" mask="url(#path-225-inside-112_1_36)"/>
<mask id="path-227-inside-113_1_36" fill="white">
<path d="M56 672H152V768H56V672Z"/>
</mask>
<path d="M152 768V769H153V768H152ZM151 672V768H153V672H151ZM152 767H56V769H152V767Z" fill="white" fill-opacity="0.1" mask="url(#path-227-inside-113_1_36)"/>
<mask id="path-229-inside-114_1_36" fill="white">
<path d="M152 672H248V768H152V672Z"/>
</mask>
<path d="M248 768V769H249V768H248ZM247 672V768H249V672H247ZM248 767H152V769H248V767Z" fill="white" fill-opacity="0.1" mask="url(#path-229-inside-114_1_36)"/>
<mask id="path-231-inside-115_1_36" fill="white">
<path d="M248 672H344V768H248V672Z"/>
</mask>
<path d="M344 768V769H345V768H344ZM343 672V768H345V672H343ZM344 767H248V769H344V767Z" fill="white" fill-opacity="0.1" mask="url(#path-231-inside-115_1_36)"/>
<mask id="path-233-inside-116_1_36" fill="white">
<path d="M344 672H440V768H344V672Z"/>
</mask>
<path d="M440 768V769H441V768H440ZM439 672V768H441V672H439ZM440 767H344V769H440V767Z" fill="white" fill-opacity="0.1" mask="url(#path-233-inside-116_1_36)"/>
<mask id="path-235-inside-117_1_36" fill="white">
<path d="M440 672H536V768H440V672Z"/>
</mask>
<path d="M536 768V769H537V768H536ZM535 672V768H537V672H535ZM536 767H440V769H536V767Z" fill="white" fill-opacity="0.1" mask="url(#path-235-inside-117_1_36)"/>
<mask id="path-237-inside-118_1_36" fill="white">
<path d="M536 672H632V768H536V672Z"/>
</mask>
<path d="M632 768V769H633V768H632ZM631 672V768H633V672H631ZM632 767H536V769H632V767Z" fill="white" fill-opacity="0.1" mask="url(#path-237-inside-118_1_36)"/>
<mask id="path-239-inside-119_1_36" fill="white">
<path d="M632 672H728V768H632V672Z"/>
</mask>
<path d="M632 672H728V768H632V672Z" fill="white" fill-opacity="0.1"/>
<path d="M728 768V769H729V768H728ZM727 672V768H729V672H727ZM728 767H632V769H728V767Z" fill="white" fill-opacity="0.1" mask="url(#path-239-inside-119_1_36)"/>
<mask id="path-241-inside-120_1_36" fill="white">
<path d="M728 672H824V768H728V672Z"/>
</mask>
<path d="M824 768V769H825V768H824ZM823 672V768H825V672H823ZM824 767H728V769H824V767Z" fill="white" fill-opacity="0.1" mask="url(#path-241-inside-120_1_36)"/>
<mask id="path-243-inside-121_1_36" fill="white">
<path d="M824 672H920V768H824V672Z"/>
</mask>
<path d="M920 768V769H921V768H920ZM919 672V768H921V672H919ZM920 767H824V769H920V767Z" fill="white" fill-opacity="0.1" mask="url(#path-243-inside-121_1_36)"/>
<mask id="path-245-inside-122_1_36" fill="white">
<path d="M920 672H1016V768H920V672Z"/>
</mask>
<path d="M1016 768V769H1017V768H1016ZM1015 672V768H1017V672H1015ZM1016 767H920V769H1016V767Z" fill="white" fill-opacity="0.1" mask="url(#path-245-inside-122_1_36)"/>
<mask id="path-247-inside-123_1_36" fill="white">
<path d="M1016 672H1112V768H1016V672Z"/>
</mask>
<path d="M1112 768V769H1113V768H1112ZM1111 672V768H1113V672H1111ZM1112 767H1016V769H1112V767Z" fill="white" fill-opacity="0.1" mask="url(#path-247-inside-123_1_36)"/>
<mask id="path-249-inside-124_1_36" fill="white">
<path d="M1112 672H1208V768H1112V672Z"/>
</mask>
<path d="M1208 768V769H1209V768H1208ZM1207 672V768H1209V672H1207ZM1208 767H1112V769H1208V767Z" fill="white" fill-opacity="0.1" mask="url(#path-249-inside-124_1_36)"/>
<mask id="path-251-inside-125_1_36" fill="white">
<path d="M1208 672H1304V768H1208V672Z"/>
</mask>
<path d="M1208 672H1304V768H1208V672Z" fill="white" fill-opacity="0.1"/>
<path d="M1304 768V769H1305V768H1304ZM1303 672V768H1305V672H1303ZM1304 767H1208V769H1304V767Z" fill="white" fill-opacity="0.1" mask="url(#path-251-inside-125_1_36)"/>
<mask id="path-253-inside-126_1_36" fill="white">
<path d="M1304 672H1400V768H1304V672Z"/>
</mask>
<path d="M1400 768V769H1401V768H1400ZM1399 672V768H1401V672H1399ZM1400 767H1304V769H1400V767Z" fill="white" fill-opacity="0.1" mask="url(#path-253-inside-126_1_36)"/>
<mask id="path-255-inside-127_1_36" fill="white">
<path d="M1400 672H1496V768H1400V672Z"/>
</mask>
<path d="M1496 768V769H1497V768H1496ZM1495 672V768H1497V672H1495ZM1496 767H1400V769H1496V767Z" fill="white" fill-opacity="0.1" mask="url(#path-255-inside-127_1_36)"/>
<mask id="path-257-inside-128_1_36" fill="white">
<path d="M1496 672H1592V768H1496V672Z"/>
</mask>
<path d="M1592 768V769H1593V768H1592ZM1591 672V768H1593V672H1591ZM1592 767H1496V769H1592V767Z" fill="white" fill-opacity="0.1" mask="url(#path-257-inside-128_1_36)"/>
<mask id="path-259-inside-129_1_36" fill="white">
<path d="M56 768H152V864H56V768Z"/>
</mask>
<path d="M152 864V865H153V864H152ZM151 768V864H153V768H151ZM152 863H56V865H152V863Z" fill="white" fill-opacity="0.1" mask="url(#path-259-inside-129_1_36)"/>
<mask id="path-261-inside-130_1_36" fill="white">
<path d="M152 768H248V864H152V768Z"/>
</mask>
<path d="M248 864V865H249V864H248ZM247 768V864H249V768H247ZM248 863H152V865H248V863Z" fill="white" fill-opacity="0.1" mask="url(#path-261-inside-130_1_36)"/>
<mask id="path-263-inside-131_1_36" fill="white">
<path d="M248 768H344V864H248V768Z"/>
</mask>
<path d="M344 864V865H345V864H344ZM343 768V864H345V768H343ZM344 863H248V865H344V863Z" fill="white" fill-opacity="0.1" mask="url(#path-263-inside-131_1_36)"/>
<mask id="path-265-inside-132_1_36" fill="white">
<path d="M344 768H440V864H344V768Z"/>
</mask>
<path d="M344 768H440V864H344V768Z" fill="white" fill-opacity="0.1"/>
<path d="M440 864V865H441V864H440ZM439 768V864H441V768H439ZM440 863H344V865H440V863Z" fill="white" fill-opacity="0.1" mask="url(#path-265-inside-132_1_36)"/>
<mask id="path-267-inside-133_1_36" fill="white">
<path d="M440 768H536V864H440V768Z"/>
</mask>
<path d="M536 864V865H537V864H536ZM535 768V864H537V768H535ZM536 863H440V865H536V863Z" fill="white" fill-opacity="0.1" mask="url(#path-267-inside-133_1_36)"/>
<mask id="path-269-inside-134_1_36" fill="white">
<path d="M536 768H632V864H536V768Z"/>
</mask>
<path d="M632 864V865H633V864H632ZM631 768V864H633V768H631ZM632 863H536V865H632V863Z" fill="white" fill-opacity="0.1" mask="url(#path-269-inside-134_1_36)"/>
<mask id="path-271-inside-135_1_36" fill="white">
<path d="M632 768H728V864H632V768Z"/>
</mask>
<path d="M728 864V865H729V864H728ZM727 768V864H729V768H727ZM728 863H632V865H728V863Z" fill="white" fill-opacity="0.1" mask="url(#path-271-inside-135_1_36)"/>
<mask id="path-273-inside-136_1_36" fill="white">
<path d="M728 768H824V864H728V768Z"/>
</mask>
<path d="M824 864V865H825V864H824ZM823 768V864H825V768H823ZM824 863H728V865H824V863Z" fill="white" fill-opacity="0.1" mask="url(#path-273-inside-136_1_36)"/>
<mask id="path-275-inside-137_1_36" fill="white">
<path d="M824 768H920V864H824V768Z"/>
</mask>
<path d="M920 864V865H921V864H920ZM919 768V864H921V768H919ZM920 863H824V865H920V863Z" fill="white" fill-opacity="0.1" mask="url(#path-275-inside-137_1_36)"/>
<mask id="path-277-inside-138_1_36" fill="white">
<path d="M920 768H1016V864H920V768Z"/>
</mask>
<path d="M920 768H1016V864H920V768Z" fill="white" fill-opacity="0.1"/>
<path d="M1016 864V865H1017V864H1016ZM1015 768V864H1017V768H1015ZM1016 863H920V865H1016V863Z" fill="white" fill-opacity="0.1" mask="url(#path-277-inside-138_1_36)"/>
<mask id="path-279-inside-139_1_36" fill="white">
<path d="M1016 768H1112V864H1016V768Z"/>
</mask>
<path d="M1112 864V865H1113V864H1112ZM1111 768V864H1113V768H1111ZM1112 863H1016V865H1112V863Z" fill="white" fill-opacity="0.1" mask="url(#path-279-inside-139_1_36)"/>
<mask id="path-281-inside-140_1_36" fill="white">
<path d="M1112 768H1208V864H1112V768Z"/>
</mask>
<path d="M1208 864V865H1209V864H1208ZM1207 768V864H1209V768H1207ZM1208 863H1112V865H1208V863Z" fill="white" fill-opacity="0.1" mask="url(#path-281-inside-140_1_36)"/>
<mask id="path-283-inside-141_1_36" fill="white">
<path d="M1208 768H1304V864H1208V768Z"/>
</mask>
<path d="M1304 864V865H1305V864H1304ZM1303 768V864H1305V768H1303ZM1304 863H1208V865H1304V863Z" fill="white" fill-opacity="0.1" mask="url(#path-283-inside-141_1_36)"/>
<mask id="path-285-inside-142_1_36" fill="white">
<path d="M1304 768H1400V864H1304V768Z"/>
</mask>
<path d="M1400 864V865H1401V864H1400ZM1399 768V864H1401V768H1399ZM1400 863H1304V865H1400V863Z" fill="white" fill-opacity="0.1" mask="url(#path-285-inside-142_1_36)"/>
<mask id="path-287-inside-143_1_36" fill="white">
<path d="M1400 768H1496V864H1400V768Z"/>
</mask>
<path d="M1496 864V865H1497V864H1496ZM1495 768V864H1497V768H1495ZM1496 863H1400V865H1496V863Z" fill="white" fill-opacity="0.1" mask="url(#path-287-inside-143_1_36)"/>
<mask id="path-289-inside-144_1_36" fill="white">
<path d="M1496 768H1592V864H1496V768Z"/>
</mask>
<path d="M1592 864V865H1593V864H1592ZM1591 768V864H1593V768H1591ZM1592 863H1496V865H1592V863Z" fill="white" fill-opacity="0.1" mask="url(#path-289-inside-144_1_36)"/>
<mask id="path-291-inside-145_1_36" fill="white">
<path d="M56 864H152V960H56V864Z"/>
</mask>
<path d="M152 960V961H153V960H152ZM151 864V960H153V864H151ZM152 959H56V961H152V959Z" fill="white" fill-opacity="0.1" mask="url(#path-291-inside-145_1_36)"/>
<mask id="path-293-inside-146_1_36" fill="white">
<path d="M152 864H248V960H152V864Z"/>
</mask>
<path d="M248 960V961H249V960H248ZM247 864V960H249V864H247ZM248 959H152V961H248V959Z" fill="white" fill-opacity="0.1" mask="url(#path-293-inside-146_1_36)"/>
<mask id="path-295-inside-147_1_36" fill="white">
<path d="M248 864H344V960H248V864Z"/>
</mask>
<path d="M344 960V961H345V960H344ZM343 864V960H345V864H343ZM344 959H248V961H344V959Z" fill="white" fill-opacity="0.1" mask="url(#path-295-inside-147_1_36)"/>
<mask id="path-297-inside-148_1_36" fill="white">
<path d="M344 864H440V960H344V864Z"/>
</mask>
<path d="M440 960V961H441V960H440ZM439 864V960H441V864H439ZM440 959H344V961H440V959Z" fill="white" fill-opacity="0.1" mask="url(#path-297-inside-148_1_36)"/>
<mask id="path-299-inside-149_1_36" fill="white">
<path d="M440 864H536V960H440V864Z"/>
</mask>
<path d="M536 960V961H537V960H536ZM535 864V960H537V864H535ZM536 959H440V961H536V959Z" fill="white" fill-opacity="0.1" mask="url(#path-299-inside-149_1_36)"/>
<mask id="path-301-inside-150_1_36" fill="white">
<path d="M536 864H632V960H536V864Z"/>
</mask>
<path d="M632 960V961H633V960H632ZM631 864V960H633V864H631ZM632 959H536V961H632V959Z" fill="white" fill-opacity="0.1" mask="url(#path-301-inside-150_1_36)"/>
<mask id="path-303-inside-151_1_36" fill="white">
<path d="M632 864H728V960H632V864Z"/>
</mask>
<path d="M728 960V961H729V960H728ZM727 864V960H729V864H727ZM728 959H632V961H728V959Z" fill="white" fill-opacity="0.1" mask="url(#path-303-inside-151_1_36)"/>
<mask id="path-305-inside-152_1_36" fill="white">
<path d="M728 864H824V960H728V864Z"/>
</mask>
<path d="M824 960V961H825V960H824ZM823 864V960H825V864H823ZM824 959H728V961H824V959Z" fill="white" fill-opacity="0.1" mask="url(#path-305-inside-152_1_36)"/>
<mask id="path-307-inside-153_1_36" fill="white">
<path d="M824 864H920V960H824V864Z"/>
</mask>
<path d="M920 960V961H921V960H920ZM919 864V960H921V864H919ZM920 959H824V961H920V959Z" fill="white" fill-opacity="0.1" mask="url(#path-307-inside-153_1_36)"/>
<mask id="path-309-inside-154_1_36" fill="white">
<path d="M920 864H1016V960H920V864Z"/>
</mask>
<path d="M1016 960V961H1017V960H1016ZM1015 864V960H1017V864H1015ZM1016 959H920V961H1016V959Z" fill="white" fill-opacity="0.1" mask="url(#path-309-inside-154_1_36)"/>
<mask id="path-311-inside-155_1_36" fill="white">
<path d="M1016 864H1112V960H1016V864Z"/>
</mask>
<path d="M1112 960V961H1113V960H1112ZM1111 864V960H1113V864H1111ZM1112 959H1016V961H1112V959Z" fill="white" fill-opacity="0.1" mask="url(#path-311-inside-155_1_36)"/>
<mask id="path-313-inside-156_1_36" fill="white">
<path d="M1112 864H1208V960H1112V864Z"/>
</mask>
<path d="M1208 960V961H1209V960H1208ZM1207 864V960H1209V864H1207ZM1208 959H1112V961H1208V959Z" fill="white" fill-opacity="0.1" mask="url(#path-313-inside-156_1_36)"/>
<mask id="path-315-inside-157_1_36" fill="white">
<path d="M1208 864H1304V960H1208V864Z"/>
</mask>
<path d="M1304 960V961H1305V960H1304ZM1303 864V960H1305V864H1303ZM1304 959H1208V961H1304V959Z" fill="white" fill-opacity="0.1" mask="url(#path-315-inside-157_1_36)"/>
<mask id="path-317-inside-158_1_36" fill="white">
<path d="M1304 864H1400V960H1304V864Z"/>
</mask>
<path d="M1400 960V961H1401V960H1400ZM1399 864V960H1401V864H1399ZM1400 959H1304V961H1400V959Z" fill="white" fill-opacity="0.1" mask="url(#path-317-inside-158_1_36)"/>
<mask id="path-319-inside-159_1_36" fill="white">
<path d="M1400 864H1496V960H1400V864Z"/>
</mask>
<path d="M1496 960V961H1497V960H1496ZM1495 864V960H1497V864H1495ZM1496 959H1400V961H1496V959Z" fill="white" fill-opacity="0.1" mask="url(#path-319-inside-159_1_36)"/>
<mask id="path-321-inside-160_1_36" fill="white">
<path d="M1496 864H1592V960H1496V864Z"/>
</mask>
<path d="M1496 864H1592V960H1496V864Z" fill="white" fill-opacity="0.1"/>
<path d="M1592 960V961H1593V960H1592ZM1591 864V960H1593V864H1591ZM1592 959H1496V961H1592V959Z" fill="white" fill-opacity="0.1" mask="url(#path-321-inside-160_1_36)"/>
<mask id="path-323-inside-161_1_36" fill="white">
<path d="M56 960H152V1056H56V960Z"/>
</mask>
<path d="M152 1056V1057H153V1056H152ZM151 960V1056H153V960H151ZM152 1055H56V1057H152V1055Z" fill="white" fill-opacity="0.1" mask="url(#path-323-inside-161_1_36)"/>
<mask id="path-325-inside-162_1_36" fill="white">
<path d="M152 960H248V1056H152V960Z"/>
</mask>
<path d="M248 1056V1057H249V1056H248ZM247 960V1056H249V960H247ZM248 1055H152V1057H248V1055Z" fill="white" fill-opacity="0.1" mask="url(#path-325-inside-162_1_36)"/>
<mask id="path-327-inside-163_1_36" fill="white">
<path d="M248 960H344V1056H248V960Z"/>
</mask>
<path d="M344 1056V1057H345V1056H344ZM343 960V1056H345V960H343ZM344 1055H248V1057H344V1055Z" fill="white" fill-opacity="0.1" mask="url(#path-327-inside-163_1_36)"/>
<mask id="path-329-inside-164_1_36" fill="white">
<path d="M344 960H440V1056H344V960Z"/>
</mask>
<path d="M440 1056V1057H441V1056H440ZM439 960V1056H441V960H439ZM440 1055H344V1057H440V1055Z" fill="white" fill-opacity="0.1" mask="url(#path-329-inside-164_1_36)"/>
<mask id="path-331-inside-165_1_36" fill="white">
<path d="M440 960H536V1056H440V960Z"/>
</mask>
<path d="M440 960H536V1056H440V960Z" fill="white" fill-opacity="0.1"/>
<path d="M536 1056V1057H537V1056H536ZM535 960V1056H537V960H535ZM536 1055H440V1057H536V1055Z" fill="white" fill-opacity="0.1" mask="url(#path-331-inside-165_1_36)"/>
<mask id="path-333-inside-166_1_36" fill="white">
<path d="M536 960H632V1056H536V960Z"/>
</mask>
<path d="M632 1056V1057H633V1056H632ZM631 960V1056H633V960H631ZM632 1055H536V1057H632V1055Z" fill="white" fill-opacity="0.1" mask="url(#path-333-inside-166_1_36)"/>
<mask id="path-335-inside-167_1_36" fill="white">
<path d="M632 960H728V1056H632V960Z"/>
</mask>
<path d="M728 1056V1057H729V1056H728ZM727 960V1056H729V960H727ZM728 1055H632V1057H728V1055Z" fill="white" fill-opacity="0.1" mask="url(#path-335-inside-167_1_36)"/>
<mask id="path-337-inside-168_1_36" fill="white">
<path d="M728 960H824V1056H728V960Z"/>
</mask>
<path d="M824 1056V1057H825V1056H824ZM823 960V1056H825V960H823ZM824 1055H728V1057H824V1055Z" fill="white" fill-opacity="0.1" mask="url(#path-337-inside-168_1_36)"/>
<mask id="path-339-inside-169_1_36" fill="white">
<path d="M824 960H920V1056H824V960Z"/>
</mask>
<path d="M824 960H920V1056H824V960Z" fill="white" fill-opacity="0.1"/>
<path d="M920 1056V1057H921V1056H920ZM919 960V1056H921V960H919ZM920 1055H824V1057H920V1055Z" fill="white" fill-opacity="0.1" mask="url(#path-339-inside-169_1_36)"/>
<mask id="path-341-inside-170_1_36" fill="white">
<path d="M920 960H1016V1056H920V960Z"/>
</mask>
<path d="M1016 1056V1057H1017V1056H1016ZM1015 960V1056H1017V960H1015ZM1016 1055H920V1057H1016V1055Z" fill="white" fill-opacity="0.1" mask="url(#path-341-inside-170_1_36)"/>
<mask id="path-343-inside-171_1_36" fill="white">
<path d="M1016 960H1112V1056H1016V960Z"/>
</mask>
<path d="M1112 1056V1057H1113V1056H1112ZM1111 960V1056H1113V960H1111ZM1112 1055H1016V1057H1112V1055Z" fill="white" fill-opacity="0.1" mask="url(#path-343-inside-171_1_36)"/>
<mask id="path-345-inside-172_1_36" fill="white">
<path d="M1112 960H1208V1056H1112V960Z"/>
</mask>
<path d="M1208 1056V1057H1209V1056H1208ZM1207 960V1056H1209V960H1207ZM1208 1055H1112V1057H1208V1055Z" fill="white" fill-opacity="0.1" mask="url(#path-345-inside-172_1_36)"/>
<mask id="path-347-inside-173_1_36" fill="white">
<path d="M1208 960H1304V1056H1208V960Z"/>
</mask>
<path d="M1304 1056V1057H1305V1056H1304ZM1303 960V1056H1305V960H1303ZM1304 1055H1208V1057H1304V1055Z" fill="white" fill-opacity="0.1" mask="url(#path-347-inside-173_1_36)"/>
<mask id="path-349-inside-174_1_36" fill="white">
<path d="M1304 960H1400V1056H1304V960Z"/>
</mask>
<path d="M1400 1056V1057H1401V1056H1400ZM1399 960V1056H1401V960H1399ZM1400 1055H1304V1057H1400V1055Z" fill="white" fill-opacity="0.1" mask="url(#path-349-inside-174_1_36)"/>
<mask id="path-351-inside-175_1_36" fill="white">
<path d="M1400 960H1496V1056H1400V960Z"/>
</mask>
<path d="M1496 1056V1057H1497V1056H1496ZM1495 960V1056H1497V960H1495ZM1496 1055H1400V1057H1496V1055Z" fill="white" fill-opacity="0.1" mask="url(#path-351-inside-175_1_36)"/>
<mask id="path-353-inside-176_1_36" fill="white">
<path d="M1496 960H1592V1056H1496V960Z"/>
</mask>
<path d="M1592 1056V1057H1593V1056H1592ZM1591 960V1056H1593V960H1591ZM1592 1055H1496V1057H1592V1055Z" fill="white" fill-opacity="0.1" mask="url(#path-353-inside-176_1_36)"/>
<mask id="path-355-inside-177_1_36" fill="white">
<path d="M56 1056H152V1152H56V1056Z"/>
</mask>
<path d="M56 1056H152V1152H56V1056Z" fill="white" fill-opacity="0.1"/>
<path d="M152 1152V1153H153V1152H152ZM151 1056V1152H153V1056H151ZM152 1151H56V1153H152V1151Z" fill="white" fill-opacity="0.1" mask="url(#path-355-inside-177_1_36)"/>
<mask id="path-357-inside-178_1_36" fill="white">
<path d="M152 1056H248V1152H152V1056Z"/>
</mask>
<path d="M248 1152V1153H249V1152H248ZM247 1056V1152H249V1056H247ZM248 1151H152V1153H248V1151Z" fill="white" fill-opacity="0.1" mask="url(#path-357-inside-178_1_36)"/>
<mask id="path-359-inside-179_1_36" fill="white">
<path d="M248 1056H344V1152H248V1056Z"/>
</mask>
<path d="M344 1152V1153H345V1152H344ZM343 1056V1152H345V1056H343ZM344 1151H248V1153H344V1151Z" fill="white" fill-opacity="0.1" mask="url(#path-359-inside-179_1_36)"/>
<mask id="path-361-inside-180_1_36" fill="white">
<path d="M344 1056H440V1152H344V1056Z"/>
</mask>
<path d="M440 1152V1153H441V1152H440ZM439 1056V1152H441V1056H439ZM440 1151H344V1153H440V1151Z" fill="white" fill-opacity="0.1" mask="url(#path-361-inside-180_1_36)"/>
<mask id="path-363-inside-181_1_36" fill="white">
<path d="M440 1056H536V1152H440V1056Z"/>
</mask>
<path d="M536 1152V1153H537V1152H536ZM535 1056V1152H537V1056H535ZM536 1151H440V1153H536V1151Z" fill="white" fill-opacity="0.1" mask="url(#path-363-inside-181_1_36)"/>
<mask id="path-365-inside-182_1_36" fill="white">
<path d="M536 1056H632V1152H536V1056Z"/>
</mask>
<path d="M632 1152V1153H633V1152H632ZM631 1056V1152H633V1056H631ZM632 1151H536V1153H632V1151Z" fill="white" fill-opacity="0.1" mask="url(#path-365-inside-182_1_36)"/>
<mask id="path-367-inside-183_1_36" fill="white">
<path d="M632 1056H728V1152H632V1056Z"/>
</mask>
<path d="M728 1152V1153H729V1152H728ZM727 1056V1152H729V1056H727ZM728 1151H632V1153H728V1151Z" fill="white" fill-opacity="0.1" mask="url(#path-367-inside-183_1_36)"/>
<mask id="path-369-inside-184_1_36" fill="white">
<path d="M728 1056H824V1152H728V1056Z"/>
</mask>
<path d="M824 1152V1153H825V1152H824ZM823 1056V1152H825V1056H823ZM824 1151H728V1153H824V1151Z" fill="white" fill-opacity="0.1" mask="url(#path-369-inside-184_1_36)"/>
<mask id="path-371-inside-185_1_36" fill="white">
<path d="M824 1056H920V1152H824V1056Z"/>
</mask>
<path d="M920 1152V1153H921V1152H920ZM919 1056V1152H921V1056H919ZM920 1151H824V1153H920V1151Z" fill="white" fill-opacity="0.1" mask="url(#path-371-inside-185_1_36)"/>
<mask id="path-373-inside-186_1_36" fill="white">
<path d="M920 1056H1016V1152H920V1056Z"/>
</mask>
<path d="M1016 1152V1153H1017V1152H1016ZM1015 1056V1152H1017V1056H1015ZM1016 1151H920V1153H1016V1151Z" fill="white" fill-opacity="0.1" mask="url(#path-373-inside-186_1_36)"/>
<mask id="path-375-inside-187_1_36" fill="white">
<path d="M1016 1056H1112V1152H1016V1056Z"/>
</mask>
<path d="M1112 1152V1153H1113V1152H1112ZM1111 1056V1152H1113V1056H1111ZM1112 1151H1016V1153H1112V1151Z" fill="white" fill-opacity="0.1" mask="url(#path-375-inside-187_1_36)"/>
<mask id="path-377-inside-188_1_36" fill="white">
<path d="M1112 1056H1208V1152H1112V1056Z"/>
</mask>
<path d="M1208 1152V1153H1209V1152H1208ZM1207 1056V1152H1209V1056H1207ZM1208 1151H1112V1153H1208V1151Z" fill="white" fill-opacity="0.1" mask="url(#path-377-inside-188_1_36)"/>
<mask id="path-379-inside-189_1_36" fill="white">
<path d="M1208 1056H1304V1152H1208V1056Z"/>
</mask>
<path d="M1208 1056H1304V1152H1208V1056Z" fill="white" fill-opacity="0.1"/>
<path d="M1304 1152V1153H1305V1152H1304ZM1303 1056V1152H1305V1056H1303ZM1304 1151H1208V1153H1304V1151Z" fill="white" fill-opacity="0.1" mask="url(#path-379-inside-189_1_36)"/>
<mask id="path-381-inside-190_1_36" fill="white">
<path d="M1304 1056H1400V1152H1304V1056Z"/>
</mask>
<path d="M1400 1152V1153H1401V1152H1400ZM1399 1056V1152H1401V1056H1399ZM1400 1151H1304V1153H1400V1151Z" fill="white" fill-opacity="0.1" mask="url(#path-381-inside-190_1_36)"/>
<mask id="path-383-inside-191_1_36" fill="white">
<path d="M1400 1056H1496V1152H1400V1056Z"/>
</mask>
<path d="M1496 1152V1153H1497V1152H1496ZM1495 1056V1152H1497V1056H1495ZM1496 1151H1400V1153H1496V1151Z" fill="white" fill-opacity="0.1" mask="url(#path-383-inside-191_1_36)"/>
<mask id="path-385-inside-192_1_36" fill="white">
<path d="M1496 1056H1592V1152H1496V1056Z"/>
</mask>
<path d="M1592 1152V1153H1593V1152H1592ZM1591 1056V1152H1593V1056H1591ZM1592 1151H1496V1153H1592V1151Z" fill="white" fill-opacity="0.1" mask="url(#path-385-inside-192_1_36)"/>
<mask id="path-387-inside-193_1_36" fill="white">
<path d="M56 1152H152V1248H56V1152Z"/>
</mask>
<path d="M152 1248V1249H153V1248H152ZM151 1152V1248H153V1152H151ZM152 1247H56V1249H152V1247Z" fill="white" fill-opacity="0.1" mask="url(#path-387-inside-193_1_36)"/>
<mask id="path-389-inside-194_1_36" fill="white">
<path d="M152 1152H248V1248H152V1152Z"/>
</mask>
<path d="M248 1248V1249H249V1248H248ZM247 1152V1248H249V1152H247ZM248 1247H152V1249H248V1247Z" fill="white" fill-opacity="0.1" mask="url(#path-389-inside-194_1_36)"/>
<mask id="path-391-inside-195_1_36" fill="white">
<path d="M248 1152H344V1248H248V1152Z"/>
</mask>
<path d="M344 1248V1249H345V1248H344ZM343 1152V1248H345V1152H343ZM344 1247H248V1249H344V1247Z" fill="white" fill-opacity="0.1" mask="url(#path-391-inside-195_1_36)"/>
<mask id="path-393-inside-196_1_36" fill="white">
<path d="M344 1152H440V1248H344V1152Z"/>
</mask>
<path d="M440 1248V1249H441V1248H440ZM439 1152V1248H441V1152H439ZM440 1247H344V1249H440V1247Z" fill="white" fill-opacity="0.1" mask="url(#path-393-inside-196_1_36)"/>
<mask id="path-395-inside-197_1_36" fill="white">
<path d="M440 1152H536V1248H440V1152Z"/>
</mask>
<path d="M536 1248V1249H537V1248H536ZM535 1152V1248H537V1152H535ZM536 1247H440V1249H536V1247Z" fill="white" fill-opacity="0.1" mask="url(#path-395-inside-197_1_36)"/>
<mask id="path-397-inside-198_1_36" fill="white">
<path d="M536 1152H632V1248H536V1152Z"/>
</mask>
<path d="M632 1248V1249H633V1248H632ZM631 1152V1248H633V1152H631ZM632 1247H536V1249H632V1247Z" fill="white" fill-opacity="0.1" mask="url(#path-397-inside-198_1_36)"/>
<mask id="path-399-inside-199_1_36" fill="white">
<path d="M632 1152H728V1248H632V1152Z"/>
</mask>
<path d="M632 1152H728V1248H632V1152Z" fill="white" fill-opacity="0.1"/>
<path d="M728 1248V1249H729V1248H728ZM727 1152V1248H729V1152H727ZM728 1247H632V1249H728V1247Z" fill="white" fill-opacity="0.1" mask="url(#path-399-inside-199_1_36)"/>
<mask id="path-401-inside-200_1_36" fill="white">
<path d="M728 1152H824V1248H728V1152Z"/>
</mask>
<path d="M824 1248V1249H825V1248H824ZM823 1152V1248H825V1152H823ZM824 1247H728V1249H824V1247Z" fill="white" fill-opacity="0.1" mask="url(#path-401-inside-200_1_36)"/>
<mask id="path-403-inside-201_1_36" fill="white">
<path d="M824 1152H920V1248H824V1152Z"/>
</mask>
<path d="M920 1248V1249H921V1248H920ZM919 1152V1248H921V1152H919ZM920 1247H824V1249H920V1247Z" fill="white" fill-opacity="0.1" mask="url(#path-403-inside-201_1_36)"/>
<mask id="path-405-inside-202_1_36" fill="white">
<path d="M920 1152H1016V1248H920V1152Z"/>
</mask>
<path d="M1016 1248V1249H1017V1248H1016ZM1015 1152V1248H1017V1152H1015ZM1016 1247H920V1249H1016V1247Z" fill="white" fill-opacity="0.1" mask="url(#path-405-inside-202_1_36)"/>
<mask id="path-407-inside-203_1_36" fill="white">
<path d="M1016 1152H1112V1248H1016V1152Z"/>
</mask>
<path d="M1112 1248V1249H1113V1248H1112ZM1111 1152V1248H1113V1152H1111ZM1112 1247H1016V1249H1112V1247Z" fill="white" fill-opacity="0.1" mask="url(#path-407-inside-203_1_36)"/>
<mask id="path-409-inside-204_1_36" fill="white">
<path d="M1112 1152H1208V1248H1112V1152Z"/>
</mask>
<path d="M1208 1248V1249H1209V1248H1208ZM1207 1152V1248H1209V1152H1207ZM1208 1247H1112V1249H1208V1247Z" fill="white" fill-opacity="0.1" mask="url(#path-409-inside-204_1_36)"/>
<mask id="path-411-inside-205_1_36" fill="white">
<path d="M1208 1152H1304V1248H1208V1152Z"/>
</mask>
<path d="M1304 1248V1249H1305V1248H1304ZM1303 1152V1248H1305V1152H1303ZM1304 1247H1208V1249H1304V1247Z" fill="white" fill-opacity="0.1" mask="url(#path-411-inside-205_1_36)"/>
<mask id="path-413-inside-206_1_36" fill="white">
<path d="M1304 1152H1400V1248H1304V1152Z"/>
</mask>
<path d="M1400 1248V1249H1401V1248H1400ZM1399 1152V1248H1401V1152H1399ZM1400 1247H1304V1249H1400V1247Z" fill="white" fill-opacity="0.1" mask="url(#path-413-inside-206_1_36)"/>
<mask id="path-415-inside-207_1_36" fill="white">
<path d="M1400 1152H1496V1248H1400V1152Z"/>
</mask>
<path d="M1496 1248V1249H1497V1248H1496ZM1495 1152V1248H1497V1152H1495ZM1496 1247H1400V1249H1496V1247Z" fill="white" fill-opacity="0.1" mask="url(#path-415-inside-207_1_36)"/>
<mask id="path-417-inside-208_1_36" fill="white">
<path d="M1496 1152H1592V1248H1496V1152Z"/>
</mask>
<path d="M1592 1248V1249H1593V1248H1592ZM1591 1152V1248H1593V1152H1591ZM1592 1247H1496V1249H1592V1247Z" fill="white" fill-opacity="0.1" mask="url(#path-417-inside-208_1_36)"/>
<mask id="path-419-inside-209_1_36" fill="white">
<path d="M56 1248H152V1344H56V1248Z"/>
</mask>
<path d="M152 1344V1345H153V1344H152ZM151 1248V1344H153V1248H151ZM152 1343H56V1345H152V1343Z" fill="white" fill-opacity="0.1" mask="url(#path-419-inside-209_1_36)"/>
<mask id="path-421-inside-210_1_36" fill="white">
<path d="M152 1248H248V1344H152V1248Z"/>
</mask>
<path d="M248 1344V1345H249V1344H248ZM247 1248V1344H249V1248H247ZM248 1343H152V1345H248V1343Z" fill="white" fill-opacity="0.1" mask="url(#path-421-inside-210_1_36)"/>
<mask id="path-423-inside-211_1_36" fill="white">
<path d="M248 1248H344V1344H248V1248Z"/>
</mask>
<path d="M344 1344V1345H345V1344H344ZM343 1248V1344H345V1248H343ZM344 1343H248V1345H344V1343Z" fill="white" fill-opacity="0.1" mask="url(#path-423-inside-211_1_36)"/>
<mask id="path-425-inside-212_1_36" fill="white">
<path d="M344 1248H440V1344H344V1248Z"/>
</mask>
<path d="M344 1248H440V1344H344V1248Z" fill="white" fill-opacity="0.1"/>
<path d="M440 1344V1345H441V1344H440ZM439 1248V1344H441V1248H439ZM440 1343H344V1345H440V1343Z" fill="white" fill-opacity="0.1" mask="url(#path-425-inside-212_1_36)"/>
<mask id="path-427-inside-213_1_36" fill="white">
<path d="M440 1248H536V1344H440V1248Z"/>
</mask>
<path d="M536 1344V1345H537V1344H536ZM535 1248V1344H537V1248H535ZM536 1343H440V1345H536V1343Z" fill="white" fill-opacity="0.1" mask="url(#path-427-inside-213_1_36)"/>
<mask id="path-429-inside-214_1_36" fill="white">
<path d="M536 1248H632V1344H536V1248Z"/>
</mask>
<path d="M632 1344V1345H633V1344H632ZM631 1248V1344H633V1248H631ZM632 1343H536V1345H632V1343Z" fill="white" fill-opacity="0.1" mask="url(#path-429-inside-214_1_36)"/>
<mask id="path-431-inside-215_1_36" fill="white">
<path d="M632 1248H728V1344H632V1248Z"/>
</mask>
<path d="M728 1344V1345H729V1344H728ZM727 1248V1344H729V1248H727ZM728 1343H632V1345H728V1343Z" fill="white" fill-opacity="0.1" mask="url(#path-431-inside-215_1_36)"/>
<mask id="path-433-inside-216_1_36" fill="white">
<path d="M728 1248H824V1344H728V1248Z"/>
</mask>
<path d="M824 1344V1345H825V1344H824ZM823 1248V1344H825V1248H823ZM824 1343H728V1345H824V1343Z" fill="white" fill-opacity="0.1" mask="url(#path-433-inside-216_1_36)"/>
<mask id="path-435-inside-217_1_36" fill="white">
<path d="M824 1248H920V1344H824V1248Z"/>
</mask>
<path d="M920 1344V1345H921V1344H920ZM919 1248V1344H921V1248H919ZM920 1343H824V1345H920V1343Z" fill="white" fill-opacity="0.1" mask="url(#path-435-inside-217_1_36)"/>
<mask id="path-437-inside-218_1_36" fill="white">
<path d="M920 1248H1016V1344H920V1248Z"/>
</mask>
<path d="M920 1248H1016V1344H920V1248Z" fill="white" fill-opacity="0.1"/>
<path d="M1016 1344V1345H1017V1344H1016ZM1015 1248V1344H1017V1248H1015ZM1016 1343H920V1345H1016V1343Z" fill="white" fill-opacity="0.1" mask="url(#path-437-inside-218_1_36)"/>
<mask id="path-439-inside-219_1_36" fill="white">
<path d="M1016 1248H1112V1344H1016V1248Z"/>
</mask>
<path d="M1112 1344V1345H1113V1344H1112ZM1111 1248V1344H1113V1248H1111ZM1112 1343H1016V1345H1112V1343Z" fill="white" fill-opacity="0.1" mask="url(#path-439-inside-219_1_36)"/>
<mask id="path-441-inside-220_1_36" fill="white">
<path d="M1112 1248H1208V1344H1112V1248Z"/>
</mask>
<path d="M1208 1344V1345H1209V1344H1208ZM1207 1248V1344H1209V1248H1207ZM1208 1343H1112V1345H1208V1343Z" fill="white" fill-opacity="0.1" mask="url(#path-441-inside-220_1_36)"/>
<mask id="path-443-inside-221_1_36" fill="white">
<path d="M1208 1248H1304V1344H1208V1248Z"/>
</mask>
<path d="M1304 1344V1345H1305V1344H1304ZM1303 1248V1344H1305V1248H1303ZM1304 1343H1208V1345H1304V1343Z" fill="white" fill-opacity="0.1" mask="url(#path-443-inside-221_1_36)"/>
<mask id="path-445-inside-222_1_36" fill="white">
<path d="M1304 1248H1400V1344H1304V1248Z"/>
</mask>
<path d="M1400 1344V1345H1401V1344H1400ZM1399 1248V1344H1401V1248H1399ZM1400 1343H1304V1345H1400V1343Z" fill="white" fill-opacity="0.1" mask="url(#path-445-inside-222_1_36)"/>
<mask id="path-447-inside-223_1_36" fill="white">
<path d="M1400 1248H1496V1344H1400V1248Z"/>
</mask>
<path d="M1496 1344V1345H1497V1344H1496ZM1495 1248V1344H1497V1248H1495ZM1496 1343H1400V1345H1496V1343Z" fill="white" fill-opacity="0.1" mask="url(#path-447-inside-223_1_36)"/>
<mask id="path-449-inside-224_1_36" fill="white">
<path d="M1496 1248H1592V1344H1496V1248Z"/>
</mask>
<path d="M1592 1344V1345H1593V1344H1592ZM1591 1248V1344H1593V1248H1591ZM1592 1343H1496V1345H1592V1343Z" fill="white" fill-opacity="0.1" mask="url(#path-449-inside-224_1_36)"/>
<mask id="path-451-inside-225_1_36" fill="white">
<path d="M56 1344H152V1440H56V1344Z"/>
</mask>
<path d="M152 1440V1441H153V1440H152ZM151 1344V1440H153V1344H151ZM152 1439H56V1441H152V1439Z" fill="white" fill-opacity="0.1" mask="url(#path-451-inside-225_1_36)"/>
<mask id="path-453-inside-226_1_36" fill="white">
<path d="M152 1344H248V1440H152V1344Z"/>
</mask>
<path d="M152 1344H248V1440H152V1344Z" fill="white" fill-opacity="0.1"/>
<path d="M248 1440V1441H249V1440H248ZM247 1344V1440H249V1344H247ZM248 1439H152V1441H248V1439Z" fill="white" fill-opacity="0.1" mask="url(#path-453-inside-226_1_36)"/>
<mask id="path-455-inside-227_1_36" fill="white">
<path d="M248 1344H344V1440H248V1344Z"/>
</mask>
<path d="M344 1440V1441H345V1440H344ZM343 1344V1440H345V1344H343ZM344 1439H248V1441H344V1439Z" fill="white" fill-opacity="0.1" mask="url(#path-455-inside-227_1_36)"/>
<mask id="path-457-inside-228_1_36" fill="white">
<path d="M344 1344H440V1440H344V1344Z"/>
</mask>
<path d="M440 1440V1441H441V1440H440ZM439 1344V1440H441V1344H439ZM440 1439H344V1441H440V1439Z" fill="white" fill-opacity="0.1" mask="url(#path-457-inside-228_1_36)"/>
<mask id="path-459-inside-229_1_36" fill="white">
<path d="M440 1344H536V1440H440V1344Z"/>
</mask>
<path d="M536 1440V1441H537V1440H536ZM535 1344V1440H537V1344H535ZM536 1439H440V1441H536V1439Z" fill="white" fill-opacity="0.1" mask="url(#path-459-inside-229_1_36)"/>
<mask id="path-461-inside-230_1_36" fill="white">
<path d="M536 1344H632V1440H536V1344Z"/>
</mask>
<path d="M632 1440V1441H633V1440H632ZM631 1344V1440H633V1344H631ZM632 1439H536V1441H632V1439Z" fill="white" fill-opacity="0.1" mask="url(#path-461-inside-230_1_36)"/>
<mask id="path-463-inside-231_1_36" fill="white">
<path d="M632 1344H728V1440H632V1344Z"/>
</mask>
<path d="M728 1440V1441H729V1440H728ZM727 1344V1440H729V1344H727ZM728 1439H632V1441H728V1439Z" fill="white" fill-opacity="0.1" mask="url(#path-463-inside-231_1_36)"/>
<mask id="path-465-inside-232_1_36" fill="white">
<path d="M728 1344H824V1440H728V1344Z"/>
</mask>
<path d="M824 1440V1441H825V1440H824ZM823 1344V1440H825V1344H823ZM824 1439H728V1441H824V1439Z" fill="white" fill-opacity="0.1" mask="url(#path-465-inside-232_1_36)"/>
<mask id="path-467-inside-233_1_36" fill="white">
<path d="M824 1344H920V1440H824V1344Z"/>
</mask>
<path d="M920 1440V1441H921V1440H920ZM919 1344V1440H921V1344H919ZM920 1439H824V1441H920V1439Z" fill="white" fill-opacity="0.1" mask="url(#path-467-inside-233_1_36)"/>
<mask id="path-469-inside-234_1_36" fill="white">
<path d="M920 1344H1016V1440H920V1344Z"/>
</mask>
<path d="M1016 1440V1441H1017V1440H1016ZM1015 1344V1440H1017V1344H1015ZM1016 1439H920V1441H1016V1439Z" fill="white" fill-opacity="0.1" mask="url(#path-469-inside-234_1_36)"/>
<mask id="path-471-inside-235_1_36" fill="white">
<path d="M1016 1344H1112V1440H1016V1344Z"/>
</mask>
<path d="M1112 1440V1441H1113V1440H1112ZM1111 1344V1440H1113V1344H1111ZM1112 1439H1016V1441H1112V1439Z" fill="white" fill-opacity="0.1" mask="url(#path-471-inside-235_1_36)"/>
<mask id="path-473-inside-236_1_36" fill="white">
<path d="M1112 1344H1208V1440H1112V1344Z"/>
</mask>
<path d="M1208 1440V1441H1209V1440H1208ZM1207 1344V1440H1209V1344H1207ZM1208 1439H1112V1441H1208V1439Z" fill="white" fill-opacity="0.1" mask="url(#path-473-inside-236_1_36)"/>
<mask id="path-475-inside-237_1_36" fill="white">
<path d="M1208 1344H1304V1440H1208V1344Z"/>
</mask>
<path d="M1304 1440V1441H1305V1440H1304ZM1303 1344V1440H1305V1344H1303ZM1304 1439H1208V1441H1304V1439Z" fill="white" fill-opacity="0.1" mask="url(#path-475-inside-237_1_36)"/>
<mask id="path-477-inside-238_1_36" fill="white">
<path d="M1304 1344H1400V1440H1304V1344Z"/>
</mask>
<path d="M1400 1440V1441H1401V1440H1400ZM1399 1344V1440H1401V1344H1399ZM1400 1439H1304V1441H1400V1439Z" fill="white" fill-opacity="0.1" mask="url(#path-477-inside-238_1_36)"/>
<mask id="path-479-inside-239_1_36" fill="white">
<path d="M1400 1344H1496V1440H1400V1344Z"/>
</mask>
<path d="M1400 1344H1496V1440H1400V1344Z" fill="white" fill-opacity="0.1"/>
<path d="M1496 1440V1441H1497V1440H1496ZM1495 1344V1440H1497V1344H1495ZM1496 1439H1400V1441H1496V1439Z" fill="white" fill-opacity="0.1" mask="url(#path-479-inside-239_1_36)"/>
<mask id="path-481-inside-240_1_36" fill="white">
<path d="M1496 1344H1592V1440H1496V1344Z"/>
</mask>
<path d="M1592 1440V1441H1593V1440H1592ZM1591 1344V1440H1593V1344H1591ZM1592 1439H1496V1441H1592V1439Z" fill="white" fill-opacity="0.1" mask="url(#path-481-inside-240_1_36)"/>
</g>
<rect x="-135.5" y="0.5" width="1919" height="1439" stroke="white" stroke-opacity="0.1"/>
</g>
<defs>
<radialGradient id="paint0_radial_1_36" cx="0" cy="0" r="1" gradientUnits="userSpaceOnUse" gradientTransform="translate(720 -0.000115991) rotate(90) scale(973 751.588)">
<stop/>
<stop offset="0.953125" stop-opacity="0"/>
</radialGradient>
<clipPath id="clip0_1_36">
<rect x="-136" width="1920" height="1440" fill="white"/>
</clipPath>
</defs>
</svg>
