<svg width="1032" height="874" viewBox="0 0 1032 874" fill="none" xmlns="http://www.w3.org/2000/svg">
<path d="M0.271484 524.914C2.63829 660.343 57.1778 783.033 144.671 873.753L292.993 725.433C243.407 672.721 212.299 602.442 210.013 524.914H0.271484Z" fill="#190041"/>
<path d="M0.272461 506.285H210.022C212.371 428.797 243.515 358.559 293.117 305.887L144.795 157.567C57.2859 248.245 2.70596 370.894 0.272461 506.285Z" fill="#7850FF"/>
<path d="M306.294 292.723C358.978 243.164 429.21 212.066 506.684 209.748V0C371.305 2.40116 248.666 56.9326 157.972 144.399L306.294 292.723Z" fill="#190041"/>
<path d="M525.312 209.748C602.785 212.064 673.019 243.164 725.703 292.727L874.026 144.399C783.331 56.9326 660.692 2.39914 525.314 0V209.748H525.312Z" fill="#7850FF"/>
<path d="M739.006 725.433L887.328 873.755C974.823 783.035 1029.36 660.341 1031.73 524.914H821.985C819.701 602.44 788.589 672.721 739.006 725.433Z" fill="#7850FF"/>
<path d="M738.879 305.887C788.481 358.561 819.621 428.797 821.974 506.285L1031.72 506.283C1029.29 370.892 974.708 248.247 887.195 157.567L738.879 305.887Z" fill="#190041"/>
<path d="M210.014 524.914C212.3 602.442 243.406 672.721 292.993 725.433L323.57 694.855C281.786 649.991 255.51 590.507 253.259 524.914H210.014Z" fill="#7850FF"/>
<path d="M210.024 506.285H253.268C255.582 440.726 281.894 381.283 323.694 336.463L293.119 305.889C243.517 358.559 212.373 428.797 210.024 506.285Z" fill="#190041"/>
<path d="M336.87 323.294C381.706 281.54 441.139 255.277 506.686 252.991V209.748C429.212 212.064 358.98 243.164 306.296 292.723L336.87 323.294Z" fill="#7850FF"/>
<path d="M525.311 252.991C590.857 255.273 650.292 281.54 695.128 323.302L725.704 292.728C673.022 243.166 602.788 212.066 525.313 209.748L525.311 252.991Z" fill="#190041"/>
<path d="M708.428 694.855L739.006 725.433C788.59 672.723 819.702 602.44 821.988 524.914H778.741C776.491 590.507 750.212 649.989 708.428 694.855Z" fill="#190041"/>
<path d="M708.306 336.462C750.11 381.283 776.411 440.728 778.732 506.283L821.977 506.285C819.624 428.795 788.484 358.559 738.882 305.887L708.306 336.462Z" fill="#7850FF"/>
<path d="M729.975 424.263L786.543 431.181L764.25 378.73L729.975 424.263Z" fill="#7850FF"/>
<path d="M602.267 298.899L647.163 263.789L594.313 242.47L602.267 298.899Z" fill="#190041"/>
<path d="M423.329 300.554L430.248 243.981L377.796 266.277L423.329 300.554Z" fill="#7850FF"/>
<path d="M241.539 436.214L297.966 428.255L262.86 383.36L241.539 436.214Z" fill="#190041"/>
<path d="M265.345 652.729L299.617 607.196L243.052 600.279L265.345 652.729Z" fill="#7850FF"/>
<path d="M766.736 648.094L788.059 595.243L731.628 603.206L766.736 648.094Z" fill="#190041"/>
<path d="M355.421 481.177C355.421 481.177 355.354 480.709 355.354 479.907V479.171H391.326L391.393 480.509C391.526 483.517 391.727 487.395 391.861 490.404C391.393 490.404 391.058 490.337 391.058 490.337L390.39 489.067C388.05 484.587 381.765 481.846 374.61 481.846H370.465V499.163C376.951 498.896 382.166 497.425 384.105 495.218L384.707 494.55C384.707 494.55 385.509 494.483 386.244 494.483V507.32C385.509 507.32 384.707 507.253 384.707 507.253L384.105 506.451C382.233 503.91 376.951 502.306 370.465 501.971V519.288H374.61C381.765 519.288 388.317 516.413 391.526 512.067L392.463 510.797C392.463 510.797 392.73 510.73 393.198 510.73C392.596 513.739 391.794 517.617 391.192 520.626L390.925 521.963H355.354V521.227C355.354 520.425 355.421 519.957 355.421 519.957L356.023 519.89C358.43 519.623 359.968 515.544 359.968 509.593V491.541C359.968 485.59 358.43 481.512 356.023 481.244L355.421 481.177ZM396.006 508.256C396.006 497.826 402.893 491.14 413.725 491.14C420.812 491.14 425.626 493.747 425.96 497.893C425.96 500.5 424.289 502.172 421.815 502.172C419.14 502.172 417.335 500.3 417.068 497.358C416.867 495.218 415.196 493.881 412.722 493.881C408.643 493.881 406.035 498.026 406.035 504.512C406.035 511.733 409.913 517.884 418.539 517.149C420.143 517.015 423.486 515.544 424.957 512.201L426.027 513.137C422.885 519.69 415.53 522.297 411.05 522.297C401.89 522.297 396.006 516.815 396.006 508.256ZM444.748 522.297C434.385 522.297 427.832 516.213 427.832 506.718C427.832 497.224 434.385 491.14 444.748 491.14C454.978 491.14 461.531 497.224 461.531 506.718C461.531 516.213 454.978 522.297 444.748 522.297ZM438.129 506.718C438.129 514.876 440.737 520.091 444.748 520.091C448.76 520.091 451.368 514.876 451.368 506.718C451.368 498.561 448.76 493.346 444.748 493.346C440.737 493.346 438.129 498.561 438.129 506.718ZM462.601 521.963V521.227C462.601 520.425 462.667 519.957 462.667 519.957L463.269 519.89C465.81 519.623 467.214 515.21 467.214 509.125C467.214 500.835 466.545 499.23 463.269 497.425L462.667 497.09C462.667 497.09 462.601 496.823 462.601 496.422L474.703 491.474H476.575V496.087C478.313 493.68 482.525 491.14 487.941 491.14C491.819 491.14 493.892 493.279 494.694 496.957C497.034 494.483 502.45 491.14 507.398 491.14C512.68 491.14 514.619 495.151 514.619 501.436V509.593C514.619 515.544 516.09 519.623 518.497 519.89L519.166 519.957V521.963H500.511V519.957L501.314 519.89C503.721 519.69 505.192 515.544 505.192 509.593V502.439C505.192 499.163 503.319 495.619 500.511 495.619C498.906 495.619 497.034 496.689 495.095 499.631C495.162 500.233 495.162 500.835 495.162 501.436V509.593C495.162 515.544 496.633 519.69 499.04 519.89L499.909 519.957V521.963H481.79V519.957L482.124 519.89C484.531 519.422 485.735 515.544 485.735 509.593V502.439C485.735 499.096 484.063 495.285 481.322 495.285C479.985 495.285 478.38 496.288 476.575 498.829V509.593C476.575 515.544 478.112 519.623 480.52 519.89L481.188 519.957V521.963H462.601ZM521.171 519.623L520.837 511.599C521.038 511.599 521.238 511.666 521.639 511.666C522.977 515.344 526.52 520.425 531.401 520.425C534.611 520.425 536.683 518.62 536.683 515.812C536.683 513.939 534.477 511.867 531.067 510.53C525.049 508.189 521.105 504.044 521.105 500.567C521.105 494.817 526.454 490.471 535.146 490.471C537.887 490.471 542.434 491.474 544.506 493.814L544.239 501.169H543.236C541.497 497.759 539.358 492.878 535.413 492.677C531.468 492.477 528.994 494.884 528.927 497.224C528.861 499.497 532.538 501.035 538.221 503.308C542.434 504.98 545.041 508.657 545.041 512.268C545.041 518.62 539.492 522.632 530.733 522.632C527.055 522.632 523.378 521.428 521.171 519.623ZM543.904 493.48V491.474H562.759V492.209C562.759 493.012 562.693 493.48 562.693 493.48L562.091 493.547C560.152 493.747 560.62 497.291 563.161 502.506L568.175 511.733L574.327 498.16C572.187 495.151 570.716 493.68 568.911 493.48V491.474H587.833V492.209C587.833 493.012 587.766 493.48 587.766 493.48L587.097 493.547C584.824 493.747 585.359 497.893 588.635 503.843C590.039 506.384 591.51 509.059 592.847 511.666L596.458 503.843C599.199 497.893 599.132 493.747 596.525 493.547L595.655 493.48V492.209C595.655 491.741 595.589 491.474 595.589 491.474H608.76V493.48L608.025 493.547C605.484 493.747 601.94 497.96 598.932 503.843L589.437 522.632H587.9L577.737 503.843C577.068 502.439 576.266 501.169 575.53 499.965L564.765 522.632H563.228L553.131 503.843C549.989 497.96 546.579 493.747 544.506 493.547L543.904 493.48ZM607.022 514.408C607.022 506.585 617.987 505.047 623.871 504.779V499.564C623.871 496.154 622.935 493.948 621.464 493.948C618.522 493.948 617.118 497.157 617.72 501.837C615.915 502.306 614.51 502.573 613.04 502.573C611.635 502.573 610.164 502.306 608.225 501.837C607.356 495.552 613.842 490.939 623.604 491.273C629.822 491.474 633.834 495.352 633.834 501.771V513.338C633.834 516.213 634.368 518.085 636.441 518.085C637.979 518.085 638.781 517.55 639.249 516.681L640.252 517.951C638.648 520.893 635.973 522.765 630.022 522.765C627.348 522.765 625.275 521.562 624.54 519.489C622.266 520.96 618.857 522.431 615.313 522.431C610.298 522.431 607.022 518.553 607.022 514.408ZM616.449 512.87C616.449 515.945 618.723 517.684 621.13 517.684C622.066 517.684 623.069 517.416 623.938 516.815L623.871 506.652C620.194 506.652 616.449 508.39 616.449 512.87ZM637.511 538.678V537.943C637.511 537.141 637.578 536.672 637.578 536.672L638.18 536.606C640.587 536.338 642.058 532.26 642.058 526.309V509.125C642.058 500.835 641.456 499.23 638.18 497.425L637.578 497.09C637.578 497.09 637.511 496.823 637.511 496.422L649.613 491.474H651.485V494.55C652.889 492.744 656.834 491.14 661.514 491.14C669.07 491.14 675.02 498.361 674.619 508.657C674.218 518.152 665.793 522.966 658.572 522.966C655.898 522.966 653.357 522.297 651.485 520.893V525.239C651.485 531.19 652.956 536.338 655.363 536.606L656.032 536.672C656.032 536.672 656.099 537.141 656.099 537.943V538.678H637.511ZM654.16 495.552C652.822 495.82 651.886 496.555 651.485 497.157V512.335C651.485 512.803 651.485 513.204 651.552 513.605V515.878C652.488 518.152 654.494 519.623 656.366 519.69C661.046 519.823 664.055 516.347 664.055 510.329C664.055 501.704 659.508 494.483 654.16 495.552Z" fill="#190041"/>
<path d="M72.2305 345.821V348.679H67.8477V361H64.8184V348.679H60.4141V345.821H72.2305ZM81.9199 359.582C80.7669 360.706 79.3346 361.269 77.623 361.269C75.9115 361.269 74.4756 360.706 73.3154 359.582C72.1624 358.458 71.5859 357.061 71.5859 355.393C71.5859 353.724 72.1624 352.327 73.3154 351.203C74.4756 350.079 75.9115 349.517 77.623 349.517C79.3346 349.517 80.7669 350.079 81.9199 351.203C83.0729 352.327 83.6494 353.724 83.6494 355.393C83.6494 357.061 83.0729 358.458 81.9199 359.582ZM77.623 358.497C78.5111 358.497 79.2451 358.203 79.8252 357.616C80.4053 357.022 80.6953 356.281 80.6953 355.393C80.6953 354.505 80.4053 353.767 79.8252 353.18C79.2451 352.585 78.5111 352.288 77.623 352.288C76.7422 352.288 76.0081 352.585 75.4209 353.18C74.8337 353.774 74.54 354.512 74.54 355.393C74.54 356.273 74.8337 357.011 75.4209 357.605C76.0081 358.2 76.7422 358.497 77.623 358.497ZM97.2168 349.517C98.2409 349.517 99.1683 349.774 99.999 350.29C100.837 350.799 101.492 351.504 101.965 352.406C102.438 353.301 102.674 354.297 102.674 355.393C102.674 356.488 102.438 357.487 101.965 358.39C101.492 359.285 100.837 359.99 99.999 360.506C99.1683 361.014 98.2409 361.269 97.2168 361.269C95.7415 361.269 94.5241 360.731 93.5645 359.657V361H90.707V345.155H93.5645V351.117C94.5169 350.05 95.7344 349.517 97.2168 349.517ZM96.6475 358.497C97.5355 358.497 98.2695 358.203 98.8496 357.616C99.4368 357.022 99.7305 356.281 99.7305 355.393C99.7305 354.505 99.4368 353.767 98.8496 353.18C98.2695 352.585 97.5355 352.288 96.6475 352.288C95.7666 352.288 95.0326 352.585 94.4453 353.18C93.8581 353.774 93.5645 354.512 93.5645 355.393C93.5645 356.273 93.8581 357.011 94.4453 357.605C95.0326 358.2 95.7666 358.497 96.6475 358.497ZM115.951 355.414C115.951 355.772 115.93 356.109 115.887 356.424H107.196C107.397 357.133 107.78 357.695 108.346 358.11C108.911 358.526 109.599 358.733 110.408 358.733C111.06 358.733 111.658 358.604 112.202 358.347C112.746 358.082 113.176 357.749 113.491 357.348L115.403 359.023C114.809 359.732 114.071 360.284 113.19 360.678C112.317 361.072 111.361 361.269 110.322 361.269C109.148 361.269 108.084 361.011 107.132 360.495C106.179 359.979 105.435 359.271 104.897 358.368C104.36 357.459 104.092 356.452 104.092 355.35C104.092 354.261 104.35 353.273 104.865 352.385C105.388 351.49 106.104 350.788 107.014 350.279C107.93 349.771 108.944 349.517 110.054 349.517C111.737 349.517 113.14 350.079 114.265 351.203C115.389 352.32 115.951 353.724 115.951 355.414ZM111.848 352.653C111.332 352.231 110.727 352.02 110.032 352.02C109.338 352.02 108.732 352.231 108.217 352.653C107.701 353.069 107.354 353.627 107.175 354.329H112.9C112.721 353.627 112.37 353.069 111.848 352.653ZM129.465 349.517C130.489 349.517 131.416 349.774 132.247 350.29C133.085 350.799 133.74 351.504 134.213 352.406C134.686 353.301 134.922 354.297 134.922 355.393C134.922 356.488 134.686 357.487 134.213 358.39C133.74 359.285 133.085 359.99 132.247 360.506C131.416 361.014 130.489 361.269 129.465 361.269C127.99 361.269 126.772 360.731 125.812 359.657V365.179H122.955V349.785H125.812V351.117C126.765 350.05 127.982 349.517 129.465 349.517ZM128.896 358.497C129.784 358.497 130.518 358.203 131.098 357.616C131.685 357.022 131.979 356.281 131.979 355.393C131.979 354.505 131.685 353.767 131.098 353.18C130.518 352.585 129.784 352.288 128.896 352.288C128.015 352.288 127.281 352.585 126.693 353.18C126.106 353.774 125.812 354.512 125.812 355.393C125.812 356.273 126.106 357.011 126.693 357.605C127.281 358.2 128.015 358.497 128.896 358.497ZM145.524 349.785H148.382V361H145.524V359.657C144.543 360.731 143.326 361.269 141.872 361.269C140.311 361.269 139.007 360.706 137.962 359.582C136.916 358.458 136.394 357.061 136.394 355.393C136.394 353.724 136.916 352.327 137.962 351.203C139.007 350.079 140.311 349.517 141.872 349.517C143.333 349.517 144.55 350.05 145.524 351.117V349.785ZM142.42 358.497C143.308 358.497 144.046 358.2 144.633 357.605C145.227 357.011 145.524 356.273 145.524 355.393C145.524 354.512 145.227 353.774 144.633 353.18C144.046 352.585 143.308 352.288 142.42 352.288C141.539 352.288 140.805 352.585 140.218 353.18C139.631 353.774 139.337 354.512 139.337 355.393C139.337 356.273 139.631 357.011 140.218 357.605C140.805 358.2 141.539 358.497 142.42 358.497ZM157.19 349.603H157.674V352.557H157.19C156.174 352.557 155.379 352.836 154.806 353.395C154.24 353.953 153.957 354.712 153.957 355.672V361H151.1V349.785H153.957V351.235C154.816 350.147 155.894 349.603 157.19 349.603ZM166.45 352.396H163.432V357.058C163.432 358.017 163.947 358.497 164.979 358.497C165.415 358.497 165.906 358.372 166.45 358.121V360.785C165.856 361.107 165.158 361.269 164.355 361.269C163.102 361.269 162.157 360.936 161.52 360.27C160.889 359.596 160.574 358.68 160.574 357.52V352.396H158.791V349.785H160.574V346.938H163.432V349.785H166.45V352.396ZM183.219 359.582C182.066 360.706 180.633 361.269 178.922 361.269C177.21 361.269 175.774 360.706 174.614 359.582C173.461 358.458 172.885 357.061 172.885 355.393C172.885 353.724 173.461 352.327 174.614 351.203C175.774 350.079 177.21 349.517 178.922 349.517C180.633 349.517 182.066 350.079 183.219 351.203C184.372 352.327 184.948 353.724 184.948 355.393C184.948 357.061 184.372 358.458 183.219 359.582ZM178.922 358.497C179.81 358.497 180.544 358.203 181.124 357.616C181.704 357.022 181.994 356.281 181.994 355.393C181.994 354.505 181.704 353.767 181.124 353.18C180.544 352.585 179.81 352.288 178.922 352.288C178.041 352.288 177.307 352.585 176.72 353.18C176.132 353.774 175.839 354.512 175.839 355.393C175.839 356.273 176.132 357.011 176.72 357.605C177.307 358.2 178.041 358.497 178.922 358.497ZM192.027 347.519C191.519 347.519 191.129 347.64 190.856 347.884C190.591 348.12 190.459 348.475 190.459 348.947V349.785H193.284V352.396H190.459V361H187.602V352.396H185.84V349.785H187.602V348.765C187.602 347.562 187.917 346.616 188.547 345.929C189.184 345.241 190.13 344.897 191.383 344.897C192.178 344.897 192.883 345.059 193.499 345.381V347.884C193.062 347.64 192.572 347.519 192.027 347.519ZM60.6074 391.269C58.7884 391.269 57.2129 390.696 55.8809 389.55L57.2666 387.659C58.2191 388.49 59.3112 388.905 60.543 388.905C61.1302 388.905 61.6064 388.812 61.9717 388.626C62.3441 388.44 62.5303 388.182 62.5303 387.853C62.5303 387.674 62.4766 387.516 62.3691 387.38C62.2689 387.244 62.1042 387.126 61.875 387.025C61.6458 386.925 61.4238 386.843 61.209 386.778C61.0013 386.714 60.7077 386.639 60.3281 386.553C60.0703 386.495 59.8662 386.449 59.7158 386.413C59.5654 386.377 59.3577 386.324 59.0928 386.252C58.835 386.173 58.6237 386.102 58.459 386.037C58.3014 385.973 58.1117 385.887 57.8896 385.779C57.6676 385.665 57.485 385.55 57.3418 385.436C57.2057 385.321 57.0589 385.181 56.9014 385.017C56.751 384.852 56.6292 384.676 56.5361 384.49C56.4502 384.304 56.3786 384.089 56.3213 383.846C56.264 383.602 56.2354 383.341 56.2354 383.062C56.2354 382.295 56.4466 381.64 56.8691 381.096C57.2917 380.551 57.8395 380.154 58.5127 379.903C59.193 379.646 59.9593 379.517 60.8115 379.517C62.4658 379.517 63.916 380.007 65.1621 380.988L63.7764 382.9C62.8597 382.213 61.8929 381.869 60.876 381.869C60.3604 381.869 59.9378 381.951 59.6084 382.116C59.279 382.281 59.1143 382.521 59.1143 382.836C59.1143 383.015 59.1644 383.173 59.2646 383.309C59.3649 383.438 59.5296 383.552 59.7588 383.652C59.988 383.745 60.21 383.824 60.4248 383.889C60.6396 383.946 60.9368 384.014 61.3164 384.093C61.6458 384.164 61.9108 384.225 62.1113 384.275C62.3118 384.326 62.5732 384.404 62.8955 384.512C63.2178 384.619 63.4792 384.727 63.6797 384.834C63.8874 384.941 64.1094 385.088 64.3457 385.274C64.5892 385.453 64.779 385.647 64.915 385.854C65.0511 386.062 65.1657 386.316 65.2588 386.617C65.359 386.918 65.4092 387.244 65.4092 387.595C65.4092 388.361 65.1943 389.027 64.7646 389.593C64.335 390.159 63.762 390.581 63.0459 390.86C62.3298 391.132 61.5169 391.269 60.6074 391.269ZM76.9785 389.582C75.8255 390.706 74.3932 391.269 72.6816 391.269C70.9701 391.269 69.5342 390.706 68.374 389.582C67.221 388.458 66.6445 387.061 66.6445 385.393C66.6445 383.724 67.221 382.327 68.374 381.203C69.5342 380.079 70.9701 379.517 72.6816 379.517C74.3932 379.517 75.8255 380.079 76.9785 381.203C78.1315 382.327 78.708 383.724 78.708 385.393C78.708 387.061 78.1315 388.458 76.9785 389.582ZM72.6816 388.497C73.5697 388.497 74.3037 388.203 74.8838 387.616C75.4639 387.022 75.7539 386.281 75.7539 385.393C75.7539 384.505 75.4639 383.767 74.8838 383.18C74.3037 382.585 73.5697 382.288 72.6816 382.288C71.8008 382.288 71.0667 382.585 70.4795 383.18C69.8923 383.774 69.5986 384.512 69.5986 385.393C69.5986 386.273 69.8923 387.011 70.4795 387.605C71.0667 388.2 71.8008 388.497 72.6816 388.497ZM94.2842 379.517C95.5518 379.517 96.5651 379.896 97.3242 380.655C98.0905 381.414 98.4736 382.428 98.4736 383.695V391H95.6055V384.555C95.6055 383.867 95.4049 383.319 95.0039 382.911C94.61 382.496 94.0801 382.288 93.4141 382.288C92.7122 382.288 92.1429 382.499 91.7061 382.922C91.2692 383.344 91.0508 383.903 91.0508 384.598V391H88.1934V384.555C88.1934 383.874 87.9893 383.326 87.5811 382.911C87.18 382.496 86.6429 382.288 85.9697 382.288C85.2751 382.288 84.7093 382.503 84.2725 382.933C83.8356 383.355 83.6172 383.91 83.6172 384.598V391H80.7598V379.785H83.6172V380.945C84.4622 379.993 85.5687 379.517 86.9365 379.517C87.7171 379.517 88.4082 379.678 89.0098 380C89.6185 380.315 90.1019 380.763 90.46 381.343C91.3838 380.125 92.6585 379.517 94.2842 379.517ZM112.191 385.414C112.191 385.772 112.17 386.109 112.127 386.424H103.437C103.637 387.133 104.02 387.695 104.586 388.11C105.152 388.526 105.839 388.733 106.648 388.733C107.3 388.733 107.898 388.604 108.442 388.347C108.987 388.082 109.416 387.749 109.731 387.348L111.644 389.023C111.049 389.732 110.312 390.284 109.431 390.678C108.557 391.072 107.601 391.269 106.562 391.269C105.388 391.269 104.325 391.011 103.372 390.495C102.42 389.979 101.675 389.271 101.138 388.368C100.601 387.459 100.332 386.452 100.332 385.35C100.332 384.261 100.59 383.273 101.105 382.385C101.628 381.49 102.344 380.788 103.254 380.279C104.171 379.771 105.184 379.517 106.294 379.517C107.977 379.517 109.381 380.079 110.505 381.203C111.629 382.32 112.191 383.724 112.191 385.414ZM108.088 382.653C107.572 382.231 106.967 382.02 106.272 382.02C105.578 382.02 104.973 382.231 104.457 382.653C103.941 383.069 103.594 383.627 103.415 384.329H109.141C108.962 383.627 108.611 383.069 108.088 382.653ZM120.603 382.396H117.584V387.058C117.584 388.017 118.1 388.497 119.131 388.497C119.568 388.497 120.058 388.372 120.603 388.121V390.785C120.008 391.107 119.31 391.269 118.508 391.269C117.255 391.269 116.309 390.936 115.672 390.27C115.042 389.596 114.727 388.68 114.727 387.52V382.396H112.943V379.785H114.727V376.938H117.584V379.785H120.603V382.396ZM129.143 379.517C130.467 379.517 131.527 379.914 132.322 380.709C133.124 381.497 133.525 382.549 133.525 383.867V391H130.657V384.791C130.657 384.032 130.435 383.427 129.991 382.976C129.547 382.517 128.956 382.288 128.219 382.288C127.431 382.288 126.794 382.524 126.307 382.997C125.82 383.463 125.576 384.078 125.576 384.845V391H122.719V375.155H125.576V381.096C126.479 380.043 127.667 379.517 129.143 379.517ZM138.789 377.615C138.445 377.959 138.019 378.131 137.511 378.131C137.002 378.131 136.573 377.959 136.222 377.615C135.878 377.271 135.706 376.849 135.706 376.348C135.706 375.846 135.878 375.424 136.222 375.08C136.573 374.736 137.002 374.564 137.511 374.564C138.019 374.564 138.445 374.736 138.789 375.08C139.14 375.424 139.315 375.846 139.315 376.348C139.315 376.849 139.14 377.271 138.789 377.615ZM136.082 391V379.785H138.939V391H136.082ZM148.092 379.517C149.417 379.517 150.477 379.914 151.271 380.709C152.074 381.497 152.475 382.549 152.475 383.867V391H149.606V384.791C149.606 384.032 149.381 383.427 148.93 382.976C148.486 382.517 147.891 382.288 147.146 382.288C146.366 382.288 145.732 382.524 145.245 382.997C144.765 383.463 144.525 384.078 144.525 384.845V391H141.668V379.785H144.525V381.031C145.428 380.021 146.617 379.517 148.092 379.517ZM162.164 391C163.281 391 164.209 391.29 164.946 391.87C165.691 392.457 166.157 393.267 166.343 394.298L163.389 395.093C163.346 394.685 163.163 394.359 162.841 394.115C162.519 393.872 162.107 393.75 161.605 393.75H157.932C156.886 393.75 156.045 393.474 155.407 392.923C154.777 392.371 154.462 391.648 154.462 390.753C154.462 390.18 154.598 389.639 154.87 389.131C155.149 388.622 155.518 388.225 155.977 387.938C154.981 387.007 154.483 385.844 154.483 384.447C154.483 383.036 154.981 381.862 155.977 380.924C156.979 379.986 158.232 379.517 159.736 379.517C160.603 379.517 161.419 379.692 162.186 380.043C162.35 379.434 162.687 378.958 163.195 378.614C163.711 378.263 164.334 378.088 165.064 378.088H165.988V380.73H165.193C164.907 380.73 164.656 380.802 164.441 380.945C164.234 381.089 164.105 381.285 164.055 381.536C164.699 382.374 165.021 383.344 165.021 384.447C165.021 385.851 164.517 387.022 163.507 387.96C162.497 388.898 161.24 389.367 159.736 389.367C159.12 389.367 158.505 389.274 157.889 389.088C157.509 389.317 157.319 389.639 157.319 390.055C157.319 390.327 157.43 390.552 157.652 390.731C157.874 390.91 158.161 391 158.512 391H162.164ZM159.736 382.224C159.063 382.224 158.505 382.435 158.061 382.857C157.624 383.28 157.405 383.81 157.405 384.447C157.405 385.085 157.624 385.615 158.061 386.037C158.505 386.46 159.063 386.671 159.736 386.671C160.402 386.671 160.957 386.46 161.401 386.037C161.845 385.615 162.067 385.085 162.067 384.447C162.067 383.81 161.845 383.28 161.401 382.857C160.957 382.435 160.402 382.224 159.736 382.224ZM178.965 379.517C179.989 379.517 180.916 379.774 181.747 380.29C182.585 380.799 183.24 381.504 183.713 382.406C184.186 383.301 184.422 384.297 184.422 385.393C184.422 386.488 184.186 387.487 183.713 388.39C183.24 389.285 182.585 389.99 181.747 390.506C180.916 391.014 179.989 391.269 178.965 391.269C177.49 391.269 176.272 390.731 175.312 389.657V391H172.455V375.155H175.312V381.117C176.265 380.05 177.482 379.517 178.965 379.517ZM178.396 388.497C179.284 388.497 180.018 388.203 180.598 387.616C181.185 387.022 181.479 386.281 181.479 385.393C181.479 384.505 181.185 383.767 180.598 383.18C180.018 382.585 179.284 382.288 178.396 382.288C177.515 382.288 176.781 382.585 176.193 383.18C175.606 383.774 175.312 384.512 175.312 385.393C175.312 386.273 175.606 387.011 176.193 387.605C176.781 388.2 177.515 388.497 178.396 388.497ZM189.234 377.615C188.891 377.959 188.465 378.131 187.956 378.131C187.448 378.131 187.018 377.959 186.667 377.615C186.323 377.271 186.151 376.849 186.151 376.348C186.151 375.846 186.323 375.424 186.667 375.08C187.018 374.736 187.448 374.564 187.956 374.564C188.465 374.564 188.891 374.736 189.234 375.08C189.585 375.424 189.761 375.846 189.761 376.348C189.761 376.849 189.585 377.271 189.234 377.615ZM186.527 391V379.785H189.385V391H186.527ZM199.246 391C200.363 391 201.291 391.29 202.028 391.87C202.773 392.457 203.239 393.267 203.425 394.298L200.471 395.093C200.428 394.685 200.245 394.359 199.923 394.115C199.601 393.872 199.189 393.75 198.688 393.75H195.014C193.968 393.75 193.127 393.474 192.489 392.923C191.859 392.371 191.544 391.648 191.544 390.753C191.544 390.18 191.68 389.639 191.952 389.131C192.231 388.622 192.6 388.225 193.059 387.938C192.063 387.007 191.565 385.844 191.565 384.447C191.565 383.036 192.063 381.862 193.059 380.924C194.061 379.986 195.314 379.517 196.818 379.517C197.685 379.517 198.501 379.692 199.268 380.043C199.432 379.434 199.769 378.958 200.277 378.614C200.793 378.263 201.416 378.088 202.146 378.088H203.07V380.73H202.275C201.989 380.73 201.738 380.802 201.523 380.945C201.316 381.089 201.187 381.285 201.137 381.536C201.781 382.374 202.104 383.344 202.104 384.447C202.104 385.851 201.599 387.022 200.589 387.96C199.579 388.898 198.322 389.367 196.818 389.367C196.202 389.367 195.587 389.274 194.971 389.088C194.591 389.317 194.401 389.639 194.401 390.055C194.401 390.327 194.512 390.552 194.734 390.731C194.956 390.91 195.243 391 195.594 391H199.246ZM196.818 382.224C196.145 382.224 195.587 382.435 195.143 382.857C194.706 383.28 194.487 383.81 194.487 384.447C194.487 385.085 194.706 385.615 195.143 386.037C195.587 386.46 196.145 386.671 196.818 386.671C197.484 386.671 198.039 386.46 198.483 386.037C198.927 385.615 199.149 385.085 199.149 384.447C199.149 383.81 198.927 383.28 198.483 382.857C198.039 382.435 197.484 382.224 196.818 382.224Z" fill="white"/>
<path d="M307.343 137.269C306.19 137.269 305.04 137.054 303.895 136.624C302.756 136.187 301.8 135.607 301.026 134.884L302.595 132.574C303.225 133.176 303.963 133.659 304.808 134.024C305.66 134.382 306.505 134.562 307.343 134.562C308.116 134.562 308.775 134.397 309.319 134.067C309.864 133.738 310.136 133.315 310.136 132.8C310.136 132.621 310.096 132.456 310.018 132.306C309.946 132.148 309.864 132.016 309.771 131.908C309.677 131.794 309.527 131.683 309.319 131.575C309.119 131.461 308.947 131.375 308.804 131.317C308.668 131.253 308.456 131.178 308.17 131.092C307.891 131.006 307.679 130.949 307.536 130.92C307.4 130.884 307.174 130.827 306.859 130.748C306.258 130.605 305.703 130.44 305.194 130.254C304.686 130.068 304.202 129.839 303.744 129.566C303.293 129.287 302.91 128.979 302.595 128.643C302.28 128.306 302.029 127.916 301.843 127.472C301.664 127.021 301.574 126.537 301.574 126.021C301.574 124.675 302.108 123.594 303.175 122.777C304.242 121.961 305.631 121.553 307.343 121.553C308.438 121.553 309.441 121.725 310.351 122.068C311.267 122.412 312.016 122.87 312.596 123.443L311.188 125.731C310.744 125.302 310.168 124.951 309.459 124.679C308.757 124.399 308.037 124.26 307.3 124.26C306.541 124.26 305.918 124.414 305.431 124.722C304.944 125.03 304.7 125.42 304.7 125.893C304.7 126.172 304.786 126.423 304.958 126.645C305.13 126.867 305.373 127.056 305.688 127.214C306.004 127.364 306.315 127.49 306.623 127.59C306.931 127.683 307.289 127.776 307.697 127.869C307.962 127.926 308.213 127.987 308.449 128.052C308.693 128.109 309.011 128.206 309.405 128.342C309.799 128.478 310.157 128.628 310.479 128.793C310.809 128.951 311.153 129.158 311.511 129.416C311.869 129.674 312.17 129.953 312.413 130.254C312.657 130.548 312.857 130.906 313.015 131.328C313.179 131.743 313.262 132.191 313.262 132.671C313.262 133.559 313 134.357 312.478 135.066C311.955 135.768 311.242 136.312 310.34 136.699C309.445 137.079 308.446 137.269 307.343 137.269ZM323.703 125.785H326.561V137H323.703V135.657C322.722 136.731 321.505 137.269 320.051 137.269C318.49 137.269 317.186 136.706 316.141 135.582C315.095 134.458 314.572 133.061 314.572 131.393C314.572 129.724 315.095 128.327 316.141 127.203C317.186 126.079 318.49 125.517 320.051 125.517C321.512 125.517 322.729 126.05 323.703 127.117V125.785ZM320.599 134.497C321.487 134.497 322.224 134.2 322.812 133.605C323.406 133.011 323.703 132.273 323.703 131.393C323.703 130.512 323.406 129.774 322.812 129.18C322.224 128.585 321.487 128.288 320.599 128.288C319.718 128.288 318.984 128.585 318.396 129.18C317.809 129.774 317.516 130.512 317.516 131.393C317.516 132.273 317.809 133.011 318.396 133.605C318.984 134.2 319.718 134.497 320.599 134.497ZM337.109 125.785H340.3L335.638 137H332.684L328.021 125.785H331.276L334.209 133.412L337.109 125.785ZM352.31 131.414C352.31 131.772 352.288 132.109 352.245 132.424H343.555C343.755 133.133 344.138 133.695 344.704 134.11C345.27 134.526 345.957 134.733 346.767 134.733C347.418 134.733 348.016 134.604 348.561 134.347C349.105 134.082 349.535 133.749 349.85 133.348L351.762 135.023C351.167 135.732 350.43 136.284 349.549 136.678C348.675 137.072 347.719 137.269 346.681 137.269C345.506 137.269 344.443 137.011 343.49 136.495C342.538 135.979 341.793 135.271 341.256 134.368C340.719 133.459 340.45 132.452 340.45 131.35C340.45 130.261 340.708 129.273 341.224 128.385C341.746 127.49 342.463 126.788 343.372 126.279C344.289 125.771 345.302 125.517 346.412 125.517C348.095 125.517 349.499 126.079 350.623 127.203C351.747 128.32 352.31 129.724 352.31 131.414ZM348.206 128.653C347.69 128.231 347.085 128.02 346.391 128.02C345.696 128.02 345.091 128.231 344.575 128.653C344.06 129.069 343.712 129.627 343.533 130.329H349.259C349.08 129.627 348.729 129.069 348.206 128.653ZM366.221 128.396H363.202V133.058C363.202 134.017 363.718 134.497 364.749 134.497C365.186 134.497 365.676 134.372 366.221 134.121V136.785C365.626 137.107 364.928 137.269 364.126 137.269C362.873 137.269 361.927 136.936 361.29 136.27C360.66 135.596 360.345 134.68 360.345 133.52V128.396H358.562V125.785H360.345V122.938H363.202V125.785H366.221V128.396ZM371.044 123.615C370.7 123.959 370.274 124.131 369.766 124.131C369.257 124.131 368.827 123.959 368.477 123.615C368.133 123.271 367.961 122.849 367.961 122.348C367.961 121.846 368.133 121.424 368.477 121.08C368.827 120.736 369.257 120.564 369.766 120.564C370.274 120.564 370.7 120.736 371.044 121.08C371.395 121.424 371.57 121.846 371.57 122.348C371.57 122.849 371.395 123.271 371.044 123.615ZM368.337 137V125.785H371.194V137H368.337ZM387.447 125.517C388.715 125.517 389.728 125.896 390.487 126.655C391.254 127.414 391.637 128.428 391.637 129.695V137H388.769V130.555C388.769 129.867 388.568 129.319 388.167 128.911C387.773 128.496 387.243 128.288 386.577 128.288C385.875 128.288 385.306 128.499 384.869 128.922C384.432 129.344 384.214 129.903 384.214 130.598V137H381.356V130.555C381.356 129.874 381.152 129.326 380.744 128.911C380.343 128.496 379.806 128.288 379.133 128.288C378.438 128.288 377.872 128.503 377.436 128.933C376.999 129.355 376.78 129.91 376.78 130.598V137H373.923V125.785H376.78V126.945C377.625 125.993 378.732 125.517 380.1 125.517C380.88 125.517 381.571 125.678 382.173 126C382.782 126.315 383.265 126.763 383.623 127.343C384.547 126.125 385.822 125.517 387.447 125.517ZM405.354 131.414C405.354 131.772 405.333 132.109 405.29 132.424H396.6C396.8 133.133 397.183 133.695 397.749 134.11C398.315 134.526 399.002 134.733 399.812 134.733C400.463 134.733 401.061 134.604 401.605 134.347C402.15 134.082 402.579 133.749 402.895 133.348L404.807 135.023C404.212 135.732 403.475 136.284 402.594 136.678C401.72 137.072 400.764 137.269 399.726 137.269C398.551 137.269 397.488 137.011 396.535 136.495C395.583 135.979 394.838 135.271 394.301 134.368C393.764 133.459 393.495 132.452 393.495 131.35C393.495 130.261 393.753 129.273 394.269 128.385C394.791 127.49 395.507 126.788 396.417 126.279C397.334 125.771 398.347 125.517 399.457 125.517C401.14 125.517 402.544 126.079 403.668 127.203C404.792 128.32 405.354 129.724 405.354 131.414ZM401.251 128.653C400.735 128.231 400.13 128.02 399.436 128.02C398.741 128.02 398.136 128.231 397.62 128.653C397.104 129.069 396.757 129.627 396.578 130.329H402.304C402.125 129.627 401.774 129.069 401.251 128.653Z" fill="white"/>
<path d="M68.917 624.821V627.679H64.5342V640H61.5049V627.679H57.1006V624.821H68.917ZM78.6064 638.582C77.4535 639.706 76.0212 640.269 74.3096 640.269C72.598 640.269 71.1621 639.706 70.002 638.582C68.849 637.458 68.2725 636.061 68.2725 634.393C68.2725 632.724 68.849 631.327 70.002 630.203C71.1621 629.079 72.598 628.517 74.3096 628.517C76.0212 628.517 77.4535 629.079 78.6064 630.203C79.7594 631.327 80.3359 632.724 80.3359 634.393C80.3359 636.061 79.7594 637.458 78.6064 638.582ZM74.3096 637.497C75.1976 637.497 75.9316 637.203 76.5117 636.616C77.0918 636.022 77.3818 635.281 77.3818 634.393C77.3818 633.505 77.0918 632.767 76.5117 632.18C75.9316 631.585 75.1976 631.288 74.3096 631.288C73.4287 631.288 72.6947 631.585 72.1074 632.18C71.5202 632.774 71.2266 633.512 71.2266 634.393C71.2266 635.273 71.5202 636.011 72.1074 636.605C72.6947 637.2 73.4287 637.497 74.3096 637.497ZM100.918 628.517C102.186 628.517 103.199 628.896 103.958 629.655C104.724 630.414 105.107 631.428 105.107 632.695V640H102.239V633.555C102.239 632.867 102.039 632.319 101.638 631.911C101.244 631.496 100.714 631.288 100.048 631.288C99.346 631.288 98.7767 631.499 98.3398 631.922C97.903 632.344 97.6846 632.903 97.6846 633.598V640H94.8271V633.555C94.8271 632.874 94.623 632.326 94.2148 631.911C93.8138 631.496 93.2767 631.288 92.6035 631.288C91.9089 631.288 91.3431 631.503 90.9062 631.933C90.4694 632.355 90.251 632.91 90.251 633.598V640H87.3936V628.785H90.251V629.945C91.096 628.993 92.2025 628.517 93.5703 628.517C94.3509 628.517 95.042 628.678 95.6436 629C96.2523 629.315 96.7357 629.763 97.0938 630.343C98.0176 629.125 99.2923 628.517 100.918 628.517ZM117.3 638.582C116.147 639.706 114.715 640.269 113.003 640.269C111.291 640.269 109.855 639.706 108.695 638.582C107.542 637.458 106.966 636.061 106.966 634.393C106.966 632.724 107.542 631.327 108.695 630.203C109.855 629.079 111.291 628.517 113.003 628.517C114.715 628.517 116.147 629.079 117.3 630.203C118.453 631.327 119.029 632.724 119.029 634.393C119.029 636.061 118.453 637.458 117.3 638.582ZM113.003 637.497C113.891 637.497 114.625 637.203 115.205 636.616C115.785 636.022 116.075 635.281 116.075 634.393C116.075 633.505 115.785 632.767 115.205 632.18C114.625 631.585 113.891 631.288 113.003 631.288C112.122 631.288 111.388 631.585 110.801 632.18C110.214 632.774 109.92 633.512 109.92 634.393C109.92 635.273 110.214 636.011 110.801 636.605C111.388 637.2 112.122 637.497 113.003 637.497ZM128.268 628.785H131.458L126.796 640H123.842L119.18 628.785H122.435L125.367 636.412L128.268 628.785ZM143.468 634.414C143.468 634.772 143.446 635.109 143.403 635.424H134.713C134.913 636.133 135.297 636.695 135.862 637.11C136.428 637.526 137.116 637.733 137.925 637.733C138.576 637.733 139.174 637.604 139.719 637.347C140.263 637.082 140.693 636.749 141.008 636.348L142.92 638.023C142.326 638.732 141.588 639.284 140.707 639.678C139.833 640.072 138.877 640.269 137.839 640.269C136.664 640.269 135.601 640.011 134.648 639.495C133.696 638.979 132.951 638.271 132.414 637.368C131.877 636.459 131.608 635.452 131.608 634.35C131.608 633.261 131.866 632.273 132.382 631.385C132.905 630.49 133.621 629.788 134.53 629.279C135.447 628.771 136.46 628.517 137.57 628.517C139.253 628.517 140.657 629.079 141.781 630.203C142.906 631.32 143.468 632.724 143.468 634.414ZM139.364 631.653C138.849 631.231 138.243 631.02 137.549 631.02C136.854 631.02 136.249 631.231 135.733 631.653C135.218 632.069 134.87 632.627 134.691 633.329H140.417C140.238 632.627 139.887 632.069 139.364 631.653ZM160.118 638.582C158.965 639.706 157.533 640.269 155.821 640.269C154.11 640.269 152.674 639.706 151.514 638.582C150.361 637.458 149.784 636.061 149.784 634.393C149.784 632.724 150.361 631.327 151.514 630.203C152.674 629.079 154.11 628.517 155.821 628.517C157.533 628.517 158.965 629.079 160.118 630.203C161.271 631.327 161.848 632.724 161.848 634.393C161.848 636.061 161.271 637.458 160.118 638.582ZM155.821 637.497C156.709 637.497 157.443 637.203 158.023 636.616C158.604 636.022 158.894 635.281 158.894 634.393C158.894 633.505 158.604 632.767 158.023 632.18C157.443 631.585 156.709 631.288 155.821 631.288C154.94 631.288 154.206 631.585 153.619 632.18C153.032 632.774 152.738 633.512 152.738 634.393C152.738 635.273 153.032 636.011 153.619 636.605C154.206 637.2 154.94 637.497 155.821 637.497ZM170.323 628.517C171.648 628.517 172.708 628.914 173.503 629.709C174.305 630.497 174.706 631.549 174.706 632.867V640H171.838V633.791C171.838 633.032 171.612 632.427 171.161 631.976C170.717 631.517 170.123 631.288 169.378 631.288C168.597 631.288 167.964 631.524 167.477 631.997C166.997 632.463 166.757 633.078 166.757 633.845V640H163.899V628.785H166.757V630.031C167.659 629.021 168.848 628.517 170.323 628.517ZM189.176 631.396H186.157V636.058C186.157 637.017 186.673 637.497 187.704 637.497C188.141 637.497 188.632 637.372 189.176 637.121V639.785C188.581 640.107 187.883 640.269 187.081 640.269C185.828 640.269 184.882 639.936 184.245 639.27C183.615 638.596 183.3 637.68 183.3 636.52V631.396H181.517V628.785H183.3V625.938H186.157V628.785H189.176V631.396ZM200.595 638.582C199.442 639.706 198.009 640.269 196.298 640.269C194.586 640.269 193.15 639.706 191.99 638.582C190.837 637.458 190.261 636.061 190.261 634.393C190.261 632.724 190.837 631.327 191.99 630.203C193.15 629.079 194.586 628.517 196.298 628.517C198.009 628.517 199.442 629.079 200.595 630.203C201.748 631.327 202.324 632.724 202.324 634.393C202.324 636.061 201.748 637.458 200.595 638.582ZM196.298 637.497C197.186 637.497 197.92 637.203 198.5 636.616C199.08 636.022 199.37 635.281 199.37 634.393C199.37 633.505 199.08 632.767 198.5 632.18C197.92 631.585 197.186 631.288 196.298 631.288C195.417 631.288 194.683 631.585 194.096 632.18C193.508 632.774 193.215 633.512 193.215 634.393C193.215 635.273 193.508 636.011 194.096 636.605C194.683 637.2 195.417 637.497 196.298 637.497ZM54.7158 670.269C52.8968 670.269 51.3213 669.696 49.9893 668.55L51.375 666.659C52.3275 667.49 53.4196 667.905 54.6514 667.905C55.2386 667.905 55.7148 667.812 56.0801 667.626C56.4525 667.44 56.6387 667.182 56.6387 666.853C56.6387 666.674 56.585 666.516 56.4775 666.38C56.3773 666.244 56.2126 666.126 55.9834 666.025C55.7542 665.925 55.5322 665.843 55.3174 665.778C55.1097 665.714 54.8161 665.639 54.4365 665.553C54.1787 665.495 53.9746 665.449 53.8242 665.413C53.6738 665.377 53.4661 665.324 53.2012 665.252C52.9434 665.173 52.7321 665.102 52.5674 665.037C52.4098 664.973 52.2201 664.887 51.998 664.779C51.776 664.665 51.5934 664.55 51.4502 664.436C51.3141 664.321 51.1673 664.181 51.0098 664.017C50.8594 663.852 50.7376 663.676 50.6445 663.49C50.5586 663.304 50.487 663.089 50.4297 662.846C50.3724 662.602 50.3438 662.341 50.3438 662.062C50.3438 661.295 50.555 660.64 50.9775 660.096C51.4001 659.551 51.9479 659.154 52.6211 658.903C53.3014 658.646 54.0677 658.517 54.9199 658.517C56.5742 658.517 58.0244 659.007 59.2705 659.988L57.8848 661.9C56.9681 661.213 56.0013 660.869 54.9844 660.869C54.4688 660.869 54.0462 660.951 53.7168 661.116C53.3874 661.281 53.2227 661.521 53.2227 661.836C53.2227 662.015 53.2728 662.173 53.373 662.309C53.4733 662.438 53.638 662.552 53.8672 662.652C54.0964 662.745 54.3184 662.824 54.5332 662.889C54.748 662.946 55.0452 663.014 55.4248 663.093C55.7542 663.164 56.0192 663.225 56.2197 663.275C56.4202 663.326 56.6816 663.404 57.0039 663.512C57.3262 663.619 57.5876 663.727 57.7881 663.834C57.9958 663.941 58.2178 664.088 58.4541 664.274C58.6976 664.453 58.8874 664.647 59.0234 664.854C59.1595 665.062 59.2741 665.316 59.3672 665.617C59.4674 665.918 59.5176 666.244 59.5176 666.595C59.5176 667.361 59.3027 668.027 58.873 668.593C58.4434 669.159 57.8704 669.581 57.1543 669.86C56.4382 670.132 55.6253 670.269 54.7158 670.269ZM71.0869 668.582C69.9339 669.706 68.5016 670.269 66.79 670.269C65.0785 670.269 63.6426 669.706 62.4824 668.582C61.3294 667.458 60.7529 666.061 60.7529 664.393C60.7529 662.724 61.3294 661.327 62.4824 660.203C63.6426 659.079 65.0785 658.517 66.79 658.517C68.5016 658.517 69.9339 659.079 71.0869 660.203C72.2399 661.327 72.8164 662.724 72.8164 664.393C72.8164 666.061 72.2399 667.458 71.0869 668.582ZM66.79 667.497C67.6781 667.497 68.4121 667.203 68.9922 666.616C69.5723 666.022 69.8623 665.281 69.8623 664.393C69.8623 663.505 69.5723 662.767 68.9922 662.18C68.4121 661.585 67.6781 661.288 66.79 661.288C65.9092 661.288 65.1751 661.585 64.5879 662.18C64.0007 662.774 63.707 663.512 63.707 664.393C63.707 665.273 64.0007 666.011 64.5879 666.605C65.1751 667.2 65.9092 667.497 66.79 667.497ZM88.3926 658.517C89.6602 658.517 90.6735 658.896 91.4326 659.655C92.1989 660.414 92.582 661.428 92.582 662.695V670H89.7139V663.555C89.7139 662.867 89.5133 662.319 89.1123 661.911C88.7184 661.496 88.1885 661.288 87.5225 661.288C86.8206 661.288 86.2513 661.499 85.8145 661.922C85.3776 662.344 85.1592 662.903 85.1592 663.598V670H82.3018V663.555C82.3018 662.874 82.0977 662.326 81.6895 661.911C81.2884 661.496 80.7513 661.288 80.0781 661.288C79.3835 661.288 78.8177 661.503 78.3809 661.933C77.944 662.355 77.7256 662.91 77.7256 663.598V670H74.8682V658.785H77.7256V659.945C78.5706 658.993 79.6771 658.517 81.0449 658.517C81.8255 658.517 82.5166 658.678 83.1182 659C83.7269 659.315 84.2103 659.763 84.5684 660.343C85.4922 659.125 86.7669 658.517 88.3926 658.517ZM106.3 664.414C106.3 664.772 106.278 665.109 106.235 665.424H97.5449C97.7454 666.133 98.1286 666.695 98.6943 667.11C99.2601 667.526 99.9476 667.733 100.757 667.733C101.409 667.733 102.007 667.604 102.551 667.347C103.095 667.082 103.525 666.749 103.84 666.348L105.752 668.023C105.158 668.732 104.42 669.284 103.539 669.678C102.665 670.072 101.709 670.269 100.671 670.269C99.4964 670.269 98.4329 670.011 97.4805 669.495C96.528 668.979 95.7832 668.271 95.2461 667.368C94.709 666.459 94.4404 665.452 94.4404 664.35C94.4404 663.261 94.6982 662.273 95.2139 661.385C95.7367 660.49 96.4528 659.788 97.3623 659.279C98.279 658.771 99.2923 658.517 100.402 658.517C102.085 658.517 103.489 659.079 104.613 660.203C105.738 661.32 106.3 662.724 106.3 664.414ZM102.196 661.653C101.681 661.231 101.076 661.02 100.381 661.02C99.6862 661.02 99.0811 661.231 98.5654 661.653C98.0498 662.069 97.7025 662.627 97.5234 663.329H103.249C103.07 662.627 102.719 662.069 102.196 661.653ZM114.711 661.396H111.692V666.058C111.692 667.017 112.208 667.497 113.239 667.497C113.676 667.497 114.167 667.372 114.711 667.121V669.785C114.117 670.107 113.418 670.269 112.616 670.269C111.363 670.269 110.418 669.936 109.78 669.27C109.15 668.596 108.835 667.68 108.835 666.52V661.396H107.052V658.785H108.835V655.938H111.692V658.785H114.711V661.396ZM123.251 658.517C124.576 658.517 125.636 658.914 126.431 659.709C127.233 660.497 127.634 661.549 127.634 662.867V670H124.766V663.791C124.766 663.032 124.544 662.427 124.1 661.976C123.656 661.517 123.065 661.288 122.327 661.288C121.539 661.288 120.902 661.524 120.415 661.997C119.928 662.463 119.685 663.078 119.685 663.845V670H116.827V654.155H119.685V660.096C120.587 659.043 121.776 658.517 123.251 658.517ZM132.897 656.615C132.554 656.959 132.128 657.131 131.619 657.131C131.111 657.131 130.681 656.959 130.33 656.615C129.986 656.271 129.814 655.849 129.814 655.348C129.814 654.846 129.986 654.424 130.33 654.08C130.681 653.736 131.111 653.564 131.619 653.564C132.128 653.564 132.554 653.736 132.897 654.08C133.248 654.424 133.424 654.846 133.424 655.348C133.424 655.849 133.248 656.271 132.897 656.615ZM130.19 670V658.785H133.048V670H130.19ZM142.2 658.517C143.525 658.517 144.585 658.914 145.38 659.709C146.182 660.497 146.583 661.549 146.583 662.867V670H143.715V663.791C143.715 663.032 143.489 662.427 143.038 661.976C142.594 661.517 142 661.288 141.255 661.288C140.474 661.288 139.84 661.524 139.354 661.997C138.874 662.463 138.634 663.078 138.634 663.845V670H135.776V658.785H138.634V660.031C139.536 659.021 140.725 658.517 142.2 658.517ZM156.272 670C157.39 670 158.317 670.29 159.055 670.87C159.799 671.457 160.265 672.267 160.451 673.298L157.497 674.093C157.454 673.685 157.271 673.359 156.949 673.115C156.627 672.872 156.215 672.75 155.714 672.75H152.04C150.994 672.75 150.153 672.474 149.516 671.923C148.885 671.371 148.57 670.648 148.57 669.753C148.57 669.18 148.706 668.639 148.979 668.131C149.258 667.622 149.627 667.225 150.085 666.938C149.09 666.007 148.592 664.844 148.592 663.447C148.592 662.036 149.09 660.862 150.085 659.924C151.088 658.986 152.341 658.517 153.845 658.517C154.711 658.517 155.528 658.692 156.294 659.043C156.459 658.434 156.795 657.958 157.304 657.614C157.819 657.263 158.442 657.088 159.173 657.088H160.097V659.73H159.302C159.015 659.73 158.765 659.802 158.55 659.945C158.342 660.089 158.213 660.285 158.163 660.536C158.808 661.374 159.13 662.344 159.13 663.447C159.13 664.851 158.625 666.022 157.615 666.96C156.605 667.898 155.349 668.367 153.845 668.367C153.229 668.367 152.613 668.274 151.997 668.088C151.618 668.317 151.428 668.639 151.428 669.055C151.428 669.327 151.539 669.552 151.761 669.731C151.983 669.91 152.269 670 152.62 670H156.272ZM153.845 661.224C153.172 661.224 152.613 661.435 152.169 661.857C151.732 662.28 151.514 662.81 151.514 663.447C151.514 664.085 151.732 664.615 152.169 665.037C152.613 665.46 153.172 665.671 153.845 665.671C154.511 665.671 155.066 665.46 155.51 665.037C155.954 664.615 156.176 664.085 156.176 663.447C156.176 662.81 155.954 662.28 155.51 661.857C155.066 661.435 154.511 661.224 153.845 661.224ZM172.987 658.517C174.312 658.517 175.372 658.914 176.167 659.709C176.969 660.497 177.37 661.549 177.37 662.867V670H174.502V663.791C174.502 663.032 174.276 662.427 173.825 661.976C173.381 661.517 172.787 661.288 172.042 661.288C171.261 661.288 170.628 661.524 170.141 661.997C169.661 662.463 169.421 663.078 169.421 663.845V670H166.563V658.785H169.421V660.031C170.323 659.021 171.512 658.517 172.987 658.517ZM191.099 664.414C191.099 664.772 191.077 665.109 191.034 665.424H182.344C182.544 666.133 182.927 666.695 183.493 667.11C184.059 667.526 184.746 667.733 185.556 667.733C186.207 667.733 186.805 667.604 187.35 667.347C187.894 667.082 188.324 666.749 188.639 666.348L190.551 668.023C189.956 668.732 189.219 669.284 188.338 669.678C187.464 670.072 186.508 670.269 185.47 670.269C184.295 670.269 183.232 670.011 182.279 669.495C181.327 668.979 180.582 668.271 180.045 667.368C179.508 666.459 179.239 665.452 179.239 664.35C179.239 663.261 179.497 662.273 180.013 661.385C180.535 660.49 181.252 659.788 182.161 659.279C183.078 658.771 184.091 658.517 185.201 658.517C186.884 658.517 188.288 659.079 189.412 660.203C190.536 661.32 191.099 662.724 191.099 664.414ZM186.995 661.653C186.479 661.231 185.874 661.02 185.18 661.02C184.485 661.02 183.88 661.231 183.364 661.653C182.849 662.069 182.501 662.627 182.322 663.329H188.048C187.869 662.627 187.518 662.069 186.995 661.653ZM206.75 658.785H209.876L205.891 670H202.947L200.573 662.255L198.199 670H195.245L191.26 658.785H194.45L196.781 666.348L199.145 658.785H202.066L204.44 666.348L206.75 658.785Z" fill="white"/>
<path d="M815.812 637.143H821.623V640H811.547V637.54L816.735 631.965C817.194 631.464 817.555 631.005 817.82 630.59C818.092 630.167 818.229 629.748 818.229 629.333C818.229 628.81 818.035 628.391 817.648 628.076C817.262 627.754 816.768 627.593 816.166 627.593C815.07 627.593 814.086 628.159 813.212 629.29L811.149 627.303C811.672 626.472 812.396 625.806 813.319 625.305C814.25 624.803 815.264 624.553 816.359 624.553C817.82 624.553 819.013 624.986 819.937 625.853C820.868 626.712 821.333 627.811 821.333 629.15C821.333 629.995 821.158 630.758 820.807 631.438C820.456 632.112 819.987 632.76 819.399 633.383L815.812 637.143ZM834.03 634.188V637.057H832.397V640H829.368V637.057H822.923L822.192 634.586L829.078 624.821H832.397V634.188H834.03ZM825.49 634.188H829.368V628.646L825.49 634.188ZM834.363 643.298L843.161 623.5H846.04L837.242 643.298H834.363ZM847.34 624.821H857.459V627.195L851.669 640H848.242L853.85 627.679H847.34V624.821ZM872.906 628.785H875.764V640H872.906V638.657C871.925 639.731 870.708 640.269 869.254 640.269C867.693 640.269 866.389 639.706 865.344 638.582C864.298 637.458 863.775 636.061 863.775 634.393C863.775 632.724 864.298 631.327 865.344 630.203C866.389 629.079 867.693 628.517 869.254 628.517C870.715 628.517 871.932 629.05 872.906 630.117V628.785ZM869.802 637.497C870.69 637.497 871.427 637.2 872.015 636.605C872.609 636.011 872.906 635.273 872.906 634.393C872.906 633.512 872.609 632.774 872.015 632.18C871.427 631.585 870.69 631.288 869.802 631.288C868.921 631.288 868.187 631.585 867.6 632.18C867.012 632.774 866.719 633.512 866.719 634.393C866.719 635.273 867.012 636.011 867.6 636.605C868.187 637.2 868.921 637.497 869.802 637.497ZM886.312 628.785H889.503L884.841 640H881.887L877.225 628.785H880.479L883.412 636.412L886.312 628.785ZM898.838 628.785H901.695V640H898.838V638.657C897.857 639.731 896.639 640.269 895.186 640.269C893.624 640.269 892.321 639.706 891.275 638.582C890.23 637.458 889.707 636.061 889.707 634.393C889.707 632.724 890.23 631.327 891.275 630.203C892.321 629.079 893.624 628.517 895.186 628.517C896.646 628.517 897.864 629.05 898.838 630.117V628.785ZM895.733 637.497C896.621 637.497 897.359 637.2 897.946 636.605C898.541 636.011 898.838 635.273 898.838 634.393C898.838 633.512 898.541 632.774 897.946 632.18C897.359 631.585 896.621 631.288 895.733 631.288C894.853 631.288 894.118 631.585 893.531 632.18C892.944 632.774 892.65 633.512 892.65 634.393C892.65 635.273 892.944 636.011 893.531 636.605C894.118 637.2 894.853 637.497 895.733 637.497ZM907.12 626.615C906.776 626.959 906.35 627.131 905.842 627.131C905.333 627.131 904.904 626.959 904.553 626.615C904.209 626.271 904.037 625.849 904.037 625.348C904.037 624.846 904.209 624.424 904.553 624.08C904.904 623.736 905.333 623.564 905.842 623.564C906.35 623.564 906.776 623.736 907.12 624.08C907.471 624.424 907.646 624.846 907.646 625.348C907.646 625.849 907.471 626.271 907.12 626.615ZM904.413 640V628.785H907.271V640H904.413ZM909.999 640V624.155H912.856V640H909.999ZM924.082 628.785H926.939V640H924.082V638.657C923.101 639.731 921.883 640.269 920.43 640.269C918.868 640.269 917.565 639.706 916.52 638.582C915.474 637.458 914.951 636.061 914.951 634.393C914.951 632.724 915.474 631.327 916.52 630.203C917.565 629.079 918.868 628.517 920.43 628.517C921.891 628.517 923.108 629.05 924.082 630.117V628.785ZM920.978 637.497C921.866 637.497 922.603 637.2 923.19 636.605C923.785 636.011 924.082 635.273 924.082 634.393C924.082 633.512 923.785 632.774 923.19 632.18C922.603 631.585 921.866 631.288 920.978 631.288C920.097 631.288 919.363 631.585 918.775 632.18C918.188 632.774 917.895 633.512 917.895 634.393C917.895 635.273 918.188 636.011 918.775 636.605C919.363 637.2 920.097 637.497 920.978 637.497ZM936.167 628.517C937.191 628.517 938.118 628.774 938.949 629.29C939.787 629.799 940.442 630.504 940.915 631.406C941.388 632.301 941.624 633.297 941.624 634.393C941.624 635.488 941.388 636.487 940.915 637.39C940.442 638.285 939.787 638.99 938.949 639.506C938.118 640.014 937.191 640.269 936.167 640.269C934.692 640.269 933.474 639.731 932.515 638.657V640H929.657V624.155H932.515V630.117C933.467 629.05 934.685 628.517 936.167 628.517ZM935.598 637.497C936.486 637.497 937.22 637.203 937.8 636.616C938.387 636.022 938.681 635.281 938.681 634.393C938.681 633.505 938.387 632.767 937.8 632.18C937.22 631.585 936.486 631.288 935.598 631.288C934.717 631.288 933.983 631.585 933.396 632.18C932.808 632.774 932.515 633.512 932.515 634.393C932.515 635.273 932.808 636.011 933.396 636.605C933.983 637.2 934.717 637.497 935.598 637.497ZM946.437 626.615C946.093 626.959 945.667 627.131 945.158 627.131C944.65 627.131 944.22 626.959 943.869 626.615C943.525 626.271 943.354 625.849 943.354 625.348C943.354 624.846 943.525 624.424 943.869 624.08C944.22 623.736 944.65 623.564 945.158 623.564C945.667 623.564 946.093 623.736 946.437 624.08C946.787 624.424 946.963 624.846 946.963 625.348C946.963 625.849 946.787 626.271 946.437 626.615ZM943.729 640V628.785H946.587V640H943.729ZM949.315 640V624.155H952.173V640H949.315ZM957.608 626.615C957.265 626.959 956.839 627.131 956.33 627.131C955.822 627.131 955.392 626.959 955.041 626.615C954.697 626.271 954.525 625.849 954.525 625.348C954.525 624.846 954.697 624.424 955.041 624.08C955.392 623.736 955.822 623.564 956.33 623.564C956.839 623.564 957.265 623.736 957.608 624.08C957.959 624.424 958.135 624.846 958.135 625.348C958.135 625.849 957.959 626.271 957.608 626.615ZM954.901 640V628.785H957.759V640H954.901ZM967.395 631.396H964.376V636.058C964.376 637.017 964.892 637.497 965.923 637.497C966.36 637.497 966.85 637.372 967.395 637.121V639.785C966.8 640.107 966.102 640.269 965.3 640.269C964.047 640.269 963.101 639.936 962.464 639.27C961.834 638.596 961.519 637.68 961.519 636.52V631.396H959.735V628.785H961.519V625.938H964.376V628.785H967.395V631.396ZM977.492 628.785H980.683L975.14 641.955C974.832 642.721 974.37 643.326 973.754 643.771C973.138 644.222 972.461 644.447 971.724 644.447C971.215 644.447 970.689 644.343 970.145 644.136C969.607 643.928 969.153 643.656 968.78 643.319L969.876 641.074C970.256 641.475 970.71 641.676 971.24 641.676C971.82 641.676 972.246 641.382 972.519 640.795L972.98 639.828L968.404 628.785H971.659L974.592 636.412L977.492 628.785ZM833.515 656.519C833.006 656.519 832.616 656.64 832.344 656.884C832.079 657.12 831.946 657.475 831.946 657.947V658.785H834.771V661.396H831.946V670H829.089V661.396H827.327V658.785H829.089V657.765C829.089 656.562 829.404 655.616 830.034 654.929C830.672 654.241 831.617 653.897 832.87 653.897C833.665 653.897 834.37 654.059 834.986 654.381V656.884C834.549 656.64 834.059 656.519 833.515 656.519ZM842.635 658.603H843.118V661.557H842.635C841.618 661.557 840.823 661.836 840.25 662.395C839.684 662.953 839.401 663.712 839.401 664.672V670H836.544V658.785H839.401V660.235C840.261 659.147 841.339 658.603 842.635 658.603ZM854.161 668.582C853.008 669.706 851.576 670.269 849.864 670.269C848.153 670.269 846.717 669.706 845.557 668.582C844.404 667.458 843.827 666.061 843.827 664.393C843.827 662.724 844.404 661.327 845.557 660.203C846.717 659.079 848.153 658.517 849.864 658.517C851.576 658.517 853.008 659.079 854.161 660.203C855.314 661.327 855.891 662.724 855.891 664.393C855.891 666.061 855.314 667.458 854.161 668.582ZM849.864 667.497C850.752 667.497 851.486 667.203 852.066 666.616C852.646 666.022 852.937 665.281 852.937 664.393C852.937 663.505 852.646 662.767 852.066 662.18C851.486 661.585 850.752 661.288 849.864 661.288C848.983 661.288 848.249 661.585 847.662 662.18C847.075 662.774 846.781 663.512 846.781 664.393C846.781 665.273 847.075 666.011 847.662 666.605C848.249 667.2 848.983 667.497 849.864 667.497ZM871.467 658.517C872.734 658.517 873.748 658.896 874.507 659.655C875.273 660.414 875.656 661.428 875.656 662.695V670H872.788V663.555C872.788 662.867 872.588 662.319 872.187 661.911C871.793 661.496 871.263 661.288 870.597 661.288C869.895 661.288 869.326 661.499 868.889 661.922C868.452 662.344 868.233 662.903 868.233 663.598V670H865.376V663.555C865.376 662.874 865.172 662.326 864.764 661.911C864.363 661.496 863.826 661.288 863.152 661.288C862.458 661.288 861.892 661.503 861.455 661.933C861.018 662.355 860.8 662.91 860.8 663.598V670H857.942V658.785H860.8V659.945C861.645 658.993 862.751 658.517 864.119 658.517C864.9 658.517 865.591 658.678 866.192 659C866.801 659.315 867.285 659.763 867.643 660.343C868.566 659.125 869.841 658.517 871.467 658.517ZM892.854 668.582C891.701 669.706 890.269 670.269 888.558 670.269C886.846 670.269 885.41 669.706 884.25 668.582C883.097 667.458 882.521 666.061 882.521 664.393C882.521 662.724 883.097 661.327 884.25 660.203C885.41 659.079 886.846 658.517 888.558 658.517C890.269 658.517 891.701 659.079 892.854 660.203C894.007 661.327 894.584 662.724 894.584 664.393C894.584 666.061 894.007 667.458 892.854 668.582ZM888.558 667.497C889.446 667.497 890.18 667.203 890.76 666.616C891.34 666.022 891.63 665.281 891.63 664.393C891.63 663.505 891.34 662.767 890.76 662.18C890.18 661.585 889.446 661.288 888.558 661.288C887.677 661.288 886.943 661.585 886.355 662.18C885.768 662.774 885.475 663.512 885.475 664.393C885.475 665.273 885.768 666.011 886.355 666.605C886.943 667.2 887.677 667.497 888.558 667.497ZM901.695 670.269C900.113 670.269 898.845 669.839 897.893 668.979C896.94 668.113 896.464 666.964 896.464 665.531V658.785H899.321V665.134C899.321 665.85 899.536 666.423 899.966 666.853C900.403 667.282 900.979 667.497 901.695 667.497C902.411 667.497 902.984 667.282 903.414 666.853C903.851 666.423 904.069 665.85 904.069 665.134V658.785H906.927V665.531C906.927 666.956 906.447 668.102 905.487 668.969C904.535 669.835 903.271 670.269 901.695 670.269ZM915.574 658.603H916.058V661.557H915.574C914.557 661.557 913.762 661.836 913.189 662.395C912.624 662.953 912.341 663.712 912.341 664.672V670H909.483V658.785H912.341V660.235C913.2 659.147 914.278 658.603 915.574 658.603ZM926.606 670.269C924.787 670.269 923.212 669.696 921.88 668.55L923.266 666.659C924.218 667.49 925.31 667.905 926.542 667.905C927.129 667.905 927.605 667.812 927.971 667.626C928.343 667.44 928.529 667.182 928.529 666.853C928.529 666.674 928.476 666.516 928.368 666.38C928.268 666.244 928.103 666.126 927.874 666.025C927.645 665.925 927.423 665.843 927.208 665.778C927 665.714 926.707 665.639 926.327 665.553C926.069 665.495 925.865 665.449 925.715 665.413C925.564 665.377 925.357 665.324 925.092 665.252C924.834 665.173 924.623 665.102 924.458 665.037C924.3 664.973 924.111 664.887 923.889 664.779C923.667 664.665 923.484 664.55 923.341 664.436C923.205 664.321 923.058 664.181 922.9 664.017C922.75 663.852 922.628 663.676 922.535 663.49C922.449 663.304 922.378 663.089 922.32 662.846C922.263 662.602 922.234 662.341 922.234 662.062C922.234 661.295 922.446 660.64 922.868 660.096C923.291 659.551 923.839 659.154 924.512 658.903C925.192 658.646 925.958 658.517 926.811 658.517C928.465 658.517 929.915 659.007 931.161 659.988L929.775 661.9C928.859 661.213 927.892 660.869 926.875 660.869C926.359 660.869 925.937 660.951 925.607 661.116C925.278 661.281 925.113 661.521 925.113 661.836C925.113 662.015 925.163 662.173 925.264 662.309C925.364 662.438 925.529 662.552 925.758 662.652C925.987 662.745 926.209 662.824 926.424 662.889C926.639 662.946 926.936 663.014 927.315 663.093C927.645 663.164 927.91 663.225 928.11 663.275C928.311 663.326 928.572 663.404 928.895 663.512C929.217 663.619 929.478 663.727 929.679 663.834C929.886 663.941 930.108 664.088 930.345 664.274C930.588 664.453 930.778 664.647 930.914 664.854C931.05 665.062 931.165 665.316 931.258 665.617C931.358 665.918 931.408 666.244 931.408 666.595C931.408 667.361 931.193 668.027 930.764 668.593C930.334 669.159 929.761 669.581 929.045 669.86C928.329 670.132 927.516 670.269 926.606 670.269ZM936.038 656.615C935.694 656.959 935.268 657.131 934.76 657.131C934.251 657.131 933.822 656.959 933.471 656.615C933.127 656.271 932.955 655.849 932.955 655.348C932.955 654.846 933.127 654.424 933.471 654.08C933.822 653.736 934.251 653.564 934.76 653.564C935.268 653.564 935.694 653.736 936.038 654.08C936.389 654.424 936.564 654.846 936.564 655.348C936.564 655.849 936.389 656.271 936.038 656.615ZM933.331 670V658.785H936.188V670H933.331ZM947.414 654.155H950.271V670H947.414V668.657C946.433 669.731 945.215 670.269 943.762 670.269C942.201 670.269 940.897 669.706 939.852 668.582C938.806 667.458 938.283 666.061 938.283 664.393C938.283 662.724 938.806 661.327 939.852 660.203C940.897 659.079 942.201 658.517 943.762 658.517C945.223 658.517 946.44 659.05 947.414 660.117V654.155ZM944.31 667.497C945.198 667.497 945.935 667.2 946.522 666.605C947.117 666.011 947.414 665.273 947.414 664.393C947.414 663.512 947.117 662.774 946.522 662.18C945.935 661.585 945.198 661.288 944.31 661.288C943.429 661.288 942.695 661.585 942.107 662.18C941.52 662.774 941.227 663.512 941.227 664.393C941.227 665.273 941.52 666.011 942.107 666.605C942.695 667.2 943.429 667.497 944.31 667.497ZM964.161 664.414C964.161 664.772 964.14 665.109 964.097 665.424H955.406C955.607 666.133 955.99 666.695 956.556 667.11C957.121 667.526 957.809 667.733 958.618 667.733C959.27 667.733 959.868 667.604 960.412 667.347C960.956 667.082 961.386 666.749 961.701 666.348L963.613 668.023C963.019 668.732 962.281 669.284 961.4 669.678C960.527 670.072 959.571 670.269 958.532 670.269C957.358 670.269 956.294 670.011 955.342 669.495C954.389 668.979 953.645 668.271 953.107 667.368C952.57 666.459 952.302 665.452 952.302 664.35C952.302 663.261 952.56 662.273 953.075 661.385C953.598 660.49 954.314 659.788 955.224 659.279C956.14 658.771 957.154 658.517 958.264 658.517C959.947 658.517 961.35 659.079 962.475 660.203C963.599 661.32 964.161 662.724 964.161 664.414ZM960.058 661.653C959.542 661.231 958.937 661.02 958.242 661.02C957.548 661.02 956.942 661.231 956.427 661.653C955.911 662.069 955.564 662.627 955.385 663.329H961.11C960.931 662.627 960.58 662.069 960.058 661.653Z" fill="white"/>
<path d="M837.494 361.269C836.341 361.269 835.192 361.054 834.046 360.624C832.907 360.187 831.951 359.607 831.178 358.884L832.746 356.574C833.376 357.176 834.114 357.659 834.959 358.024C835.811 358.382 836.656 358.562 837.494 358.562C838.268 358.562 838.926 358.397 839.471 358.067C840.015 357.738 840.287 357.315 840.287 356.8C840.287 356.621 840.248 356.456 840.169 356.306C840.097 356.148 840.015 356.016 839.922 355.908C839.829 355.794 839.678 355.683 839.471 355.575C839.27 355.461 839.098 355.375 838.955 355.317C838.819 355.253 838.608 355.178 838.321 355.092C838.042 355.006 837.831 354.949 837.688 354.92C837.551 354.884 837.326 354.827 837.011 354.748C836.409 354.605 835.854 354.44 835.346 354.254C834.837 354.068 834.354 353.839 833.896 353.566C833.444 353.287 833.061 352.979 832.746 352.643C832.431 352.306 832.18 351.916 831.994 351.472C831.815 351.021 831.726 350.537 831.726 350.021C831.726 348.675 832.259 347.594 833.326 346.777C834.393 345.961 835.783 345.553 837.494 345.553C838.59 345.553 839.592 345.725 840.502 346.068C841.419 346.412 842.167 346.87 842.747 347.443L841.34 349.731C840.896 349.302 840.319 348.951 839.61 348.679C838.909 348.399 838.189 348.26 837.451 348.26C836.692 348.26 836.069 348.414 835.582 348.722C835.095 349.03 834.852 349.42 834.852 349.893C834.852 350.172 834.938 350.423 835.109 350.645C835.281 350.867 835.525 351.056 835.84 351.214C836.155 351.364 836.466 351.49 836.774 351.59C837.082 351.683 837.44 351.776 837.849 351.869C838.114 351.926 838.364 351.987 838.601 352.052C838.844 352.109 839.163 352.206 839.557 352.342C839.951 352.478 840.309 352.628 840.631 352.793C840.96 352.951 841.304 353.158 841.662 353.416C842.02 353.674 842.321 353.953 842.564 354.254C842.808 354.548 843.008 354.906 843.166 355.328C843.331 355.743 843.413 356.191 843.413 356.671C843.413 357.559 843.152 358.357 842.629 359.066C842.106 359.768 841.394 360.312 840.491 360.699C839.596 361.079 838.597 361.269 837.494 361.269ZM856.529 355.414C856.529 355.772 856.508 356.109 856.465 356.424H847.774C847.975 357.133 848.358 357.695 848.924 358.11C849.49 358.526 850.177 358.733 850.986 358.733C851.638 358.733 852.236 358.604 852.78 358.347C853.325 358.082 853.754 357.749 854.069 357.348L855.981 359.023C855.387 359.732 854.649 360.284 853.769 360.678C852.895 361.072 851.939 361.269 850.9 361.269C849.726 361.269 848.662 361.011 847.71 360.495C846.757 359.979 846.013 359.271 845.476 358.368C844.938 357.459 844.67 356.452 844.67 355.35C844.67 354.261 844.928 353.273 845.443 352.385C845.966 351.49 846.682 350.788 847.592 350.279C848.508 349.771 849.522 349.517 850.632 349.517C852.315 349.517 853.718 350.079 854.843 351.203C855.967 352.32 856.529 353.724 856.529 355.414ZM852.426 352.653C851.91 352.231 851.305 352.02 850.61 352.02C849.916 352.02 849.311 352.231 848.795 352.653C848.279 353.069 847.932 353.627 847.753 354.329H853.479C853.299 353.627 852.949 353.069 852.426 352.653ZM863.877 361.269C862.165 361.269 860.729 360.706 859.569 359.582C858.416 358.458 857.84 357.061 857.84 355.393C857.84 353.724 858.416 352.327 859.569 351.203C860.729 350.079 862.165 349.517 863.877 349.517C864.994 349.517 866.004 349.767 866.906 350.269C867.816 350.77 868.528 351.45 869.044 352.31L866.552 353.803C866.294 353.344 865.929 352.979 865.456 352.707C864.991 352.428 864.464 352.288 863.877 352.288C862.996 352.288 862.262 352.585 861.675 353.18C861.088 353.774 860.794 354.512 860.794 355.393C860.794 356.273 861.088 357.011 861.675 357.605C862.262 358.2 862.996 358.497 863.877 358.497C864.457 358.497 864.983 358.361 865.456 358.089C865.929 357.81 866.294 357.437 866.552 356.972L869.044 358.465C868.528 359.331 867.816 360.015 866.906 360.517C866.004 361.018 864.994 361.269 863.877 361.269ZM875.876 361.269C874.293 361.269 873.026 360.839 872.073 359.979C871.121 359.113 870.645 357.964 870.645 356.531V349.785H873.502V356.134C873.502 356.85 873.717 357.423 874.146 357.853C874.583 358.282 875.16 358.497 875.876 358.497C876.592 358.497 877.165 358.282 877.595 357.853C878.032 357.423 878.25 356.85 878.25 356.134V349.785H881.107V356.531C881.107 357.956 880.628 359.102 879.668 359.969C878.715 360.835 877.451 361.269 875.876 361.269ZM889.755 349.603H890.238V352.557H889.755C888.738 352.557 887.943 352.836 887.37 353.395C886.804 353.953 886.521 354.712 886.521 355.672V361H883.664V349.785H886.521V351.235C887.381 350.147 888.459 349.603 889.755 349.603ZM902.807 355.414C902.807 355.772 902.785 356.109 902.742 356.424H894.052C894.252 357.133 894.635 357.695 895.201 358.11C895.767 358.526 896.454 358.733 897.264 358.733C897.915 358.733 898.513 358.604 899.058 358.347C899.602 358.082 900.032 357.749 900.347 357.348L902.259 359.023C901.664 359.732 900.927 360.284 900.046 360.678C899.172 361.072 898.216 361.269 897.178 361.269C896.003 361.269 894.94 361.011 893.987 360.495C893.035 359.979 892.29 359.271 891.753 358.368C891.216 357.459 890.947 356.452 890.947 355.35C890.947 354.261 891.205 353.273 891.721 352.385C892.243 351.49 892.96 350.788 893.869 350.279C894.786 349.771 895.799 349.517 896.909 349.517C898.592 349.517 899.996 350.079 901.12 351.203C902.244 352.32 902.807 353.724 902.807 355.414ZM898.703 352.653C898.188 352.231 897.582 352.02 896.888 352.02C896.193 352.02 895.588 352.231 895.072 352.653C894.557 353.069 894.209 353.627 894.03 354.329H899.756C899.577 353.627 899.226 353.069 898.703 352.653ZM917.642 349.785H920.832L915.289 362.955C914.981 363.721 914.519 364.326 913.903 364.771C913.287 365.222 912.611 365.447 911.873 365.447C911.365 365.447 910.838 365.343 910.294 365.136C909.757 364.928 909.302 364.656 908.93 364.319L910.025 362.074C910.405 362.475 910.86 362.676 911.39 362.676C911.97 362.676 912.396 362.382 912.668 361.795L913.13 360.828L908.554 349.785H911.809L914.741 357.412L917.642 349.785ZM931.316 359.582C930.163 360.706 928.731 361.269 927.02 361.269C925.308 361.269 923.872 360.706 922.712 359.582C921.559 358.458 920.982 357.061 920.982 355.393C920.982 353.724 921.559 352.327 922.712 351.203C923.872 350.079 925.308 349.517 927.02 349.517C928.731 349.517 930.163 350.079 931.316 351.203C932.469 352.327 933.046 353.724 933.046 355.393C933.046 357.061 932.469 358.458 931.316 359.582ZM927.02 358.497C927.908 358.497 928.642 358.203 929.222 357.616C929.802 357.022 930.092 356.281 930.092 355.393C930.092 354.505 929.802 353.767 929.222 353.18C928.642 352.585 927.908 352.288 927.02 352.288C926.139 352.288 925.405 352.585 924.817 353.18C924.23 353.774 923.937 354.512 923.937 355.393C923.937 356.273 924.23 357.011 924.817 357.605C925.405 358.2 926.139 358.497 927.02 358.497ZM940.157 361.269C938.575 361.269 937.307 360.839 936.354 359.979C935.402 359.113 934.926 357.964 934.926 356.531V349.785H937.783V356.134C937.783 356.85 937.998 357.423 938.428 357.853C938.865 358.282 939.441 358.497 940.157 358.497C940.873 358.497 941.446 358.282 941.876 357.853C942.313 357.423 942.531 356.85 942.531 356.134V349.785H945.389V356.531C945.389 357.956 944.909 359.102 943.949 359.969C942.997 360.835 941.733 361.269 940.157 361.269ZM954.036 349.603H954.52V352.557H954.036C953.019 352.557 952.224 352.836 951.651 353.395C951.086 353.953 950.803 354.712 950.803 355.672V361H947.945V349.785H950.803V351.235C951.662 350.147 952.74 349.603 954.036 349.603ZM834.991 377.615C834.647 377.959 834.221 378.131 833.713 378.131C833.204 378.131 832.775 377.959 832.424 377.615C832.08 377.271 831.908 376.849 831.908 376.348C831.908 375.846 832.08 375.424 832.424 375.08C832.775 374.736 833.204 374.564 833.713 374.564C834.221 374.564 834.647 374.736 834.991 375.08C835.342 375.424 835.518 375.846 835.518 376.348C835.518 376.849 835.342 377.271 834.991 377.615ZM832.284 391V379.785H835.142V391H832.284ZM844.294 379.517C845.619 379.517 846.679 379.914 847.474 380.709C848.276 381.497 848.677 382.549 848.677 383.867V391H845.809V384.791C845.809 384.032 845.583 383.427 845.132 382.976C844.688 382.517 844.093 382.288 843.349 382.288C842.568 382.288 841.934 382.524 841.447 382.997C840.967 383.463 840.728 384.078 840.728 384.845V391H837.87V379.785H840.728V381.031C841.63 380.021 842.819 379.517 844.294 379.517ZM858.549 379.785H861.739L857.077 391H854.123L849.461 379.785H852.716L855.648 387.412L858.549 379.785ZM873.749 385.414C873.749 385.772 873.728 386.109 873.685 386.424H864.994C865.195 387.133 865.578 387.695 866.144 388.11C866.709 388.526 867.397 388.733 868.206 388.733C868.858 388.733 869.456 388.604 870 388.347C870.544 388.082 870.974 387.749 871.289 387.348L873.201 389.023C872.607 389.732 871.869 390.284 870.988 390.678C870.115 391.072 869.159 391.269 868.12 391.269C866.946 391.269 865.882 391.011 864.93 390.495C863.977 389.979 863.232 389.271 862.695 388.368C862.158 387.459 861.89 386.452 861.89 385.35C861.89 384.261 862.147 383.273 862.663 382.385C863.186 381.49 863.902 380.788 864.812 380.279C865.728 379.771 866.742 379.517 867.852 379.517C869.535 379.517 870.938 380.079 872.062 381.203C873.187 382.32 873.749 383.724 873.749 385.414ZM869.646 382.653C869.13 382.231 868.525 382.02 867.83 382.02C867.135 382.02 866.53 382.231 866.015 382.653C865.499 383.069 865.152 383.627 864.973 384.329H870.698C870.519 383.627 870.168 383.069 869.646 382.653ZM879.614 391.269C877.795 391.269 876.22 390.696 874.888 389.55L876.273 387.659C877.226 388.49 878.318 388.905 879.55 388.905C880.137 388.905 880.613 388.812 880.979 388.626C881.351 388.44 881.537 388.182 881.537 387.853C881.537 387.674 881.483 387.516 881.376 387.38C881.276 387.244 881.111 387.126 880.882 387.025C880.653 386.925 880.431 386.843 880.216 386.778C880.008 386.714 879.715 386.639 879.335 386.553C879.077 386.495 878.873 386.449 878.723 386.413C878.572 386.377 878.365 386.324 878.1 386.252C877.842 386.173 877.631 386.102 877.466 386.037C877.308 385.973 877.118 385.887 876.896 385.779C876.674 385.665 876.492 385.55 876.349 385.436C876.213 385.321 876.066 385.181 875.908 385.017C875.758 384.852 875.636 384.676 875.543 384.49C875.457 384.304 875.385 384.089 875.328 383.846C875.271 383.602 875.242 383.341 875.242 383.062C875.242 382.295 875.453 381.64 875.876 381.096C876.299 380.551 876.846 380.154 877.52 379.903C878.2 379.646 878.966 379.517 879.818 379.517C881.473 379.517 882.923 380.007 884.169 380.988L882.783 382.9C881.867 382.213 880.9 381.869 879.883 381.869C879.367 381.869 878.945 381.951 878.615 382.116C878.286 382.281 878.121 382.521 878.121 382.836C878.121 383.015 878.171 383.173 878.271 383.309C878.372 383.438 878.536 383.552 878.766 383.652C878.995 383.745 879.217 383.824 879.432 383.889C879.646 383.946 879.944 384.014 880.323 384.093C880.653 384.164 880.918 384.225 881.118 384.275C881.319 384.326 881.58 384.404 881.902 384.512C882.225 384.619 882.486 384.727 882.687 384.834C882.894 384.941 883.116 385.088 883.353 385.274C883.596 385.453 883.786 385.647 883.922 385.854C884.058 386.062 884.173 386.316 884.266 386.617C884.366 386.918 884.416 387.244 884.416 387.595C884.416 388.361 884.201 389.027 883.771 389.593C883.342 390.159 882.769 390.581 882.053 390.86C881.337 391.132 880.524 391.269 879.614 391.269ZM893.031 382.396H890.013V387.058C890.013 388.017 890.528 388.497 891.56 388.497C891.996 388.497 892.487 388.372 893.031 388.121V390.785C892.437 391.107 891.739 391.269 890.937 391.269C889.683 391.269 888.738 390.936 888.101 390.27C887.47 389.596 887.155 388.68 887.155 387.52V382.396H885.372V379.785H887.155V376.938H890.013V379.785H893.031V382.396ZM908.672 379.517C909.939 379.517 910.953 379.896 911.712 380.655C912.478 381.414 912.861 382.428 912.861 383.695V391H909.993V384.555C909.993 383.867 909.793 383.319 909.392 382.911C908.998 382.496 908.468 382.288 907.802 382.288C907.1 382.288 906.531 382.499 906.094 382.922C905.657 383.344 905.438 383.903 905.438 384.598V391H902.581V384.555C902.581 383.874 902.377 383.326 901.969 382.911C901.568 382.496 901.031 382.288 900.357 382.288C899.663 382.288 899.097 382.503 898.66 382.933C898.223 383.355 898.005 383.91 898.005 384.598V391H895.147V379.785H898.005V380.945C898.85 379.993 899.956 379.517 901.324 379.517C902.105 379.517 902.796 379.678 903.397 380C904.006 380.315 904.49 380.763 904.848 381.343C905.771 380.125 907.046 379.517 908.672 379.517ZM926.579 385.414C926.579 385.772 926.558 386.109 926.515 386.424H917.824C918.025 387.133 918.408 387.695 918.974 388.11C919.539 388.526 920.227 388.733 921.036 388.733C921.688 388.733 922.286 388.604 922.83 388.347C923.374 388.082 923.804 387.749 924.119 387.348L926.031 389.023C925.437 389.732 924.699 390.284 923.818 390.678C922.945 391.072 921.989 391.269 920.95 391.269C919.776 391.269 918.712 391.011 917.76 390.495C916.807 389.979 916.062 389.271 915.525 388.368C914.988 387.459 914.72 386.452 914.72 385.35C914.72 384.261 914.978 383.273 915.493 382.385C916.016 381.49 916.732 380.788 917.642 380.279C918.558 379.771 919.572 379.517 920.682 379.517C922.365 379.517 923.768 380.079 924.893 381.203C926.017 382.32 926.579 383.724 926.579 385.414ZM922.476 382.653C921.96 382.231 921.355 382.02 920.66 382.02C919.965 382.02 919.36 382.231 918.845 382.653C918.329 383.069 917.982 383.627 917.803 384.329H923.528C923.349 383.627 922.998 383.069 922.476 382.653ZM935.001 379.517C936.326 379.517 937.386 379.914 938.181 380.709C938.983 381.497 939.384 382.549 939.384 383.867V391H936.516V384.791C936.516 384.032 936.29 383.427 935.839 382.976C935.395 382.517 934.8 382.288 934.056 382.288C933.275 382.288 932.641 382.524 932.154 382.997C931.674 383.463 931.435 384.078 931.435 384.845V391H928.577V379.785H931.435V381.031C932.337 380.021 933.526 379.517 935.001 379.517ZM948.354 382.396H945.335V387.058C945.335 388.017 945.851 388.497 946.882 388.497C947.319 388.497 947.809 388.372 948.354 388.121V390.785C947.759 391.107 947.061 391.269 946.259 391.269C945.006 391.269 944.06 390.936 943.423 390.27C942.793 389.596 942.478 388.68 942.478 387.52V382.396H940.694V379.785H942.478V376.938H945.335V379.785H948.354V382.396ZM954.229 391.269C952.41 391.269 950.835 390.696 949.503 389.55L950.889 387.659C951.841 388.49 952.933 388.905 954.165 388.905C954.752 388.905 955.229 388.812 955.594 388.626C955.966 388.44 956.152 388.182 956.152 387.853C956.152 387.674 956.099 387.516 955.991 387.38C955.891 387.244 955.726 387.126 955.497 387.025C955.268 386.925 955.046 386.843 954.831 386.778C954.623 386.714 954.33 386.639 953.95 386.553C953.692 386.495 953.488 386.449 953.338 386.413C953.188 386.377 952.98 386.324 952.715 386.252C952.457 386.173 952.246 386.102 952.081 386.037C951.924 385.973 951.734 385.887 951.512 385.779C951.29 385.665 951.107 385.55 950.964 385.436C950.828 385.321 950.681 385.181 950.523 385.017C950.373 384.852 950.251 384.676 950.158 384.49C950.072 384.304 950.001 384.089 949.943 383.846C949.886 383.602 949.857 383.341 949.857 383.062C949.857 382.295 950.069 381.64 950.491 381.096C950.914 380.551 951.462 380.154 952.135 379.903C952.815 379.646 953.581 379.517 954.434 379.517C956.088 379.517 957.538 380.007 958.784 380.988L957.398 382.9C956.482 382.213 955.515 381.869 954.498 381.869C953.982 381.869 953.56 381.951 953.23 382.116C952.901 382.281 952.736 382.521 952.736 382.836C952.736 383.015 952.786 383.173 952.887 383.309C952.987 383.438 953.152 383.552 953.381 383.652C953.61 383.745 953.832 383.824 954.047 383.889C954.262 383.946 954.559 384.014 954.938 384.093C955.268 384.164 955.533 384.225 955.733 384.275C955.934 384.326 956.195 384.404 956.518 384.512C956.84 384.619 957.101 384.727 957.302 384.834C957.509 384.941 957.731 385.088 957.968 385.274C958.211 385.453 958.401 385.647 958.537 385.854C958.673 386.062 958.788 386.316 958.881 386.617C958.981 386.918 959.031 387.244 959.031 387.595C959.031 388.361 958.816 389.027 958.387 389.593C957.957 390.159 957.384 390.581 956.668 390.86C955.952 391.132 955.139 391.269 954.229 391.269Z" fill="white"/>
<path d="M597.408 128.943C598.146 129.208 598.747 129.706 599.213 130.437C599.678 131.167 599.911 131.983 599.911 132.886C599.911 134.082 599.507 135.066 598.697 135.84C597.888 136.613 596.871 137 595.646 137H588.009V121.821H595.142C596.28 121.821 597.236 122.187 598.01 122.917C598.783 123.647 599.17 124.571 599.17 125.688C599.17 126.39 599.005 127.035 598.676 127.622C598.346 128.209 597.924 128.65 597.408 128.943ZM594.39 124.55H590.963V127.891H594.39C594.841 127.891 595.228 127.729 595.55 127.407C595.879 127.085 596.044 126.688 596.044 126.215C596.044 125.742 595.886 125.348 595.571 125.033C595.256 124.711 594.862 124.55 594.39 124.55ZM594.895 134.271C595.432 134.271 595.883 134.089 596.248 133.724C596.613 133.351 596.796 132.896 596.796 132.359C596.796 131.829 596.613 131.382 596.248 131.017C595.883 130.651 595.432 130.469 594.895 130.469H590.963V134.271H594.895ZM613.06 131.414C613.06 131.772 613.038 132.109 612.995 132.424H604.305C604.505 133.133 604.888 133.695 605.454 134.11C606.02 134.526 606.707 134.733 607.517 134.733C608.168 134.733 608.766 134.604 609.311 134.347C609.855 134.082 610.285 133.749 610.6 133.348L612.512 135.023C611.917 135.732 611.18 136.284 610.299 136.678C609.425 137.072 608.469 137.269 607.431 137.269C606.256 137.269 605.193 137.011 604.24 136.495C603.288 135.979 602.543 135.271 602.006 134.368C601.469 133.459 601.2 132.452 601.2 131.35C601.2 130.261 601.458 129.273 601.974 128.385C602.496 127.49 603.213 126.788 604.122 126.279C605.039 125.771 606.052 125.517 607.162 125.517C608.845 125.517 610.249 126.079 611.373 127.203C612.497 128.32 613.06 129.724 613.06 131.414ZM608.956 128.653C608.44 128.231 607.835 128.02 607.141 128.02C606.446 128.02 605.841 128.231 605.325 128.653C604.81 129.069 604.462 129.627 604.283 130.329H610.009C609.83 129.627 609.479 129.069 608.956 128.653ZM623.931 137.269C622.112 137.269 620.536 136.696 619.204 135.55L620.59 133.659C621.542 134.49 622.634 134.905 623.866 134.905C624.453 134.905 624.93 134.812 625.295 134.626C625.667 134.44 625.854 134.182 625.854 133.853C625.854 133.674 625.8 133.516 625.692 133.38C625.592 133.244 625.427 133.126 625.198 133.025C624.969 132.925 624.747 132.843 624.532 132.778C624.325 132.714 624.031 132.639 623.651 132.553C623.394 132.495 623.189 132.449 623.039 132.413C622.889 132.377 622.681 132.324 622.416 132.252C622.158 132.173 621.947 132.102 621.782 132.037C621.625 131.973 621.435 131.887 621.213 131.779C620.991 131.665 620.808 131.55 620.665 131.436C620.529 131.321 620.382 131.181 620.225 131.017C620.074 130.852 619.952 130.676 619.859 130.49C619.773 130.304 619.702 130.089 619.645 129.846C619.587 129.602 619.559 129.341 619.559 129.062C619.559 128.295 619.77 127.64 620.192 127.096C620.615 126.551 621.163 126.154 621.836 125.903C622.516 125.646 623.283 125.517 624.135 125.517C625.789 125.517 627.239 126.007 628.485 126.988L627.1 128.9C626.183 128.213 625.216 127.869 624.199 127.869C623.684 127.869 623.261 127.951 622.932 128.116C622.602 128.281 622.438 128.521 622.438 128.836C622.438 129.015 622.488 129.173 622.588 129.309C622.688 129.438 622.853 129.552 623.082 129.652C623.311 129.745 623.533 129.824 623.748 129.889C623.963 129.946 624.26 130.014 624.64 130.093C624.969 130.164 625.234 130.225 625.435 130.275C625.635 130.326 625.896 130.404 626.219 130.512C626.541 130.619 626.802 130.727 627.003 130.834C627.211 130.941 627.433 131.088 627.669 131.274C627.912 131.453 628.102 131.647 628.238 131.854C628.374 132.062 628.489 132.316 628.582 132.617C628.682 132.918 628.732 133.244 628.732 133.595C628.732 134.361 628.518 135.027 628.088 135.593C627.658 136.159 627.085 136.581 626.369 136.86C625.653 137.132 624.84 137.269 623.931 137.269ZM635.715 137.269C634.132 137.269 632.865 136.839 631.912 135.979C630.96 135.113 630.483 133.964 630.483 132.531V125.785H633.341V132.134C633.341 132.85 633.556 133.423 633.985 133.853C634.422 134.282 634.999 134.497 635.715 134.497C636.431 134.497 637.004 134.282 637.434 133.853C637.87 133.423 638.089 132.85 638.089 132.134V125.785H640.946V132.531C640.946 133.956 640.466 135.102 639.507 135.969C638.554 136.835 637.29 137.269 635.715 137.269ZM650.013 125.517C651.037 125.517 651.964 125.774 652.795 126.29C653.633 126.799 654.288 127.504 654.761 128.406C655.233 129.301 655.47 130.297 655.47 131.393C655.47 132.488 655.233 133.487 654.761 134.39C654.288 135.285 653.633 135.99 652.795 136.506C651.964 137.014 651.037 137.269 650.013 137.269C648.537 137.269 647.32 136.731 646.36 135.657V141.179H643.503V125.785H646.36V127.117C647.313 126.05 648.53 125.517 650.013 125.517ZM649.443 134.497C650.331 134.497 651.065 134.203 651.646 133.616C652.233 133.022 652.526 132.281 652.526 131.393C652.526 130.505 652.233 129.767 651.646 129.18C651.065 128.585 650.331 128.288 649.443 128.288C648.562 128.288 647.828 128.585 647.241 129.18C646.654 129.774 646.36 130.512 646.36 131.393C646.36 132.273 646.654 133.011 647.241 133.605C647.828 134.2 648.562 134.497 649.443 134.497ZM664.085 125.517C665.109 125.517 666.036 125.774 666.867 126.29C667.705 126.799 668.36 127.504 668.833 128.406C669.306 129.301 669.542 130.297 669.542 131.393C669.542 132.488 669.306 133.487 668.833 134.39C668.36 135.285 667.705 135.99 666.867 136.506C666.036 137.014 665.109 137.269 664.085 137.269C662.61 137.269 661.392 136.731 660.433 135.657V141.179H657.575V125.785H660.433V127.117C661.385 126.05 662.603 125.517 664.085 125.517ZM663.516 134.497C664.404 134.497 665.138 134.203 665.718 133.616C666.305 133.022 666.599 132.281 666.599 131.393C666.599 130.505 666.305 129.767 665.718 129.18C665.138 128.585 664.404 128.288 663.516 128.288C662.635 128.288 661.901 128.585 661.313 129.18C660.726 129.774 660.433 130.512 660.433 131.393C660.433 132.273 660.726 133.011 661.313 133.605C661.901 134.2 662.635 134.497 663.516 134.497ZM681.294 135.582C680.141 136.706 678.709 137.269 676.997 137.269C675.285 137.269 673.85 136.706 672.689 135.582C671.536 134.458 670.96 133.061 670.96 131.393C670.96 129.724 671.536 128.327 672.689 127.203C673.85 126.079 675.285 125.517 676.997 125.517C678.709 125.517 680.141 126.079 681.294 127.203C682.447 128.327 683.023 129.724 683.023 131.393C683.023 133.061 682.447 134.458 681.294 135.582ZM676.997 134.497C677.885 134.497 678.619 134.203 679.199 133.616C679.779 133.022 680.069 132.281 680.069 131.393C680.069 130.505 679.779 129.767 679.199 129.18C678.619 128.585 677.885 128.288 676.997 128.288C676.116 128.288 675.382 128.585 674.795 129.18C674.208 129.774 673.914 130.512 673.914 131.393C673.914 132.273 674.208 133.011 674.795 133.605C675.382 134.2 676.116 134.497 676.997 134.497ZM691.166 125.603H691.649V128.557H691.166C690.149 128.557 689.354 128.836 688.781 129.395C688.215 129.953 687.933 130.712 687.933 131.672V137H685.075V125.785H687.933V127.235C688.792 126.147 689.87 125.603 691.166 125.603ZM700.426 128.396H697.407V133.058C697.407 134.017 697.923 134.497 698.954 134.497C699.391 134.497 699.882 134.372 700.426 134.121V136.785C699.831 137.107 699.133 137.269 698.331 137.269C697.078 137.269 696.132 136.936 695.495 136.27C694.865 135.596 694.55 134.68 694.55 133.52V128.396H692.767V125.785H694.55V122.938H697.407V125.785H700.426V128.396ZM713.37 131.414C713.37 131.772 713.349 132.109 713.306 132.424H704.615C704.816 133.133 705.199 133.695 705.765 134.11C706.33 134.526 707.018 134.733 707.827 134.733C708.479 134.733 709.077 134.604 709.621 134.347C710.165 134.082 710.595 133.749 710.91 133.348L712.822 135.023C712.228 135.732 711.49 136.284 710.609 136.678C709.736 137.072 708.78 137.269 707.741 137.269C706.567 137.269 705.503 137.011 704.551 136.495C703.598 135.979 702.854 135.271 702.316 134.368C701.779 133.459 701.511 132.452 701.511 131.35C701.511 130.261 701.769 129.273 702.284 128.385C702.807 127.49 703.523 126.788 704.433 126.279C705.349 125.771 706.363 125.517 707.473 125.517C709.156 125.517 710.559 126.079 711.684 127.203C712.808 128.32 713.37 129.724 713.37 131.414ZM709.267 128.653C708.751 128.231 708.146 128.02 707.451 128.02C706.757 128.02 706.151 128.231 705.636 128.653C705.12 129.069 704.773 129.627 704.594 130.329H710.319C710.14 129.627 709.789 129.069 709.267 128.653ZM723.865 121.155H726.723V137H723.865V135.657C722.884 136.731 721.667 137.269 720.213 137.269C718.652 137.269 717.348 136.706 716.303 135.582C715.257 134.458 714.734 133.061 714.734 131.393C714.734 129.724 715.257 128.327 716.303 127.203C717.348 126.079 718.652 125.517 720.213 125.517C721.674 125.517 722.891 126.05 723.865 127.117V121.155ZM720.761 134.497C721.649 134.497 722.386 134.2 722.974 133.605C723.568 133.011 723.865 132.273 723.865 131.393C723.865 130.512 723.568 129.774 722.974 129.18C722.386 128.585 721.649 128.288 720.761 128.288C719.88 128.288 719.146 128.585 718.559 129.18C717.971 129.774 717.678 130.512 717.678 131.393C717.678 132.273 717.971 133.011 718.559 133.605C719.146 134.2 719.88 134.497 720.761 134.497ZM737.153 123.615C736.81 123.959 736.383 124.131 735.875 124.131C735.367 124.131 734.937 123.959 734.586 123.615C734.242 123.271 734.07 122.849 734.07 122.348C734.07 121.846 734.242 121.424 734.586 121.08C734.937 120.736 735.367 120.564 735.875 120.564C736.383 120.564 736.81 120.736 737.153 121.08C737.504 121.424 737.68 121.846 737.68 122.348C737.68 122.849 737.504 123.271 737.153 123.615ZM734.446 137V125.785H737.304V137H734.446ZM746.456 125.517C747.781 125.517 748.841 125.914 749.636 126.709C750.438 127.497 750.839 128.549 750.839 129.867V137H747.971V130.791C747.971 130.032 747.745 129.427 747.294 128.976C746.85 128.517 746.256 128.288 745.511 128.288C744.73 128.288 744.096 128.524 743.609 128.997C743.13 129.463 742.89 130.078 742.89 130.845V137H740.032V125.785H742.89V127.031C743.792 126.021 744.981 125.517 746.456 125.517ZM605.927 155.785H609.117L603.574 168.955C603.266 169.721 602.804 170.326 602.188 170.771C601.573 171.222 600.896 171.447 600.158 171.447C599.65 171.447 599.123 171.343 598.579 171.136C598.042 170.928 597.587 170.656 597.215 170.319L598.311 168.074C598.69 168.475 599.145 168.676 599.675 168.676C600.255 168.676 600.681 168.382 600.953 167.795L601.415 166.828L596.839 155.785H600.094L603.026 163.412L605.927 155.785ZM619.602 165.582C618.449 166.706 617.016 167.269 615.305 167.269C613.593 167.269 612.157 166.706 610.997 165.582C609.844 164.458 609.268 163.061 609.268 161.393C609.268 159.724 609.844 158.327 610.997 157.203C612.157 156.079 613.593 155.517 615.305 155.517C617.016 155.517 618.449 156.079 619.602 157.203C620.755 158.327 621.331 159.724 621.331 161.393C621.331 163.061 620.755 164.458 619.602 165.582ZM615.305 164.497C616.193 164.497 616.927 164.203 617.507 163.616C618.087 163.022 618.377 162.281 618.377 161.393C618.377 160.505 618.087 159.767 617.507 159.18C616.927 158.585 616.193 158.288 615.305 158.288C614.424 158.288 613.69 158.585 613.103 159.18C612.515 159.774 612.222 160.512 612.222 161.393C612.222 162.273 612.515 163.011 613.103 163.605C613.69 164.2 614.424 164.497 615.305 164.497ZM628.442 167.269C626.86 167.269 625.592 166.839 624.64 165.979C623.687 165.113 623.211 163.964 623.211 162.531V155.785H626.068V162.134C626.068 162.85 626.283 163.423 626.713 163.853C627.15 164.282 627.726 164.497 628.442 164.497C629.159 164.497 629.731 164.282 630.161 163.853C630.598 163.423 630.816 162.85 630.816 162.134V155.785H633.674V162.531C633.674 163.956 633.194 165.102 632.234 165.969C631.282 166.835 630.018 167.269 628.442 167.269ZM642.321 155.603H642.805V158.557H642.321C641.304 158.557 640.509 158.836 639.937 159.395C639.371 159.953 639.088 160.712 639.088 161.672V167H636.23V155.785H639.088V157.235C639.947 156.147 641.025 155.603 642.321 155.603ZM657.983 151.155H660.841V167H657.983V165.657C657.002 166.731 655.785 167.269 654.331 167.269C652.77 167.269 651.466 166.706 650.421 165.582C649.375 164.458 648.853 163.061 648.853 161.393C648.853 159.724 649.375 158.327 650.421 157.203C651.466 156.079 652.77 155.517 654.331 155.517C655.792 155.517 657.009 156.05 657.983 157.117V151.155ZM654.879 164.497C655.767 164.497 656.505 164.2 657.092 163.605C657.686 163.011 657.983 162.273 657.983 161.393C657.983 160.512 657.686 159.774 657.092 159.18C656.505 158.585 655.767 158.288 654.879 158.288C653.998 158.288 653.264 158.585 652.677 159.18C652.09 159.774 651.796 160.512 651.796 161.393C651.796 162.273 652.09 163.011 652.677 163.605C653.264 164.2 653.998 164.497 654.879 164.497ZM674.73 161.414C674.73 161.772 674.709 162.109 674.666 162.424H665.976C666.176 163.133 666.559 163.695 667.125 164.11C667.691 164.526 668.378 164.733 669.188 164.733C669.839 164.733 670.437 164.604 670.981 164.347C671.526 164.082 671.955 163.749 672.271 163.348L674.183 165.023C673.588 165.732 672.851 166.284 671.97 166.678C671.096 167.072 670.14 167.269 669.102 167.269C667.927 167.269 666.864 167.011 665.911 166.495C664.959 165.979 664.214 165.271 663.677 164.368C663.14 163.459 662.871 162.452 662.871 161.35C662.871 160.261 663.129 159.273 663.645 158.385C664.167 157.49 664.883 156.788 665.793 156.279C666.71 155.771 667.723 155.517 668.833 155.517C670.516 155.517 671.92 156.079 673.044 157.203C674.168 158.32 674.73 159.724 674.73 161.414ZM670.627 158.653C670.111 158.231 669.506 158.02 668.812 158.02C668.117 158.02 667.512 158.231 666.996 158.653C666.48 159.069 666.133 159.627 665.954 160.329H671.68C671.501 159.627 671.15 159.069 670.627 158.653ZM682.078 167.269C680.367 167.269 678.931 166.706 677.771 165.582C676.618 164.458 676.041 163.061 676.041 161.393C676.041 159.724 676.618 158.327 677.771 157.203C678.931 156.079 680.367 155.517 682.078 155.517C683.195 155.517 684.205 155.767 685.107 156.269C686.017 156.77 686.729 157.45 687.245 158.31L684.753 159.803C684.495 159.344 684.13 158.979 683.657 158.707C683.192 158.428 682.665 158.288 682.078 158.288C681.197 158.288 680.463 158.585 679.876 159.18C679.289 159.774 678.995 160.512 678.995 161.393C678.995 162.273 679.289 163.011 679.876 163.605C680.463 164.2 681.197 164.497 682.078 164.497C682.658 164.497 683.185 164.361 683.657 164.089C684.13 163.81 684.495 163.437 684.753 162.972L687.245 164.465C686.729 165.331 686.017 166.015 685.107 166.517C684.205 167.018 683.195 167.269 682.078 167.269ZM691.725 153.615C691.381 153.959 690.955 154.131 690.446 154.131C689.938 154.131 689.508 153.959 689.157 153.615C688.813 153.271 688.642 152.849 688.642 152.348C688.642 151.846 688.813 151.424 689.157 151.08C689.508 150.736 689.938 150.564 690.446 150.564C690.955 150.564 691.381 150.736 691.725 151.08C692.076 151.424 692.251 151.846 692.251 152.348C692.251 152.849 692.076 153.271 691.725 153.615ZM689.018 167V155.785H691.875V167H689.018ZM698.471 167.269C696.652 167.269 695.076 166.696 693.744 165.55L695.13 163.659C696.082 164.49 697.174 164.905 698.406 164.905C698.993 164.905 699.47 164.812 699.835 164.626C700.207 164.44 700.394 164.182 700.394 163.853C700.394 163.674 700.34 163.516 700.232 163.38C700.132 163.244 699.967 163.126 699.738 163.025C699.509 162.925 699.287 162.843 699.072 162.778C698.865 162.714 698.571 162.639 698.191 162.553C697.934 162.495 697.729 162.449 697.579 162.413C697.429 162.377 697.221 162.324 696.956 162.252C696.698 162.173 696.487 162.102 696.322 162.037C696.165 161.973 695.975 161.887 695.753 161.779C695.531 161.665 695.348 161.55 695.205 161.436C695.069 161.321 694.922 161.181 694.765 161.017C694.614 160.852 694.493 160.676 694.399 160.49C694.313 160.304 694.242 160.089 694.185 159.846C694.127 159.602 694.099 159.341 694.099 159.062C694.099 158.295 694.31 157.64 694.732 157.096C695.155 156.551 695.703 156.154 696.376 155.903C697.056 155.646 697.823 155.517 698.675 155.517C700.329 155.517 701.779 156.007 703.025 156.988L701.64 158.9C700.723 158.213 699.756 157.869 698.739 157.869C698.224 157.869 697.801 157.951 697.472 158.116C697.142 158.281 696.978 158.521 696.978 158.836C696.978 159.015 697.028 159.173 697.128 159.309C697.228 159.438 697.393 159.552 697.622 159.652C697.851 159.745 698.073 159.824 698.288 159.889C698.503 159.946 698.8 160.014 699.18 160.093C699.509 160.164 699.774 160.225 699.975 160.275C700.175 160.326 700.437 160.404 700.759 160.512C701.081 160.619 701.342 160.727 701.543 160.834C701.751 160.941 701.973 161.088 702.209 161.274C702.452 161.453 702.642 161.647 702.778 161.854C702.914 162.062 703.029 162.316 703.122 162.617C703.222 162.918 703.272 163.244 703.272 163.595C703.272 164.361 703.058 165.027 702.628 165.593C702.198 166.159 701.625 166.581 700.909 166.86C700.193 167.132 699.38 167.269 698.471 167.269ZM707.902 153.615C707.559 153.959 707.132 154.131 706.624 154.131C706.116 154.131 705.686 153.959 705.335 153.615C704.991 153.271 704.819 152.849 704.819 152.348C704.819 151.846 704.991 151.424 705.335 151.08C705.686 150.736 706.116 150.564 706.624 150.564C707.132 150.564 707.559 150.736 707.902 151.08C708.253 151.424 708.429 151.846 708.429 152.348C708.429 152.849 708.253 153.271 707.902 153.615ZM705.195 167V155.785H708.053V167H705.195ZM720.428 165.582C719.275 166.706 717.842 167.269 716.131 167.269C714.419 167.269 712.983 166.706 711.823 165.582C710.67 164.458 710.094 163.061 710.094 161.393C710.094 159.724 710.67 158.327 711.823 157.203C712.983 156.079 714.419 155.517 716.131 155.517C717.842 155.517 719.275 156.079 720.428 157.203C721.581 158.327 722.157 159.724 722.157 161.393C722.157 163.061 721.581 164.458 720.428 165.582ZM716.131 164.497C717.019 164.497 717.753 164.203 718.333 163.616C718.913 163.022 719.203 162.281 719.203 161.393C719.203 160.505 718.913 159.767 718.333 159.18C717.753 158.585 717.019 158.288 716.131 158.288C715.25 158.288 714.516 158.585 713.929 159.18C713.341 159.774 713.048 160.512 713.048 161.393C713.048 162.273 713.341 163.011 713.929 163.605C714.516 164.2 715.25 164.497 716.131 164.497ZM730.633 155.517C731.958 155.517 733.018 155.914 733.812 156.709C734.615 157.497 735.016 158.549 735.016 159.867V167H732.147V160.791C732.147 160.032 731.922 159.427 731.471 158.976C731.027 158.517 730.432 158.288 729.688 158.288C728.907 158.288 728.273 158.524 727.786 158.997C727.306 159.463 727.066 160.078 727.066 160.845V167H724.209V155.785H727.066V157.031C727.969 156.021 729.158 155.517 730.633 155.517ZM741.418 167.269C739.599 167.269 738.023 166.696 736.691 165.55L738.077 163.659C739.03 164.49 740.122 164.905 741.354 164.905C741.941 164.905 742.417 164.812 742.782 164.626C743.155 164.44 743.341 164.182 743.341 163.853C743.341 163.674 743.287 163.516 743.18 163.38C743.079 163.244 742.915 163.126 742.686 163.025C742.456 162.925 742.234 162.843 742.02 162.778C741.812 162.714 741.518 162.639 741.139 162.553C740.881 162.495 740.677 162.449 740.526 162.413C740.376 162.377 740.168 162.324 739.903 162.252C739.646 162.173 739.434 162.102 739.27 162.037C739.112 161.973 738.922 161.887 738.7 161.779C738.478 161.665 738.296 161.55 738.152 161.436C738.016 161.321 737.869 161.181 737.712 161.017C737.562 160.852 737.44 160.676 737.347 160.49C737.261 160.304 737.189 160.089 737.132 159.846C737.075 159.602 737.046 159.341 737.046 159.062C737.046 158.295 737.257 157.64 737.68 157.096C738.102 156.551 738.65 156.154 739.323 155.903C740.004 155.646 740.77 155.517 741.622 155.517C743.276 155.517 744.727 156.007 745.973 156.988L744.587 158.9C743.67 158.213 742.703 157.869 741.687 157.869C741.171 157.869 740.748 157.951 740.419 158.116C740.09 158.281 739.925 158.521 739.925 158.836C739.925 159.015 739.975 159.173 740.075 159.309C740.175 159.438 740.34 159.552 740.569 159.652C740.799 159.745 741.021 159.824 741.235 159.889C741.45 159.946 741.747 160.014 742.127 160.093C742.456 160.164 742.721 160.225 742.922 160.275C743.122 160.326 743.384 160.404 743.706 160.512C744.028 160.619 744.29 160.727 744.49 160.834C744.698 160.941 744.92 161.088 745.156 161.274C745.4 161.453 745.59 161.647 745.726 161.854C745.862 162.062 745.976 162.316 746.069 162.617C746.17 162.918 746.22 163.244 746.22 163.595C746.22 164.361 746.005 165.027 745.575 165.593C745.146 166.159 744.573 166.581 743.856 166.86C743.14 167.132 742.327 167.269 741.418 167.269Z" fill="white"/>
</svg>
