<svg width="64" height="64" viewBox="0 0 64 64" fill="none" xmlns="http://www.w3.org/2000/svg">
<rect width="64" height="64" rx="16" fill="#333333"/>
<rect x="0.5" y="0.5" width="63" height="63" rx="15.5" stroke="url(#paint0_linear_171_1356)" stroke-opacity="0.6"/>
<path d="M18.3333 17.3334H35C36.288 17.3334 37.3333 18.3787 37.3333 19.6667V32.3334C37.3333 32.9522 37.0875 33.5457 36.6499 33.9833C36.2123 34.4209 35.6188 34.6667 35 34.6667H26.748L23.316 38.0974C23.0441 38.3683 22.698 38.5526 22.3215 38.6271C21.945 38.7017 21.5548 38.6631 21.2002 38.5162C20.8455 38.3693 20.5423 38.1208 20.3287 37.8018C20.1151 37.4829 20.0008 37.1079 20 36.724V34.6667H18.3333C17.7145 34.6667 17.121 34.4209 16.6834 33.9833C16.2458 33.5457 16 32.9522 16 32.3334V19.6667C16 18.3787 17.0453 17.3334 18.3333 17.3334ZM18 19.6667V32.3334C18 32.5174 18.1493 32.6667 18.3333 32.6667H21C21.2652 32.6667 21.5196 32.7721 21.7071 32.9596C21.8946 33.1471 22 33.4015 22 33.6667V36.5867L25.6267 32.96C25.814 32.7725 26.0682 32.6669 26.3333 32.6667H35C35.0884 32.6667 35.1732 32.6316 35.2357 32.5691C35.2982 32.5066 35.3333 32.4218 35.3333 32.3334V19.6667C35.3333 19.5783 35.2982 19.4935 35.2357 19.431C35.1732 19.3685 35.0884 19.3334 35 19.3334H18.3333C18.2449 19.3334 18.1601 19.3685 18.0976 19.431C18.0351 19.4935 18 19.5783 18 19.6667Z" fill="#68ADF9"/>
<path d="M46 27.6667C46 27.5783 45.9649 27.4935 45.9024 27.431C45.8399 27.3685 45.7551 27.3334 45.6667 27.3334H41C40.7348 27.3334 40.4804 27.228 40.2929 27.0405C40.1054 26.8529 40 26.5986 40 26.3334C40 26.0682 40.1054 25.8138 40.2929 25.6263C40.4804 25.4387 40.7348 25.3334 41 25.3334H45.6667C46.9547 25.3334 48 26.3787 48 27.6667V40.3334C48 40.9522 47.7542 41.5457 47.3166 41.9833C46.879 42.4209 46.2855 42.6667 45.6667 42.6667H44V44.724C43.9999 45.1082 43.8859 45.4836 43.6724 45.803C43.4589 46.1223 43.1556 46.3712 42.8007 46.5182C42.4458 46.6652 42.0553 46.7036 41.6785 46.6287C41.3018 46.5538 40.9557 46.3689 40.684 46.0974L37.252 42.6667H30.3333C29.7145 42.6667 29.121 42.4209 28.6834 41.9833C28.2458 41.5457 28 40.9522 28 40.3334V38.38C28 38.1148 28.1054 37.8605 28.2929 37.6729C28.4804 37.4854 28.7348 37.38 29 37.38C29.2652 37.38 29.5196 37.4854 29.7071 37.6729C29.8946 37.8605 30 38.1148 30 38.38V40.3334C30 40.5174 30.1493 40.6667 30.3333 40.6667H37.6667C37.9318 40.6669 38.186 40.7724 38.3733 40.96L42 44.5867V41.6667C42 41.4015 42.1054 41.1471 42.2929 40.9596C42.4804 40.7721 42.7348 40.6667 43 40.6667H45.6667C45.7551 40.6667 45.8399 40.6316 45.9024 40.5691C45.9649 40.5066 46 40.4218 46 40.3334V27.6667Z" fill="#68ADF9"/>
<defs>
<linearGradient id="paint0_linear_171_1356" x1="93.5" y1="87.5676" x2="-41.5861" y2="47.9527" gradientUnits="userSpaceOnUse">
<stop stop-color="white" stop-opacity="0.2"/>
<stop offset="0.575" stop-color="#313131"/>
<stop offset="1" stop-color="white" stop-opacity="0.6"/>
</linearGradient>
</defs>
</svg>
