<svg width="12" height="16" viewBox="0 0 12 16" fill="none" xmlns="http://www.w3.org/2000/svg">
<path d="M7.34344 14.3482L6.76657 14.9241L7.34344 15.5L7.92031 14.9241L7.34344 14.3482ZM0.815939 0.499999C0.599539 0.499999 0.392002 0.585822 0.238983 0.738588C0.0859655 0.891355 1.25901e-06 1.09855 1.24013e-06 1.3146C1.22124e-06 1.53064 0.0859654 1.73784 0.238983 1.8906C0.392001 2.04337 0.599539 2.12919 0.815939 2.12919L0.815939 0.499999ZM2.68688 10.8511L6.76657 14.9241L7.92031 13.7722L3.84062 9.69925L2.68688 10.8511ZM7.92031 14.9241L12 10.8511L10.8463 9.69925L6.76657 13.7722L7.92031 14.9241ZM8.15938 14.3482L8.15938 6.20218L6.5275 6.20218L6.5275 14.3482L8.15938 14.3482ZM2.44782 0.499999L0.815939 0.499999L0.815939 2.12919L2.44782 2.12919L2.44782 0.499999ZM8.15938 6.20218C8.15938 4.68987 7.55763 3.2395 6.4865 2.17013C5.41538 1.10076 3.96262 0.499999 2.44782 0.499999L2.44782 2.12919C3.52982 2.12919 4.5675 2.55831 5.33259 3.32214C6.09768 4.08598 6.5275 5.12196 6.5275 6.20218L8.15938 6.20218Z" fill="#EA4335"/>
</svg>
