<svg width="174" height="50" viewBox="0 0 174 50" fill="none" xmlns="http://www.w3.org/2000/svg">
<path d="M127.403 18.2084C122.249 18.2084 118.961 21.6899 118.961 26.5226C118.961 31.615 122.213 34.9953 127.693 34.9953C130.11 34.9953 132.847 34.159 134.524 32.416L132.011 29.9337C131.109 30.8668 129.207 31.4169 127.759 31.4169C124.986 31.4169 123.279 29.9997 123.023 28.0323H135.431C136.043 21.4918 132.724 18.204 127.407 18.204L127.403 18.2084ZM123.085 24.7796C123.666 22.7154 125.404 21.6855 127.53 21.6855C129.784 21.6855 131.399 22.7154 131.654 24.7796H123.085ZM167.006 12.0552V20.8536C166.073 19.2119 163.463 18.3096 161.786 18.3096C157.147 18.3096 153.697 21.1441 153.697 26.6238C153.697 32.1035 157.209 34.938 161.883 34.938C163.815 34.938 165.783 34.2954 167.006 32.394L167.262 34.5859H170.937V12.0552H167.006ZM162.138 31.2893C159.625 31.2893 157.627 29.3879 157.627 26.615C157.627 23.8421 159.625 21.976 162.138 21.976C164.652 21.976 166.747 23.8465 166.747 26.615C166.747 29.3835 164.621 31.2893 162.138 31.2893ZM67.3722 12.02H48.8115V15.8888H55.9638V34.5771H60.2155V15.8888H67.3678V12.02H67.3722ZM69.8501 18.3712C64.793 18.3712 61.6328 22.108 61.6328 26.6546C61.6328 31.2013 64.7269 34.938 69.881 34.938C75.035 34.938 78.1644 31.2321 78.1644 26.6546C78.1644 22.0772 74.9117 18.3712 69.8501 18.3712ZM69.8854 31.3245C67.0157 31.3245 65.5676 29.071 65.5676 26.6502C65.5676 24.2295 67.0509 21.9451 69.8854 21.9451C72.5262 21.9451 74.2031 24.2647 74.2031 26.6502C74.2031 29.0358 72.7551 31.3245 69.8854 31.3245ZM144.674 18.2084C139.52 18.2084 136.232 21.6899 136.232 26.5226C136.232 31.615 139.484 34.9953 144.964 34.9953C147.381 34.9953 150.118 34.159 151.795 32.416L149.282 29.9337C148.38 30.8668 146.478 31.4169 145.03 31.4169C142.257 31.4169 140.55 29.9997 140.294 28.0323H152.702C153.314 21.4918 149.995 18.204 144.678 18.204L144.674 18.2084ZM140.356 24.7796C140.937 22.7154 142.675 21.6855 144.801 21.6855C147.055 21.6855 148.67 22.7154 148.925 24.7796H140.356ZM102.236 34.5771H106.487V26.2321H117.799V22.3017H106.487V16.1485H118.441V12.0552H102.231V34.5771H102.236ZM88.961 18.336C87.1564 18.336 85.0305 19.1107 83.8069 20.88L83.5473 18.6881H79.8721V41.2144H83.8025V32.7065C84.9293 34.4451 87.4117 34.96 89.0886 34.96C94.181 34.96 97.1123 31.2849 97.1123 26.6458C97.1123 22.0068 93.8597 18.3316 88.961 18.3316V18.336ZM88.6705 31.1617C85.9944 31.1617 84.1591 29.1326 84.1591 26.6502C84.1591 24.1678 85.836 22.1388 88.6705 22.1388C91.505 22.1388 93.1819 24.1678 93.1819 26.6502C93.1819 29.1326 91.3465 31.1617 88.6705 31.1617Z" fill="url(#paint0_linear_171_2963)"/>
<path d="M35.4401 13.992H28.6575C26.9982 13.992 25.6426 15.2728 25.515 16.8969H25.5017C25.5017 17.8608 25.5017 21.065 22.434 21.5007C20.8803 21.6988 19.6787 23.0236 19.6787 24.6257V37.7198C23.1646 37.7198 25.9903 34.8941 25.9903 31.4082V24.6257C25.9903 24.5289 25.9859 24.432 25.9771 24.3352C25.9771 24.3352 25.9771 24.322 25.9771 24.3176C25.9771 24.3044 25.9771 24.2956 25.9771 24.2824C25.9331 23.8555 25.7262 20.8053 28.3979 20.2815C28.3979 20.2815 28.3979 20.2815 28.4023 20.2815C28.4859 20.2903 28.5695 20.2947 28.6575 20.2947H41.7517C41.7517 16.8088 38.926 13.9832 35.4401 13.9832V13.992Z" fill="url(#paint1_linear_171_2963)"/>
<path d="M10.3127 37.1344C2.9316 28.4856 3.95712 15.4443 12.6058 8.06321C21.2502 0.677687 34.2959 1.70761 41.677 10.3519C49.0625 19.0007 48.0326 32.042 39.3839 39.4231C30.7352 46.8042 17.6939 45.7787 10.3127 37.13V37.1344ZM39.9825 11.8C33.398 4.08436 21.7607 3.16887 14.0495 9.75335C6.33387 16.3378 5.41838 27.9751 12.0029 35.6863C18.5873 43.4019 30.2246 44.3174 37.9358 37.733C45.6471 31.1485 46.5669 19.5112 39.9825 11.8Z" fill="url(#paint2_linear_171_2963)"/>
<path d="M24.2212 15.0221V13.9922H15.5461C12.7204 13.9922 10.4316 16.2809 10.4316 19.1066V20.3038H18.9395C21.8576 20.3038 24.2212 17.9402 24.2212 15.0221Z" fill="white"/>
<path d="M31.6191 28.2482C32.9852 28.2482 34.0927 27.1407 34.0927 25.7746C34.0927 24.4085 32.9852 23.301 31.6191 23.301C30.253 23.301 29.1455 24.4085 29.1455 25.7746C29.1455 27.1407 30.253 28.2482 31.6191 28.2482Z" fill="white"/>
<defs>
<linearGradient id="paint0_linear_171_2963" x1="48.8115" y1="26.6172" x2="171" y2="27" gradientUnits="userSpaceOnUse">
<stop stop-color="white"/>
<stop offset="0.445" stop-color="#55A3F8"/>
<stop offset="1" stop-color="#7567D9"/>
</linearGradient>
<linearGradient id="paint1_linear_171_2963" x1="19.6787" y1="25.8515" x2="36" y2="32" gradientUnits="userSpaceOnUse">
<stop stop-color="white"/>
<stop offset="0.445" stop-color="#55A3F8"/>
<stop offset="1" stop-color="#7567D9"/>
</linearGradient>
<linearGradient id="paint2_linear_171_2963" x1="14.9474" y1="12.6979" x2="38.2439" y2="35.9944" gradientUnits="userSpaceOnUse">
<stop stop-color="#DBEBFD"/>
<stop offset="0.45" stop-color="#6498F0"/>
<stop offset="1" stop-color="#7469DA"/>
</linearGradient>
</defs>
</svg>
