<svg width="142" height="32" viewBox="0 0 142 32" fill="none" xmlns="http://www.w3.org/2000/svg">
<path d="M0.234375 8.70312C0.234375 8.70312 0.210938 8.53906 0.210938 8.25781V8H12.8203L12.8438 8.46875C12.8906 9.52344 12.9609 10.8828 13.0078 11.9375C12.8438 11.9375 12.7266 11.9141 12.7266 11.9141L12.4922 11.4688C11.6719 9.89844 9.46875 8.9375 6.96094 8.9375H5.50781V15.0078C7.78125 14.9141 9.60938 14.3984 10.2891 13.625L10.5 13.3906C10.5 13.3906 10.7812 13.3672 11.0391 13.3672V17.8672C10.7812 17.8672 10.5 17.8438 10.5 17.8438L10.2891 17.5625C9.63281 16.6719 7.78125 16.1094 5.50781 15.9922V22.0625H6.96094C9.46875 22.0625 11.7656 21.0547 12.8906 19.5312L13.2188 19.0859C13.2188 19.0859 13.3125 19.0625 13.4766 19.0625C13.2656 20.1172 12.9844 21.4766 12.7734 22.5312L12.6797 23H0.210938V22.7422C0.210938 22.4609 0.234375 22.2969 0.234375 22.2969L0.445312 22.2734C1.28906 22.1797 1.82812 20.75 1.82812 18.6641V12.3359C1.82812 10.25 1.28906 8.82031 0.445312 8.72656L0.234375 8.70312ZM14.4609 18.1953C14.4609 14.5391 16.875 12.1953 20.6719 12.1953C23.1562 12.1953 24.8438 13.1094 24.9609 14.5625C24.9609 15.4766 24.375 16.0625 23.5078 16.0625C22.5703 16.0625 21.9375 15.4062 21.8438 14.375C21.7734 13.625 21.1875 13.1562 20.3203 13.1562C18.8906 13.1562 17.9766 14.6094 17.9766 16.8828C17.9766 19.4141 19.3359 21.5703 22.3594 21.3125C22.9219 21.2656 24.0938 20.75 24.6094 19.5781L24.9844 19.9062C23.8828 22.2031 21.3047 23.1172 19.7344 23.1172C16.5234 23.1172 14.4609 21.1953 14.4609 18.1953ZM31.5469 23.1172C27.9141 23.1172 25.6172 20.9844 25.6172 17.6562C25.6172 14.3281 27.9141 12.1953 31.5469 12.1953C35.1328 12.1953 37.4297 14.3281 37.4297 17.6562C37.4297 20.9844 35.1328 23.1172 31.5469 23.1172ZM29.2266 17.6562C29.2266 20.5156 30.1406 22.3438 31.5469 22.3438C32.9531 22.3438 33.8672 20.5156 33.8672 17.6562C33.8672 14.7969 32.9531 12.9688 31.5469 12.9688C30.1406 12.9688 29.2266 14.7969 29.2266 17.6562ZM37.8047 23V22.7422C37.8047 22.4609 37.8281 22.2969 37.8281 22.2969L38.0391 22.2734C38.9297 22.1797 39.4219 20.6328 39.4219 18.5C39.4219 15.5938 39.1875 15.0312 38.0391 14.3984L37.8281 14.2812C37.8281 14.2812 37.8047 14.1875 37.8047 14.0469L42.0469 12.3125H42.7031V13.9297C43.3125 13.0859 44.7891 12.1953 46.6875 12.1953C48.0469 12.1953 48.7734 12.9453 49.0547 14.2344C49.875 13.3672 51.7734 12.1953 53.5078 12.1953C55.3594 12.1953 56.0391 13.6016 56.0391 15.8047V18.6641C56.0391 20.75 56.5547 22.1797 57.3984 22.2734L57.6328 22.2969V23H51.0938V22.2969L51.375 22.2734C52.2188 22.2031 52.7344 20.75 52.7344 18.6641V16.1562C52.7344 15.0078 52.0781 13.7656 51.0938 13.7656C50.5312 13.7656 49.875 14.1406 49.1953 15.1719C49.2188 15.3828 49.2188 15.5938 49.2188 15.8047V18.6641C49.2188 20.75 49.7344 22.2031 50.5781 22.2734L50.8828 22.2969V23H44.5312V22.2969L44.6484 22.2734C45.4922 22.1094 45.9141 20.75 45.9141 18.6641V16.1562C45.9141 14.9844 45.3281 13.6484 44.3672 13.6484C43.8984 13.6484 43.3359 14 42.7031 14.8906V18.6641C42.7031 20.75 43.2422 22.1797 44.0859 22.2734L44.3203 22.2969V23H37.8047ZM58.3359 22.1797L58.2188 19.3672C58.2891 19.3672 58.3594 19.3906 58.5 19.3906C58.9688 20.6797 60.2109 22.4609 61.9219 22.4609C63.0469 22.4609 63.7734 21.8281 63.7734 20.8438C63.7734 20.1875 63 19.4609 61.8047 18.9922C59.6953 18.1719 58.3125 16.7188 58.3125 15.5C58.3125 13.4844 60.1875 11.9609 63.2344 11.9609C64.1953 11.9609 65.7891 12.3125 66.5156 13.1328L66.4219 15.7109H66.0703C65.4609 14.5156 64.7109 12.8047 63.3281 12.7344C61.9453 12.6641 61.0781 13.5078 61.0547 14.3281C61.0312 15.125 62.3203 15.6641 64.3125 16.4609C65.7891 17.0469 66.7031 18.3359 66.7031 19.6016C66.7031 21.8281 64.7578 23.2344 61.6875 23.2344C60.3984 23.2344 59.1094 22.8125 58.3359 22.1797ZM66.3047 13.0156V12.3125H72.9141V12.5703C72.9141 12.8516 72.8906 13.0156 72.8906 13.0156L72.6797 13.0391C72 13.1094 72.1641 14.3516 73.0547 16.1797L74.8125 19.4141L76.9688 14.6562C76.2188 13.6016 75.7031 13.0859 75.0703 13.0156V12.3125H81.7031V12.5703C81.7031 12.8516 81.6797 13.0156 81.6797 13.0156L81.4453 13.0391C80.6484 13.1094 80.8359 14.5625 81.9844 16.6484C82.4766 17.5391 82.9922 18.4766 83.4609 19.3906L84.7266 16.6484C85.6875 14.5625 85.6641 13.1094 84.75 13.0391L84.4453 13.0156V12.5703C84.4453 12.4062 84.4219 12.3125 84.4219 12.3125H89.0391V13.0156L88.7812 13.0391C87.8906 13.1094 86.6484 14.5859 85.5938 16.6484L82.2656 23.2344H81.7266L78.1641 16.6484C77.9297 16.1562 77.6484 15.7109 77.3906 15.2891L73.6172 23.2344H73.0781L69.5391 16.6484C68.4375 14.5859 67.2422 13.1094 66.5156 13.0391L66.3047 13.0156ZM88.4297 20.3516C88.4297 17.6094 92.2734 17.0703 94.3359 16.9766V15.1484C94.3359 13.9531 94.0078 13.1797 93.4922 13.1797C92.4609 13.1797 91.9688 14.3047 92.1797 15.9453C91.5469 16.1094 91.0547 16.2031 90.5391 16.2031C90.0469 16.2031 89.5312 16.1094 88.8516 15.9453C88.5469 13.7422 90.8203 12.125 94.2422 12.2422C96.4219 12.3125 97.8281 13.6719 97.8281 15.9219V19.9766C97.8281 20.9844 98.0156 21.6406 98.7422 21.6406C99.2812 21.6406 99.5625 21.4531 99.7266 21.1484L100.078 21.5938C99.5156 22.625 98.5781 23.2812 96.4922 23.2812C95.5547 23.2812 94.8281 22.8594 94.5703 22.1328C93.7734 22.6484 92.5781 23.1641 91.3359 23.1641C89.5781 23.1641 88.4297 21.8047 88.4297 20.3516ZM91.7344 19.8125C91.7344 20.8906 92.5312 21.5 93.375 21.5C93.7031 21.5 94.0547 21.4062 94.3594 21.1953L94.3359 17.6328C93.0469 17.6328 91.7344 18.2422 91.7344 19.8125ZM99.1172 28.8594V28.6016C99.1172 28.3203 99.1406 28.1562 99.1406 28.1562L99.3516 28.1328C100.195 28.0391 100.711 26.6094 100.711 24.5234V18.5C100.711 15.5938 100.5 15.0312 99.3516 14.3984L99.1406 14.2812C99.1406 14.2812 99.1172 14.1875 99.1172 14.0469L103.359 12.3125H104.016V13.3906C104.508 12.7578 105.891 12.1953 107.531 12.1953C110.18 12.1953 112.266 14.7266 112.125 18.3359C111.984 21.6641 109.031 23.3516 106.5 23.3516C105.562 23.3516 104.672 23.1172 104.016 22.625V24.1484C104.016 26.2344 104.531 28.0391 105.375 28.1328L105.609 28.1562C105.609 28.1562 105.633 28.3203 105.633 28.6016V28.8594H99.1172ZM104.953 13.7422C104.484 13.8359 104.156 14.0938 104.016 14.3047V19.625C104.016 19.7891 104.016 19.9297 104.039 20.0703V20.8672C104.367 21.6641 105.07 22.1797 105.727 22.2031C107.367 22.25 108.422 21.0312 108.422 18.9219C108.422 15.8984 106.828 13.3672 104.953 13.7422Z" fill="#190041"/>
</svg>
