<svg width="24" height="24" viewBox="0 0 24 24" fill="none" xmlns="http://www.w3.org/2000/svg">
<path fill-rule="evenodd" clip-rule="evenodd" d="M21.9998 8.37702C21.998 8.57258 21.9186 8.75941 21.7791 8.89647C21.6396 9.03353 21.4514 9.10962 21.2558 9.10802H16.2938C16.1969 9.10894 16.1008 9.09077 16.0109 9.05453C15.921 9.01829 15.8391 8.9647 15.7699 8.89682C15.7007 8.82894 15.6456 8.7481 15.6077 8.65891C15.5697 8.56972 15.5497 8.47394 15.5488 8.37702C15.5488 7.97302 15.8828 7.64502 16.2938 7.64502H21.2558C21.6658 7.64502 21.9998 7.97302 21.9998 8.37702ZM21.9998 12.766C21.998 12.9616 21.9186 13.1484 21.7791 13.2855C21.6396 13.4225 21.4514 13.4986 21.2558 13.497H17.2858C17.0903 13.4986 16.9021 13.4225 16.7626 13.2855C16.6231 13.1484 16.5437 12.9616 16.5418 12.766C16.5418 12.362 16.8748 12.034 17.2858 12.034H21.2558C21.6658 12.034 21.9998 12.362 21.9998 12.766Z" fill="#F38744"/>
<path d="M12.5871 8.238L12.9511 8.595C14.4691 10.087 15.2291 10.834 15.2281 11.642C15.2281 11.907 15.1731 12.168 15.0671 12.411C14.7421 13.154 13.7441 13.544 11.7491 14.325L11.6041 14.381C11.0391 14.602 10.7561 14.713 10.5281 14.891C10.3557 15.0254 10.207 15.1876 10.0881 15.371C9.9311 15.611 9.8481 15.9 9.6811 16.475C9.4231 17.368 9.2951 17.815 9.0201 18.012C8.81464 18.1595 8.56111 18.2242 8.3101 18.193C7.9721 18.153 7.6381 17.824 6.9701 17.168L5.9441 16.158L3.2711 18.786C3.13027 18.9234 2.94133 19.0003 2.7446 19.0003C2.54787 19.0003 2.35893 18.9234 2.2181 18.786C2.14907 18.7186 2.09421 18.6382 2.05675 18.5493C2.0193 18.4604 2 18.3649 2 18.2685C2 18.1721 2.0193 18.0766 2.05675 17.9877C2.09421 17.8988 2.14907 17.8184 2.2181 17.751L4.8811 15.114L3.8641 14.114C3.1971 13.459 2.8631 13.131 2.8211 12.798C2.78988 12.5506 2.85584 12.3007 3.0051 12.101C3.2071 11.831 3.6611 11.704 4.5691 11.451C5.1551 11.288 5.4481 11.206 5.6931 11.052C5.87882 10.9359 6.04377 10.7896 6.1811 10.619C6.3621 10.395 6.4751 10.117 6.7001 9.561L6.7571 9.419C7.5511 7.459 7.9481 6.478 8.7051 6.159C8.9521 6.054 9.2181 6 9.4861 6C10.3101 6 11.0691 6.745 12.5871 8.238Z" fill="#F38744"/>
<path fill-rule="evenodd" clip-rule="evenodd" d="M22.0001 17.1551C21.9982 17.3507 21.9188 17.5375 21.7793 17.6745C21.6398 17.8116 21.4516 17.8877 21.2561 17.8861H12.3241C12.1285 17.8877 11.9403 17.8116 11.8008 17.6745C11.6613 17.5375 11.5819 17.3507 11.5801 17.1551C11.5801 16.7511 11.9131 16.4231 12.3241 16.4231H21.2561C21.6661 16.4231 22.0001 16.7511 22.0001 17.1551Z" fill="#F38744"/>
</svg>
