<svg width="64" height="64" viewBox="0 0 64 64" fill="none" xmlns="http://www.w3.org/2000/svg">
<rect width="64" height="64" rx="16" fill="#333333"/>
<rect x="0.5" y="0.5" width="63" height="63" rx="15.5" stroke="url(#paint0_linear_171_1345)" stroke-opacity="0.6"/>
<path d="M29.6 25.6H42.4M29.6 32H33.6M42.4 32H38.4M29.6 38.4001H33.6M42.4 38.4001H38.4M24 24.8H22.4C19.3824 24.8 17.8752 24.8 16.9376 25.7376C16 26.6752 16 28.1824 16 31.2V41.6001C16 42.6609 16.4214 43.6783 17.1716 44.4285C17.9217 45.1786 18.9391 45.6001 20 45.6001C21.0609 45.6001 22.0783 45.1786 22.8284 44.4285C23.5786 43.6783 24 42.6609 24 41.6001V24.8Z" stroke="#68ADF9" stroke-width="2" stroke-linecap="round" stroke-linejoin="round"/>
<path d="M38.4 18.4H30.4C28.912 18.4 28.168 18.4 27.5584 18.5632C26.7442 18.7812 26.0018 19.2098 25.4058 19.8058C24.8098 20.4018 24.3812 21.1442 24.1632 21.9584C24 22.568 24 23.312 24 24.8V41.6C24 42.1253 23.8965 42.6455 23.6955 43.1308C23.4945 43.6161 23.1999 44.057 22.8284 44.4285C22.457 44.7999 22.016 45.0945 21.5307 45.2955C21.0454 45.4966 20.5253 45.6 20 45.6H38.4C42.9248 45.6 45.1888 45.6 46.5936 44.1936C48 42.7888 48 40.5248 48 36V28C48 23.4752 48 21.2112 46.5936 19.8064C45.1888 18.4 42.9248 18.4 38.4 18.4Z" stroke="#68ADF9" stroke-width="2" stroke-linecap="round" stroke-linejoin="round"/>
<defs>
<linearGradient id="paint0_linear_171_1345" x1="93.5" y1="87.5676" x2="-41.5861" y2="47.9527" gradientUnits="userSpaceOnUse">
<stop stop-color="white" stop-opacity="0.2"/>
<stop offset="0.575" stop-color="#313131"/>
<stop offset="1" stop-color="white" stop-opacity="0.6"/>
</linearGradient>
</defs>
</svg>
