<svg width="1568" height="48" viewBox="0 0 1568 48" fill="none" xmlns="http://www.w3.org/2000/svg">
<g style="mix-blend-mode:luminosity" opacity="0.7">
<path fill-rule="evenodd" clip-rule="evenodd" d="M28.5 46C40.6503 46 50.5 36.1503 50.5 24C50.5 11.8497 40.6503 2 28.5 2C16.3497 2 6.5 11.8497 6.5 24C6.5 36.1503 16.3497 46 28.5 46ZM35.3632 12.2485C35.6973 11.0619 34.5457 10.3601 33.494 11.1094L18.8124 21.5685C17.6718 22.3811 17.8512 24 19.0819 24H22.948V23.9701H30.4828L24.3433 26.1363L21.6368 35.7515C21.3027 36.9382 22.4542 37.6399 23.506 36.8906L38.1876 26.4315C39.3282 25.619 39.1487 24 37.9181 24H32.0553L35.3632 12.2485Z" fill="white"/>
<path d="M61.88 33.9092V30.4292H64.64V16.3892H61.88V12.9092H72.68C73.96 12.9092 75.07 13.1292 76.01 13.5692C76.97 13.9892 77.71 14.5992 78.23 15.3992C78.77 16.1792 79.04 17.1192 79.04 18.2192V18.5192C79.04 19.4792 78.86 20.2692 78.5 20.8892C78.14 21.4892 77.71 21.9592 77.21 22.2992C76.73 22.6192 76.27 22.8492 75.83 22.9892V23.5292C76.27 23.6492 76.75 23.8792 77.27 24.2192C77.79 24.5392 78.23 25.0092 78.59 25.6292C78.97 26.2492 79.16 27.0592 79.16 28.0592V28.3592C79.16 29.5192 78.89 30.5192 78.35 31.3592C77.81 32.1792 77.06 32.8092 76.1 33.2492C75.16 33.6892 74.06 33.9092 72.8 33.9092H61.88ZM68.6 30.3092H72.32C73.18 30.3092 73.87 30.0992 74.39 29.6792C74.93 29.2592 75.2 28.6592 75.2 27.8792V27.5792C75.2 26.7992 74.94 26.1992 74.42 25.7792C73.9 25.3592 73.2 25.1492 72.32 25.1492H68.6V30.3092ZM68.6 21.5492H72.26C73.08 21.5492 73.75 21.3392 74.27 20.9192C74.81 20.4992 75.08 19.9192 75.08 19.1792V18.8792C75.08 18.1192 74.82 17.5392 74.3 17.1392C73.78 16.7192 73.1 16.5092 72.26 16.5092H68.6V21.5492Z" fill="white"/>
<path d="M88.1019 34.3292C86.6219 34.3292 85.2919 34.0292 84.1119 33.4292C82.9319 32.8292 82.0019 31.9592 81.3219 30.8192C80.6419 29.6792 80.3019 28.3092 80.3019 26.7092V26.2292C80.3019 24.6292 80.6419 23.2592 81.3219 22.1192C82.0019 20.9792 82.9319 20.1092 84.1119 19.5092C85.2919 18.9092 86.6219 18.6092 88.1019 18.6092C89.5819 18.6092 90.9119 18.9092 92.0919 19.5092C93.2719 20.1092 94.2019 20.9792 94.8819 22.1192C95.5619 23.2592 95.9019 24.6292 95.9019 26.2292V26.7092C95.9019 28.3092 95.5619 29.6792 94.8819 30.8192C94.2019 31.9592 93.2719 32.8292 92.0919 33.4292C90.9119 34.0292 89.5819 34.3292 88.1019 34.3292ZM88.1019 30.9692C89.2619 30.9692 90.2219 30.5992 90.9819 29.8592C91.7419 29.0992 92.1219 28.0192 92.1219 26.6192V26.3192C92.1219 24.9192 91.7419 23.8492 90.9819 23.1092C90.2419 22.3492 89.2819 21.9692 88.1019 21.9692C86.9419 21.9692 85.9819 22.3492 85.2219 23.1092C84.4619 23.8492 84.0819 24.9192 84.0819 26.3192V26.6192C84.0819 28.0192 84.4619 29.0992 85.2219 29.8592C85.9819 30.5992 86.9419 30.9692 88.1019 30.9692Z" fill="white"/>
<path d="M97.891 33.9092V12.9092H101.671V33.9092H97.891Z" fill="white"/>
<path d="M110.06 33.9092C109.08 33.9092 108.28 33.6092 107.66 33.0092C107.06 32.3892 106.76 31.5692 106.76 30.5492V22.1492H103.04V19.0292H106.76V14.4092H110.54V19.0292H114.62V22.1492H110.54V29.8892C110.54 30.4892 110.82 30.7892 111.38 30.7892H114.26V33.9092H110.06Z" fill="white"/>
<path d="M122.721 34.3292C120.781 34.3292 119.191 33.9092 117.951 33.0692C116.711 32.2292 115.961 31.0292 115.701 29.4692L119.181 28.5692C119.321 29.2692 119.551 29.8192 119.871 30.2192C120.211 30.6192 120.621 30.9092 121.101 31.0892C121.601 31.2492 122.141 31.3292 122.721 31.3292C123.601 31.3292 124.251 31.1792 124.671 30.8792C125.091 30.5592 125.301 30.1692 125.301 29.7092C125.301 29.2492 125.101 28.8992 124.701 28.6592C124.301 28.3992 123.661 28.1892 122.781 28.0292L121.941 27.8792C120.901 27.6792 119.951 27.4092 119.091 27.0692C118.231 26.7092 117.541 26.2192 117.021 25.5992C116.501 24.9792 116.241 24.1792 116.241 23.1992C116.241 21.7192 116.781 20.5892 117.861 19.8092C118.941 19.0092 120.361 18.6092 122.121 18.6092C123.781 18.6092 125.161 18.9792 126.261 19.7192C127.361 20.4592 128.081 21.4292 128.421 22.6292L124.911 23.7092C124.751 22.9492 124.421 22.4092 123.921 22.0892C123.441 21.7692 122.841 21.6092 122.121 21.6092C121.401 21.6092 120.851 21.7392 120.471 21.9992C120.091 22.2392 119.901 22.5792 119.901 23.0192C119.901 23.4992 120.101 23.8592 120.501 24.0992C120.901 24.3192 121.441 24.4892 122.121 24.6092L122.961 24.7592C124.081 24.9592 125.091 25.2292 125.991 25.5692C126.911 25.8892 127.631 26.3592 128.151 26.9792C128.691 27.5792 128.961 28.3992 128.961 29.4392C128.961 30.9992 128.391 32.2092 127.251 33.0692C126.131 33.9092 124.621 34.3292 122.721 34.3292Z" fill="white"/>
<path d="M130.774 33.9092V12.9092H134.554V20.8592H135.094C135.254 20.5392 135.504 20.2192 135.844 19.8992C136.184 19.5792 136.634 19.3192 137.194 19.1192C137.774 18.8992 138.504 18.7892 139.384 18.7892C140.544 18.7892 141.554 19.0592 142.414 19.5992C143.294 20.1192 143.974 20.8492 144.454 21.7892C144.934 22.7092 145.174 23.7892 145.174 25.0292V33.9092H141.394V25.3292C141.394 24.2092 141.114 23.3692 140.554 22.8092C140.014 22.2492 139.234 21.9692 138.214 21.9692C137.054 21.9692 136.154 22.3592 135.514 23.1392C134.874 23.8992 134.554 24.9692 134.554 26.3492V33.9092H130.774Z" fill="white"/>
<path d="M147.76 33.9092V19.0292H151.54V33.9092H147.76ZM149.65 17.2892C148.97 17.2892 148.39 17.0692 147.91 16.6292C147.45 16.1892 147.22 15.6092 147.22 14.8892C147.22 14.1692 147.45 13.5892 147.91 13.1492C148.39 12.7092 148.97 12.4892 149.65 12.4892C150.35 12.4892 150.93 12.7092 151.39 13.1492C151.85 13.5892 152.08 14.1692 152.08 14.8892C152.08 15.6092 151.85 16.1892 151.39 16.6292C150.93 17.0692 150.35 17.2892 149.65 17.2892Z" fill="white"/>
<path d="M156.689 33.9092V22.1492H152.909V19.0292H156.689V16.2692C156.689 15.2492 156.989 14.4392 157.589 13.8392C158.209 13.2192 159.009 12.9092 159.989 12.9092H163.889V16.0292H161.309C160.749 16.0292 160.469 16.3292 160.469 16.9292V19.0292H164.369V22.1492H160.469V33.9092H156.689Z" fill="white"/>
<path d="M171.202 33.9092C170.222 33.9092 169.422 33.6092 168.802 33.0092C168.202 32.3892 167.902 31.5692 167.902 30.5492V22.1492H164.182V19.0292H167.902V14.4092H171.682V19.0292H175.762V22.1492H171.682V29.8892C171.682 30.4892 171.962 30.7892 172.522 30.7892H175.402V33.9092H171.202Z" fill="white"/>
</g>
<g style="mix-blend-mode:luminosity" opacity="0.7">
<path fill-rule="evenodd" clip-rule="evenodd" d="M291.265 3.44791C290.76 3.34404 290.24 3.34404 289.735 3.44791C289.151 3.56797 288.629 3.86024 288.214 4.09259L288.101 4.15575L274.042 11.9666C274.003 11.9882 273.963 12.0102 273.922 12.0328C273.482 12.2747 272.93 12.5788 272.506 13.039C272.14 13.4368 271.862 13.9083 271.693 14.4219C271.496 15.016 271.499 15.6464 271.5 16.1477C271.501 16.1946 271.501 16.2403 271.501 16.2848V31.7067C271.501 31.7512 271.501 31.7969 271.5 31.8437C271.499 32.3451 271.496 32.9754 271.693 33.5695C271.862 34.0832 272.14 34.5547 272.506 34.9525C272.93 35.4126 273.482 35.7167 273.922 35.9586C273.963 35.9812 274.003 36.0033 274.042 36.0249L288.101 43.8357L288.214 43.8989C288.629 44.1312 289.151 44.4235 289.735 44.5435C290.24 44.6474 290.76 44.6474 291.265 44.5435C291.849 44.4235 292.371 44.1312 292.786 43.8989L292.899 43.8357L306.958 36.0249C306.976 36.0153 306.993 36.0057 307.011 35.9959C307.033 35.9837 307.056 35.9712 307.078 35.9586C307.518 35.7167 308.07 35.4126 308.494 34.9525C308.86 34.5547 309.138 34.0832 309.307 33.5695C309.504 32.9754 309.501 32.3451 309.5 31.8437C309.499 31.7969 309.499 31.7512 309.499 31.7067V16.2847C309.499 16.2403 309.499 16.1946 309.5 16.1477C309.501 15.6464 309.504 15.016 309.307 14.4219C309.138 13.9083 308.86 13.4368 308.494 13.0389C308.07 12.5788 307.518 12.2747 307.078 12.0328L307.077 12.032C307.036 12.0097 306.997 11.9879 306.958 11.9666L292.899 4.15575L292.786 4.09258C292.371 3.86023 291.849 3.56797 291.265 3.44791ZM289.946 7.47743C290.234 7.31747 290.381 7.23665 290.491 7.18377L290.5 7.17942L290.509 7.18377C290.619 7.23665 290.766 7.31747 291.054 7.47742L303.687 14.496L290.5 21.8222L277.313 14.4961L289.946 7.47743ZM275.301 17.725L288.6 25.1136L288.6 39.766L275.887 32.7032C275.583 32.5344 275.428 32.4473 275.319 32.3779L275.31 32.372L275.309 32.3611C275.301 32.2323 275.301 32.0543 275.301 31.7067V17.725Z" fill="white"/>
<path d="M326.791 30.3452H332.839V33.9092H322.174V14.9552H326.791V30.3452Z" fill="white"/>
<path d="M337.093 17.2772C336.283 17.2772 335.617 17.0432 335.095 16.5752C334.591 16.0892 334.339 15.4952 334.339 14.7932C334.339 14.0732 334.591 13.4792 335.095 13.0112C335.617 12.5252 336.283 12.2822 337.093 12.2822C337.885 12.2822 338.533 12.5252 339.037 13.0112C339.559 13.4792 339.82 14.0732 339.82 14.7932C339.82 15.4952 339.559 16.0892 339.037 16.5752C338.533 17.0432 337.885 17.2772 337.093 17.2772ZM339.388 18.8432V33.9092H334.771V18.8432H339.388Z" fill="white"/>
<path d="M348.188 18.6272C349.25 18.6272 350.177 18.8432 350.969 19.2752C351.779 19.7072 352.4 20.2742 352.832 20.9762V18.8432H357.449V33.8822C357.449 35.2682 357.17 36.5192 356.612 37.6352C356.072 38.7692 355.235 39.6692 354.101 40.3352C352.985 41.0012 351.59 41.3342 349.916 41.3342C347.684 41.3342 345.875 40.8032 344.489 39.7412C343.103 38.6972 342.311 37.2752 342.113 35.4752H346.676C346.82 36.0512 347.162 36.5012 347.702 36.8252C348.242 37.1672 348.908 37.3382 349.7 37.3382C350.654 37.3382 351.41 37.0592 351.968 36.5012C352.544 35.9612 352.832 35.0882 352.832 33.8822V31.7492C352.382 32.4512 351.761 33.0272 350.969 33.4772C350.177 33.9092 349.25 34.1252 348.188 34.1252C346.946 34.1252 345.821 33.8102 344.813 33.1802C343.805 32.5322 343.004 31.6232 342.41 30.4532C341.834 29.2652 341.546 27.8972 341.546 26.3492C341.546 24.8012 341.834 23.4422 342.41 22.2722C343.004 21.1022 343.805 20.2022 344.813 19.5722C345.821 18.9422 346.946 18.6272 348.188 18.6272ZM352.832 26.3762C352.832 25.2242 352.508 24.3152 351.86 23.6492C351.23 22.9832 350.456 22.6502 349.538 22.6502C348.62 22.6502 347.837 22.9832 347.189 23.6492C346.559 24.2972 346.244 25.1972 346.244 26.3492C346.244 27.5012 346.559 28.4192 347.189 29.1032C347.837 29.7692 348.62 30.1022 349.538 30.1022C350.456 30.1022 351.23 29.7692 351.86 29.1032C352.508 28.4372 352.832 27.5282 352.832 26.3762Z" fill="white"/>
<path d="M369.78 18.6812C371.508 18.6812 372.894 19.2572 373.938 20.4092C374.982 21.5432 375.504 23.1092 375.504 25.1072V33.9092H370.914V25.7282C370.914 24.7202 370.653 23.9372 370.131 23.3792C369.609 22.8212 368.907 22.5422 368.025 22.5422C367.143 22.5422 366.441 22.8212 365.919 23.3792C365.397 23.9372 365.136 24.7202 365.136 25.7282V33.9092H360.519V13.9292H365.136V20.8682C365.604 20.2022 366.243 19.6712 367.053 19.2752C367.863 18.8792 368.772 18.6812 369.78 18.6812Z" fill="white"/>
<path d="M386.84 29.9942V33.9092H384.491C382.817 33.9092 381.512 33.5042 380.576 32.6942C379.64 31.8662 379.172 30.5252 379.172 28.6712V22.6772H377.336V18.8432H379.172V15.1712H383.789V18.8432H386.813V22.6772H383.789V28.7252C383.789 29.1752 383.897 29.4992 384.113 29.6972C384.329 29.8952 384.689 29.9942 385.193 29.9942H386.84Z" fill="white"/>
<path d="M393.758 20.9762C394.19 20.2742 394.811 19.7072 395.621 19.2752C396.431 18.8432 397.358 18.6272 398.402 18.6272C399.644 18.6272 400.769 18.9422 401.777 19.5722C402.785 20.2022 403.577 21.1022 404.153 22.2722C404.747 23.4422 405.044 24.8012 405.044 26.3492C405.044 27.8972 404.747 29.2652 404.153 30.4532C403.577 31.6232 402.785 32.5322 401.777 33.1802C400.769 33.8102 399.644 34.1252 398.402 34.1252C397.34 34.1252 396.413 33.9182 395.621 33.5042C394.829 33.0722 394.208 32.5052 393.758 31.8032V33.9092H389.141V13.9292H393.758V20.9762ZM400.346 26.3492C400.346 25.1972 400.022 24.2972 399.374 23.6492C398.744 22.9832 397.961 22.6502 397.025 22.6502C396.107 22.6502 395.324 22.9832 394.676 23.6492C394.046 24.3152 393.731 25.2242 393.731 26.3762C393.731 27.5282 394.046 28.4372 394.676 29.1032C395.324 29.7692 396.107 30.1022 397.025 30.1022C397.943 30.1022 398.726 29.7692 399.374 29.1032C400.022 28.4192 400.346 27.5012 400.346 26.3492Z" fill="white"/>
<path d="M414.055 34.1252C412.579 34.1252 411.247 33.8102 410.059 33.1802C408.889 32.5502 407.962 31.6502 407.278 30.4802C406.612 29.3102 406.279 27.9422 406.279 26.3762C406.279 24.8282 406.621 23.4692 407.305 22.2992C407.989 21.1112 408.925 20.2022 410.113 19.5722C411.301 18.9422 412.633 18.6272 414.109 18.6272C415.585 18.6272 416.917 18.9422 418.105 19.5722C419.293 20.2022 420.229 21.1112 420.913 22.2992C421.597 23.4692 421.939 24.8282 421.939 26.3762C421.939 27.9242 421.588 29.2922 420.886 30.4802C420.202 31.6502 419.257 32.5502 418.051 33.1802C416.863 33.8102 415.531 34.1252 414.055 34.1252ZM414.055 30.1292C414.937 30.1292 415.684 29.8052 416.296 29.1572C416.926 28.5092 417.241 27.5822 417.241 26.3762C417.241 25.1702 416.935 24.2432 416.323 23.5952C415.729 22.9472 414.991 22.6232 414.109 22.6232C413.209 22.6232 412.462 22.9472 411.868 23.5952C411.274 24.2252 410.977 25.1522 410.977 26.3762C410.977 27.5822 411.265 28.5092 411.841 29.1572C412.435 29.8052 413.173 30.1292 414.055 30.1292Z" fill="white"/>
<path d="M433.028 33.9092L430.139 29.7242L427.709 33.9092H422.714L427.682 26.2142L422.579 18.8432H427.763L430.652 23.0012L433.082 18.8432H438.077L433.028 26.4302L438.212 33.9092H433.028Z" fill="white"/>
</g>
<g style="mix-blend-mode:luminosity" opacity="0.7">
<path opacity="0.8" d="M569.807 11.1631C569.374 10.7309 568.942 10.2987 568.51 9.86648C567.213 8.48337 565.83 7.10027 564.101 6.23583C562.113 5.1985 559.952 5.45783 557.791 5.45783C554.506 5.45783 546.294 5.45783 541.453 5.45783L544.738 9.86648C550.702 9.86648 560.038 9.86648 564.361 9.86648C566.176 9.86648 567.732 10.2123 569.201 11.1631C569.461 11.2496 569.72 11.2496 569.807 11.1631Z" fill="white"/>
<path opacity="0.9" d="M573.437 18.2516C573.005 17.8194 572.573 17.3872 572.141 16.955C570.844 15.5719 569.461 14.1888 567.732 13.3243C565.744 12.287 563.583 12.5463 561.421 12.5463C558.569 12.5463 551.74 12.5463 546.899 12.5463L550.184 16.955C556.062 16.955 564.101 16.955 568.078 16.955C569.893 16.955 571.449 17.3007 572.919 18.2516C573.091 18.3381 573.264 18.3381 573.437 18.2516Z" fill="white"/>
<path d="M577.5 25.1669C577.068 24.7347 576.636 24.3025 576.203 23.8703C574.907 22.4872 573.524 21.104 571.795 20.2396C569.807 19.2023 567.645 19.4616 565.484 19.4616C562.805 19.4616 556.926 19.4616 552.172 19.4616L555.457 23.8703C561.162 23.8703 568.423 23.8703 572.054 23.8703C573.869 23.8703 575.425 24.216 576.895 25.1669C577.154 25.2534 577.327 25.3398 577.5 25.1669Z" fill="white"/>
<path opacity="0.8" d="M541.107 36.8369C541.539 37.2691 541.972 37.7013 542.404 38.1335C543.7 39.5166 545.084 40.8997 546.812 41.7642C548.801 42.8015 550.962 42.5422 553.123 42.5422H569.461L566.176 38.1335C560.211 38.1335 550.875 38.1335 546.553 38.1335C544.738 38.1335 543.182 37.7878 541.712 36.8369C541.453 36.7504 541.28 36.7504 541.107 36.8369Z" fill="white"/>
<path opacity="0.9" d="M537.476 29.7487C537.909 30.1809 538.341 30.6131 538.773 31.0454C540.07 32.4285 541.453 33.8116 543.182 34.676C545.17 35.7133 547.331 35.454 549.492 35.454H564.015L560.73 31.0454C554.852 31.0454 546.812 31.0454 542.836 31.0454C541.021 31.0454 539.465 30.6996 537.995 29.7487C537.822 29.6623 537.649 29.6623 537.476 29.7487Z" fill="white"/>
<path d="M533.5 22.7465C533.932 23.1787 534.364 23.6109 534.797 24.0431C536.093 25.4262 537.476 26.8094 539.205 27.6738C541.194 28.7111 543.355 28.4518 545.516 28.4518H558.828L555.543 24.0431C549.838 24.0431 542.577 24.0431 538.946 24.0431C537.131 24.0431 535.575 23.6974 534.105 22.7465C533.846 22.66 533.673 22.66 533.5 22.7465Z" fill="white"/>
<path d="M587.432 14.008V34H591.828V25.74H600.2V22.324H591.828V17.704H601.488V14.008H587.432Z" fill="white"/>
<path d="M612.514 25.208H606.046C606.064 24.928 606.12 24.6107 606.214 24.256C606.326 23.9013 606.503 23.5653 606.746 23.248C607.007 22.9307 607.343 22.6693 607.754 22.464C608.183 22.24 608.715 22.128 609.35 22.128C610.32 22.128 611.039 22.3893 611.506 22.912C611.991 23.4347 612.327 24.2 612.514 25.208ZM606.046 27.728H616.49C616.564 26.608 616.471 25.5347 616.21 24.508C615.948 23.4813 615.519 22.5667 614.922 21.764C614.343 20.9613 613.596 20.3267 612.682 19.86C611.767 19.3747 610.694 19.132 609.462 19.132C608.36 19.132 607.352 19.328 606.438 19.72C605.542 20.112 604.767 20.6533 604.114 21.344C603.46 22.016 602.956 22.8187 602.602 23.752C602.247 24.6853 602.07 25.6933 602.07 26.776C602.07 27.896 602.238 28.9227 602.574 29.856C602.928 30.7893 603.423 31.592 604.058 32.264C604.692 32.936 605.467 33.4587 606.382 33.832C607.296 34.1867 608.323 34.364 609.462 34.364C611.104 34.364 612.504 33.9907 613.662 33.244C614.819 32.4973 615.678 31.256 616.238 29.52H612.738C612.607 29.968 612.252 30.3973 611.674 30.808C611.095 31.2 610.404 31.396 609.602 31.396C608.482 31.396 607.623 31.1067 607.026 30.528C606.428 29.9493 606.102 29.016 606.046 27.728Z" fill="white"/>
<path d="M617.84 23.976C617.896 23.0427 618.129 22.268 618.54 21.652C618.95 21.036 619.473 20.5413 620.108 20.168C620.742 19.7947 621.452 19.5333 622.236 19.384C623.038 19.216 623.841 19.132 624.644 19.132C625.372 19.132 626.109 19.188 626.856 19.3C627.602 19.3933 628.284 19.5893 628.9 19.888C629.516 20.1867 630.02 20.6067 630.412 21.148C630.804 21.6707 631 22.3707 631 23.248V30.78C631 31.4333 631.037 32.0587 631.112 32.656C631.186 33.2533 631.317 33.7013 631.504 34H627.472C627.397 33.776 627.332 33.552 627.276 33.328C627.238 33.0853 627.21 32.8427 627.192 32.6C626.557 33.2533 625.81 33.7107 624.952 33.972C624.093 34.2333 623.216 34.364 622.32 34.364C621.629 34.364 620.985 34.28 620.388 34.112C619.79 33.944 619.268 33.6827 618.82 33.328C618.372 32.9733 618.017 32.5253 617.756 31.984C617.513 31.4427 617.392 30.7987 617.392 30.052C617.392 29.2307 617.532 28.5587 617.812 28.036C618.11 27.4947 618.484 27.0653 618.932 26.748C619.398 26.4307 619.921 26.1973 620.5 26.048C621.097 25.88 621.694 25.7493 622.292 25.656C622.889 25.5627 623.477 25.488 624.056 25.432C624.634 25.376 625.148 25.292 625.596 25.18C626.044 25.068 626.398 24.9093 626.66 24.704C626.921 24.48 627.042 24.1627 627.024 23.752C627.024 23.3227 626.949 22.9867 626.8 22.744C626.669 22.4827 626.482 22.2867 626.24 22.156C626.016 22.0067 625.745 21.9133 625.428 21.876C625.129 21.82 624.802 21.792 624.448 21.792C623.664 21.792 623.048 21.96 622.6 22.296C622.152 22.632 621.89 23.192 621.816 23.976H617.84ZM627.024 26.916C626.856 27.0653 626.641 27.1867 626.38 27.28C626.137 27.3547 625.866 27.42 625.568 27.476C625.288 27.532 624.989 27.5787 624.672 27.616C624.354 27.6533 624.037 27.7 623.72 27.756C623.421 27.812 623.122 27.8867 622.824 27.98C622.544 28.0733 622.292 28.204 622.068 28.372C621.862 28.5213 621.694 28.7173 621.564 28.96C621.433 29.2027 621.368 29.5107 621.368 29.884C621.368 30.2387 621.433 30.5373 621.564 30.78C621.694 31.0227 621.872 31.2187 622.096 31.368C622.32 31.4987 622.581 31.592 622.88 31.648C623.178 31.704 623.486 31.732 623.804 31.732C624.588 31.732 625.194 31.6013 625.624 31.34C626.053 31.0787 626.37 30.7707 626.576 30.416C626.781 30.0427 626.902 29.6693 626.94 29.296C626.996 28.9227 627.024 28.624 627.024 28.4V26.916Z" fill="white"/>
<path d="M638.286 19.524V15.184H634.31V19.524H631.902V22.184H634.31V30.724C634.31 31.452 634.431 32.04 634.674 32.488C634.917 32.936 635.243 33.2813 635.654 33.524C636.083 33.7667 636.569 33.9253 637.11 34C637.67 34.0933 638.258 34.14 638.874 34.14C639.266 34.14 639.667 34.1307 640.078 34.112C640.489 34.0933 640.862 34.056 641.198 34V30.92C641.011 30.9573 640.815 30.9853 640.61 31.004C640.405 31.0227 640.19 31.032 639.966 31.032C639.294 31.032 638.846 30.92 638.622 30.696C638.398 30.472 638.286 30.024 638.286 29.352V22.184H641.198V19.524H638.286Z" fill="white"/>
<path d="M642.25 14.008V34H646.226V26.412C646.226 24.9373 646.468 23.8827 646.954 23.248C647.439 22.5947 648.223 22.268 649.306 22.268C650.258 22.268 650.92 22.5667 651.294 23.164C651.667 23.7427 651.854 24.6293 651.854 25.824V34H655.83V25.096C655.83 24.2 655.746 23.388 655.578 22.66C655.428 21.9133 655.158 21.288 654.766 20.784C654.374 20.2613 653.832 19.86 653.142 19.58C652.47 19.2813 651.602 19.132 650.538 19.132C649.791 19.132 649.026 19.328 648.242 19.72C647.458 20.0933 646.814 20.7 646.31 21.54H646.226V14.008H642.25Z" fill="white"/>
<path d="M667.751 25.208H661.283C661.302 24.928 661.358 24.6107 661.451 24.256C661.563 23.9013 661.741 23.5653 661.983 23.248C662.245 22.9307 662.581 22.6693 662.991 22.464C663.421 22.24 663.953 22.128 664.587 22.128C665.558 22.128 666.277 22.3893 666.743 22.912C667.229 23.4347 667.565 24.2 667.751 25.208ZM661.283 27.728H671.727C671.802 26.608 671.709 25.5347 671.447 24.508C671.186 23.4813 670.757 22.5667 670.159 21.764C669.581 20.9613 668.834 20.3267 667.919 19.86C667.005 19.3747 665.931 19.132 664.699 19.132C663.598 19.132 662.59 19.328 661.675 19.72C660.779 20.112 660.005 20.6533 659.351 21.344C658.698 22.016 658.194 22.8187 657.839 23.752C657.485 24.6853 657.307 25.6933 657.307 26.776C657.307 27.896 657.475 28.9227 657.811 29.856C658.166 30.7893 658.661 31.592 659.295 32.264C659.93 32.936 660.705 33.4587 661.619 33.832C662.534 34.1867 663.561 34.364 664.699 34.364C666.342 34.364 667.742 33.9907 668.899 33.244C670.057 32.4973 670.915 31.256 671.475 29.52H667.975C667.845 29.968 667.49 30.3973 666.911 30.808C666.333 31.2 665.642 31.396 664.839 31.396C663.719 31.396 662.861 31.1067 662.263 30.528C661.666 29.9493 661.339 29.016 661.283 27.728Z" fill="white"/>
<path d="M673.245 19.524V34H677.221V27.476C677.221 26.8227 677.287 26.216 677.417 25.656C677.548 25.096 677.763 24.6107 678.061 24.2C678.379 23.7707 678.789 23.4347 679.293 23.192C679.797 22.9493 680.413 22.828 681.141 22.828C681.384 22.828 681.636 22.8467 681.897 22.884C682.159 22.9027 682.383 22.9307 682.569 22.968V19.272C682.252 19.1787 681.963 19.132 681.701 19.132C681.197 19.132 680.712 19.2067 680.245 19.356C679.779 19.5053 679.34 19.72 678.929 20C678.519 20.2613 678.155 20.588 677.837 20.98C677.52 21.3533 677.268 21.764 677.081 22.212H677.025V19.524H673.245Z" fill="white"/>
<path d="M688.104 30.304V17.704H691.24C692.323 17.704 693.228 17.8627 693.956 18.18C694.703 18.4787 695.3 18.9173 695.748 19.496C696.196 20.0747 696.514 20.7747 696.7 21.596C696.906 22.3987 697.008 23.304 697.008 24.312C697.008 25.4133 696.868 26.3467 696.588 27.112C696.308 27.8773 695.935 28.5027 695.468 28.988C695.002 29.4547 694.47 29.7907 693.872 29.996C693.275 30.2013 692.659 30.304 692.024 30.304H688.104ZM683.708 14.008V34H692.332C693.863 34 695.188 33.748 696.308 33.244C697.447 32.7213 698.39 32.012 699.136 31.116C699.902 30.22 700.471 29.156 700.844 27.924C701.218 26.692 701.404 25.348 701.404 23.892C701.404 22.2307 701.171 20.784 700.704 19.552C700.256 18.32 699.622 17.2933 698.8 16.472C697.998 15.6507 697.036 15.0347 695.916 14.624C694.815 14.2133 693.62 14.008 692.332 14.008H683.708Z" fill="white"/>
<path d="M712.946 25.208H706.478C706.497 24.928 706.553 24.6107 706.646 24.256C706.758 23.9013 706.935 23.5653 707.178 23.248C707.439 22.9307 707.775 22.6693 708.186 22.464C708.616 22.24 709.147 22.128 709.782 22.128C710.753 22.128 711.471 22.3893 711.938 22.912C712.424 23.4347 712.759 24.2 712.946 25.208ZM706.478 27.728H716.922C716.997 26.608 716.903 25.5347 716.642 24.508C716.381 23.4813 715.951 22.5667 715.354 21.764C714.775 20.9613 714.029 20.3267 713.114 19.86C712.2 19.3747 711.126 19.132 709.894 19.132C708.793 19.132 707.785 19.328 706.87 19.72C705.974 20.112 705.2 20.6533 704.546 21.344C703.893 22.016 703.389 22.8187 703.034 23.752C702.679 24.6853 702.502 25.6933 702.502 26.776C702.502 27.896 702.67 28.9227 703.006 29.856C703.361 30.7893 703.855 31.592 704.49 32.264C705.125 32.936 705.899 33.4587 706.814 33.832C707.729 34.1867 708.756 34.364 709.894 34.364C711.537 34.364 712.937 33.9907 714.094 33.244C715.252 32.4973 716.11 31.256 716.67 29.52H713.17C713.039 29.968 712.685 30.3973 712.106 30.808C711.527 31.2 710.837 31.396 710.034 31.396C708.914 31.396 708.055 31.1067 707.458 30.528C706.861 29.9493 706.534 29.016 706.478 27.728Z" fill="white"/>
<path d="M726.448 34L731.348 19.524H727.4L724.348 29.408H724.292L721.24 19.524H717.068L722.024 34H726.448Z" fill="white"/>
</g>
<g style="mix-blend-mode:luminosity" opacity="0.7">
<circle cx="848.5" cy="24.2499" r="20.5" stroke="white" stroke-width="3"/>
<path d="M856.632 32.3817C852.492 36.5211 847.803 39.2233 843.626 40.2973C839.412 41.3809 836.016 40.7571 834.004 38.7457C831.993 36.7343 831.369 33.3377 832.453 29.1236C833.527 24.9472 836.229 20.2577 840.368 16.1183C844.508 11.9789 849.197 9.27666 853.374 8.20274C857.588 7.11912 860.984 7.7429 862.996 9.75431C865.007 11.7657 865.631 15.1623 864.547 19.3764C863.473 23.5528 860.771 28.2423 856.632 32.3817Z" stroke="white" stroke-width="3"/>
<path d="M856.632 16.1182C860.771 20.2576 863.473 24.9471 864.547 29.1235C865.631 33.3376 865.007 36.7342 862.995 38.7456C860.984 40.7571 857.587 41.3808 853.373 40.2972C849.197 39.2233 844.507 36.5211 840.368 32.3817C836.229 28.2423 833.526 23.5528 832.453 19.3764C831.369 15.1623 831.993 11.7657 834.004 9.75427C836.016 7.74286 839.412 7.11907 843.626 8.2027C847.803 9.27662 852.492 11.9788 856.632 16.1182Z" stroke="white" stroke-width="3"/>
<path d="M889.35 34.24C894.06 34.24 897.24 31.78 897.24 27.85C897.24 19.54 886.2 23.08 886.2 18.7C886.2 17.47 887.31 16.63 889.08 16.63C891.09 16.63 892.35 17.71 892.5 19.36H896.79C896.67 15.37 893.61 12.76 889.08 12.76C884.82 12.76 881.82 15.22 881.82 18.7C881.82 26.95 892.71 23.8 892.71 27.91C892.71 29.5 891.36 30.34 889.35 30.34C887.13 30.34 885.72 28.99 885.54 26.86H881.22C881.4 31.33 884.58 34.24 889.35 34.24Z" fill="white"/>
<path d="M898.26 40.12H902.43V32.65C903.24 33.67 904.71 34.24 906.42 34.24C910.77 34.24 913.71 31.15 913.71 26.44C913.71 21.73 911.01 18.64 906.78 18.64C904.83 18.64 903.33 19.36 902.43 20.53V18.88H898.26V40.12ZM905.91 30.64C903.66 30.64 902.19 28.96 902.19 26.44C902.19 23.89 903.66 22.21 905.91 22.21C908.1 22.21 909.6 23.89 909.6 26.44C909.6 28.96 908.1 30.64 905.91 30.64Z" fill="white"/>
<path d="M914.719 34H918.889V25.72C918.889 23.77 920.179 22.36 922.009 22.36C923.749 22.36 924.949 23.68 924.949 25.51V34H929.119V24.58C929.119 21.1 926.899 18.64 923.509 18.64C921.409 18.64 919.759 19.51 918.889 20.98V12.31H914.719V34Z" fill="white"/>
<path d="M940.785 28.87C940.455 30.16 939.345 30.82 937.665 30.82C935.565 30.82 934.215 29.5 933.915 27.37H944.775C944.805 27.04 944.835 26.59 944.835 26.02C944.835 22.57 942.705 18.64 937.365 18.64C932.235 18.64 929.895 22.57 929.895 26.41C929.895 30.22 932.535 34.24 937.665 34.24C941.385 34.24 944.265 32.14 944.865 28.87H940.785ZM937.365 21.7C939.375 21.7 940.545 23.05 940.665 24.73H933.975C934.335 22.63 935.475 21.7 937.365 21.7Z" fill="white"/>
<path d="M955.771 22.36V18.88H953.619C951.789 18.88 950.649 19.51 949.839 21.4V18.88H945.639V34H949.839V26.65C949.839 24.07 950.769 22.36 952.839 22.36H955.771Z" fill="white"/>
<path d="M970.171 18.88H965.971V27.16C965.971 29.08 964.681 30.52 962.851 30.52C961.141 30.52 959.941 29.2 959.941 27.37V18.88H955.771V28.3C955.771 31.75 957.991 34.24 961.381 34.24C963.451 34.24 965.131 33.34 965.971 31.9V34H970.171V18.88Z" fill="white"/>
<path d="M971.971 34H976.141V12.31H971.971V34Z" fill="white"/>
<path d="M988.046 28.87C987.716 30.16 986.606 30.82 984.926 30.82C982.826 30.82 981.476 29.5 981.176 27.37H992.036C992.066 27.04 992.096 26.59 992.096 26.02C992.096 22.57 989.966 18.64 984.626 18.64C979.496 18.64 977.156 22.57 977.156 26.41C977.156 30.22 979.796 34.24 984.926 34.24C988.646 34.24 991.526 32.14 992.126 28.87H988.046ZM984.626 21.7C986.636 21.7 987.806 23.05 987.926 24.73H981.236C981.596 22.63 982.736 21.7 984.626 21.7Z" fill="white"/>
</g>
<g style="mix-blend-mode:luminosity" opacity="0.7">
<path d="M1117.93 2H1101.07L1087.5 15.5711V32.4289L1101.07 46H1117.93L1131.5 32.4289V15.5711L1117.93 2ZM1103.4 32.641L1094.71 23.947L1103.4 15.253C1106.69 11.9663 1112.1 11.9663 1115.38 15.253L1124.08 23.947L1115.38 32.641C1112.1 35.9277 1106.8 35.9277 1103.4 32.641Z" fill="white"/>
<path d="M1150.84 34.24C1153.54 34.24 1155.76 32.86 1156.45 30.79V34H1160.44V25.9C1160.44 24.07 1159 22.51 1157.05 22.51H1151.35V25.9H1155.4C1155.91 25.9 1156.24 26.23 1156.24 26.74C1156.24 28.69 1153.66 30.58 1151.05 30.58C1147.57 30.58 1144.81 27.85 1144.81 23.5C1144.81 19.15 1147.57 16.63 1151.14 16.63C1153.84 16.63 1155.7 18.1 1156.03 20.35H1160.5C1160.23 15.85 1156.45 12.76 1151.17 12.76C1145.62 12.76 1140.52 16.33 1140.52 23.5C1140.52 30.67 1145.47 34.24 1150.84 34.24Z" fill="white"/>
<path d="M1162.15 34H1166.32V12.31H1162.15V34Z" fill="white"/>
<path d="M1175.32 34.24C1179.97 34.24 1183.3 30.94 1183.3 26.44C1183.3 21.94 1179.97 18.64 1175.32 18.64C1170.67 18.64 1167.34 21.94 1167.34 26.44C1167.34 30.94 1170.67 34.24 1175.32 34.24ZM1175.32 30.64C1173.07 30.64 1171.54 28.93 1171.54 26.44C1171.54 23.92 1173.07 22.21 1175.32 22.21C1177.57 22.21 1179.1 23.92 1179.1 26.44C1179.1 28.93 1177.57 30.64 1175.32 30.64Z" fill="white"/>
<path d="M1192.63 34.24C1197.1 34.24 1199.77 31.15 1199.77 26.44C1199.77 21.73 1197.1 18.64 1192.69 18.64C1190.8 18.64 1189.33 19.36 1188.49 20.47V12.31H1184.32V34H1188.49V32.35C1189.33 33.52 1190.89 34.24 1192.63 34.24ZM1191.97 30.64C1189.72 30.64 1188.25 28.96 1188.25 26.44C1188.25 23.89 1189.72 22.21 1191.97 22.21C1194.16 22.21 1195.66 23.89 1195.66 26.44C1195.66 28.96 1194.16 30.64 1191.97 30.64Z" fill="white"/>
<path d="M1206.75 18.64C1202.61 18.64 1200.15 21.07 1199.97 24.1H1203.69C1203.75 22.84 1204.68 21.7 1206.51 21.7C1208.22 21.7 1209.21 22.57 1209.21 23.83C1209.21 24.46 1208.82 24.94 1208.07 24.94H1205.52C1202.22 24.94 1200 26.74 1200 29.71C1200 32.29 1202.01 34.24 1204.95 34.24C1207.02 34.24 1208.7 33.31 1209.21 31.9V34H1213.35V24.28C1213.35 20.86 1210.56 18.64 1206.75 18.64ZM1206 31.21C1204.83 31.21 1203.99 30.52 1203.99 29.53C1203.99 28.36 1204.89 27.58 1206.15 27.58H1209.21V27.79C1209.21 29.71 1208.04 31.21 1206 31.21Z" fill="white"/>
<path d="M1214.95 34H1219.12V12.31H1214.95V34Z" fill="white"/>
<path d="M1221.34 34H1229.92C1234.36 34 1237.42 31.72 1237.42 27.73C1237.42 24.97 1235.8 23.29 1233.88 22.54C1235.11 21.88 1236.34 20.38 1236.34 18.4C1236.34 14.89 1233.49 13 1229.68 13H1221.34V34ZM1225.78 21.01V16.57H1229.26C1231.27 16.57 1232.17 17.38 1232.17 18.79C1232.17 20.2 1231.27 21.01 1229.35 21.01H1225.78ZM1225.78 30.1V24.82H1229.53C1232.02 24.82 1233.13 25.78 1233.13 27.49C1233.13 29.2 1232.02 30.1 1229.53 30.1H1225.78Z" fill="white"/>
<path d="M1244.67 18.64C1240.53 18.64 1238.07 21.07 1237.89 24.1H1241.61C1241.67 22.84 1242.6 21.7 1244.43 21.7C1246.14 21.7 1247.13 22.57 1247.13 23.83C1247.13 24.46 1246.74 24.94 1245.99 24.94H1243.44C1240.14 24.94 1237.92 26.74 1237.92 29.71C1237.92 32.29 1239.93 34.24 1242.87 34.24C1244.94 34.24 1246.62 33.31 1247.13 31.9V34H1251.27V24.28C1251.27 20.86 1248.48 18.64 1244.67 18.64ZM1243.92 31.21C1242.75 31.21 1241.91 30.52 1241.91 29.53C1241.91 28.36 1242.81 27.58 1244.07 27.58H1247.13V27.79C1247.13 29.71 1245.96 31.21 1243.92 31.21Z" fill="white"/>
<path d="M1252.63 34H1256.83V25.72C1256.83 23.77 1258.12 22.36 1259.95 22.36C1261.69 22.36 1262.86 23.68 1262.86 25.51V34H1267.06V24.58C1267.06 21.1 1264.84 18.64 1261.42 18.64C1259.35 18.64 1257.67 19.51 1256.83 20.98V18.88H1252.63V34Z" fill="white"/>
<path d="M1279.03 34H1284.07L1277.56 24.82L1283.59 18.88H1278.31L1273.06 24.04V12.31H1268.86V34H1273.06V29.26L1274.74 27.61L1279.03 34Z" fill="white"/>
</g>
<g style="mix-blend-mode:luminosity" opacity="0.7">
<g clip-path="url(#clip0_1_472)">
<path d="M1406.77 4.12169L1402.55 2.99072L1398.99 16.2654L1395.78 4.28093L1391.56 5.4119L1395.03 18.3602L1386.39 9.71841L1383.3 12.8083L1392.78 22.2874L1380.97 19.1243L1379.84 23.3451L1392.74 26.8011C1392.59 26.1642 1392.51 25.5006 1392.51 24.8187C1392.51 19.992 1396.43 16.0792 1401.25 16.0792C1406.08 16.0792 1409.99 19.992 1409.99 24.8187C1409.99 25.4962 1409.91 26.1557 1409.77 26.7889L1421.49 29.9297L1422.62 25.709L1409.67 22.2392L1421.48 19.0759L1420.35 14.8551L1407.4 18.3247L1416.04 9.68293L1412.95 6.59307L1403.6 15.9406L1406.77 4.12169Z" fill="white"/>
<path d="M1409.76 26.838C1409.39 28.368 1408.63 29.7424 1407.58 30.8435L1416.07 39.3357L1419.16 36.2458L1409.76 26.838Z" fill="white"/>
<path d="M1407.5 30.9323C1406.44 32.0159 1405.1 32.8245 1403.59 33.2413L1406.68 44.7735L1410.9 43.6425L1407.5 30.9323Z" fill="white"/>
<path d="M1403.43 33.2835C1402.74 33.4628 1402.01 33.5581 1401.25 33.5581C1400.44 33.5581 1399.66 33.4486 1398.92 33.2437L1395.83 44.7866L1400.05 45.9175L1403.43 33.2835Z" fill="white"/>
<path d="M1398.77 33.2012C1397.29 32.7638 1395.97 31.9448 1394.93 30.8581L1386.42 39.3711L1389.51 42.4609L1398.77 33.2012Z" fill="white"/>
<path d="M1394.86 30.7829C1393.84 29.6893 1393.1 28.3333 1392.75 26.827L1380.98 29.9781L1382.12 34.1989L1394.86 30.7829Z" fill="white"/>
</g>
<path d="M1448.02 12.9092V28.1192L1438.27 12.9092H1434.37V33.9092H1438.27V18.8192L1448.02 33.9092H1451.92V12.9092H1448.02Z" fill="white"/>
<path d="M1453.68 16.8392H1457.7V12.9092H1453.68V16.8392ZM1453.74 33.9092V18.9092H1457.64V33.9092H1453.74Z" fill="white"/>
<path d="M1474.42 26.4092C1474.42 21.2192 1470.73 18.7592 1466.83 18.7292C1462.9 18.6992 1459.27 21.2192 1459.27 26.4092C1459.27 31.5992 1462.9 34.1192 1466.83 34.0892C1470.4 34.0592 1472.86 32.4092 1474 29.6792L1470.97 28.4192C1470.04 30.2792 1468.57 30.9392 1466.83 30.9692C1465.33 30.9992 1463.62 30.2792 1463.26 27.6092H1474.33C1474.39 27.2192 1474.42 26.8292 1474.42 26.4092ZM1466.83 21.8192C1468.33 21.8492 1469.86 22.6592 1470.34 24.8192H1463.32C1463.83 22.6292 1465.36 21.7892 1466.83 21.8192Z" fill="white"/>
<path d="M1483.43 21.6992V18.7292H1480.97V14.7092L1477.07 15.9092V18.7292H1474.61V21.6992H1477.07V29.4692C1477.07 32.4092 1477.31 33.9092 1481.87 33.9092H1482.92V30.4892H1481.87C1481.15 30.4892 1480.97 30.3692 1480.97 29.4692V21.6992H1483.43Z" fill="white"/>
<path d="M1489.23 30.6392L1497.51 22.1792V18.9092H1485.09V22.1792H1493.13L1484.85 30.6392V33.9092H1497.6V30.6392H1489.23Z" fill="white"/>
<path d="M1498.99 29.6792L1502.92 29.0792C1503.19 30.5792 1504.96 31.1492 1506.04 31.1492C1507.15 31.1492 1509.07 30.9092 1509.07 29.1092C1509.07 25.5992 1499.44 29.9792 1499.44 23.2592C1499.44 18.9392 1504.45 18.6992 1506.04 18.6992C1507.54 18.6992 1511.89 18.9392 1512.79 22.4192L1509.07 23.1992C1508.74 21.6092 1507.06 21.3092 1506.16 21.3092C1505.26 21.3092 1503.34 21.5192 1503.34 23.2592C1503.34 26.7392 1512.97 22.2992 1512.97 29.1092C1512.97 33.6992 1507.69 34.0892 1506.04 34.0892C1504.54 34.0892 1499.77 33.6992 1498.99 29.6792Z" fill="white"/>
<path d="M1518.04 26.4092C1518.04 30.0692 1519.99 31.1792 1522.03 31.1492C1523.86 31.1192 1525.12 30.3692 1525.87 28.2692L1529.08 29.8292C1527.91 32.8892 1525.06 34.0592 1522.03 34.0892C1518.1 34.1192 1514.14 31.5992 1514.14 26.4092C1514.14 21.2192 1518.1 18.6992 1522.03 18.7292C1525.06 18.7592 1527.91 19.9292 1529.08 22.9892L1525.87 24.5492C1525.12 22.4492 1523.86 21.6992 1522.03 21.6692C1519.99 21.6392 1518.04 22.7492 1518.04 26.4092Z" fill="white"/>
<path d="M1539.55 18.6692C1537.54 18.6692 1535.71 19.7192 1534.54 21.9692V12.9092H1530.64V33.9092H1534.54V28.5992C1534.54 21.7292 1537.39 21.1592 1538.44 21.1592C1540.12 21.1592 1540.36 22.8992 1540.36 25.4492V33.9092H1544.26V25.4492C1544.26 22.2692 1543.75 18.6692 1539.55 18.6692Z" fill="white"/>
<path d="M1560.73 26.4092C1560.73 21.2192 1557.04 18.7592 1553.14 18.7292C1549.21 18.6992 1545.58 21.2192 1545.58 26.4092C1545.58 31.5992 1549.21 34.1192 1553.14 34.0892C1556.71 34.0592 1559.17 32.4092 1560.31 29.6792L1557.28 28.4192C1556.35 30.2792 1554.88 30.9392 1553.14 30.9692C1551.64 30.9992 1549.93 30.2792 1549.57 27.6092H1560.64C1560.7 27.2192 1560.73 26.8292 1560.73 26.4092ZM1553.14 21.8192C1554.64 21.8492 1556.17 22.6592 1556.65 24.8192H1549.63C1550.14 22.6292 1551.67 21.7892 1553.14 21.8192Z" fill="white"/>
</g>
<defs>
<clipPath id="clip0_1_472">
<rect width="44" height="44" fill="white" transform="translate(1379.5 2)"/>
</clipPath>
</defs>
</svg>
