<svg width="67" height="54" viewBox="0 0 67 54" fill="none" xmlns="http://www.w3.org/2000/svg">
<path d="M0 36.0747C0 34.4315 0.150901 32.7137 0.452703 30.9212C2.11261 19.7178 7.4696 9.41079 16.5237 0L21.0507 3.361C15.6182 9.03734 12.8266 14.1162 12.6757 18.5975C12.8266 21.1369 14.7128 22.9295 18.3345 23.9751C19.3908 24.2739 20.5225 24.6473 21.7297 25.0954C27.6149 27.7842 30.5574 32.3402 30.5574 38.7635C30.5574 41.1535 30.0293 43.3942 28.973 45.4855C26.2568 51.1618 21.8806 54 15.8446 54C13.732 54 11.7703 53.6265 9.95946 52.8797C3.31982 50.4896 0 44.888 0 36.0747ZM36.4426 36.0747C36.4426 34.4315 36.5935 32.7137 36.8953 30.9212C38.5552 19.7178 43.9122 9.41079 52.9662 0L57.4933 3.361C52.0608 9.03734 49.2691 14.1162 49.1182 18.5975C49.2691 21.1369 51.1554 22.9295 54.777 23.9751C55.8333 24.2739 56.9651 24.6473 58.1723 25.0954C64.0574 27.7842 67 32.3402 67 38.7635C67 41.1535 66.4719 43.3942 65.4156 45.4855C62.6993 51.1618 58.3232 54 52.2872 54C50.1746 54 48.2128 53.6265 46.402 52.8797C39.7624 50.4896 36.4426 44.888 36.4426 36.0747Z" fill="#4D4D4D"/>
</svg>
