<svg width="31" height="30" viewBox="0 0 31 30" fill="none" xmlns="http://www.w3.org/2000/svg">
<path d="M27.8503 15.9901C27.6099 15.7164 27.4772 15.3644 27.4772 15.0001C27.4772 14.6357 27.6099 14.2838 27.8503 14.0101L29.7703 11.8501C29.9819 11.6141 30.1133 11.3171 30.1456 11.0018C30.178 10.6866 30.1096 10.3691 29.9503 10.0951L26.9503 4.90509C26.7927 4.63137 26.5527 4.4144 26.2645 4.28512C25.9763 4.15583 25.6546 4.12082 25.3453 4.18509L22.5253 4.75509C22.1665 4.82923 21.793 4.76947 21.4752 4.58709C21.1574 4.4047 20.9173 4.11231 20.8003 3.76509L19.8853 1.02009C19.7847 0.722155 19.593 0.463384 19.3373 0.28035C19.0816 0.0973152 18.7748 -0.000724931 18.4603 8.68121e-05H12.4603C12.1332 -0.0169862 11.8095 0.0734764 11.5387 0.257658C11.2678 0.441839 11.0647 0.709615 10.9603 1.02009L10.1203 3.76509C10.0033 4.11231 9.76329 4.4047 9.4455 4.58709C9.12771 4.76947 8.75416 4.82923 8.39533 4.75509L5.50033 4.18509C5.20716 4.14366 4.90828 4.18992 4.64135 4.31805C4.37443 4.44617 4.15139 4.65043 4.00033 4.90509L1.00033 10.0951C0.837073 10.3661 0.763666 10.6817 0.790607 10.9969C0.817547 11.3121 0.943456 11.6107 1.15033 11.8501L3.05533 14.0101C3.29581 14.2838 3.42843 14.6357 3.42843 15.0001C3.42843 15.3644 3.29581 15.7164 3.05533 15.9901L1.15033 18.1501C0.943456 18.3894 0.817547 18.688 0.790607 19.0033C0.763666 19.3185 0.837073 19.6341 1.00033 19.9051L4.00033 25.0951C4.15798 25.3688 4.39801 25.5858 4.68621 25.7151C4.97441 25.8443 5.29607 25.8793 5.60533 25.8151L8.42533 25.2451C8.78416 25.1709 9.15771 25.2307 9.4755 25.4131C9.79329 25.5955 10.0333 25.8879 10.1503 26.2351L11.0653 28.9801C11.1697 29.2906 11.3728 29.5583 11.6437 29.7425C11.9145 29.9267 12.2382 30.0172 12.5653 30.0001H18.5653C18.8798 30.0009 19.1866 29.9029 19.4423 29.7198C19.698 29.5368 19.8897 29.278 19.9903 28.9801L20.9053 26.2351C21.0223 25.8879 21.2624 25.5955 21.5802 25.4131C21.898 25.2307 22.2715 25.1709 22.6303 25.2451L25.4503 25.8151C25.7596 25.8793 26.0813 25.8443 26.3695 25.7151C26.6577 25.5858 26.8977 25.3688 27.0553 25.0951L30.0553 19.9051C30.2146 19.6311 30.283 19.3136 30.2506 18.9983C30.2183 18.683 30.0869 18.3861 29.8753 18.1501L27.8503 15.9901ZM25.6153 18.0001L26.8153 19.3501L24.8953 22.6801L23.1253 22.3201C22.045 22.0993 20.9212 22.2828 19.9672 22.8358C19.0133 23.3888 18.2956 24.2728 17.9503 25.3201L17.3803 27.0001H13.5403L13.0003 25.2901C12.6551 24.2428 11.9374 23.3588 10.9834 22.8058C10.0295 22.2528 8.90566 22.0693 7.82533 22.2901L6.05533 22.6501L4.10533 19.3351L5.30533 17.9851C6.04327 17.1601 6.45123 16.092 6.45123 14.9851C6.45123 13.8782 6.04327 12.8101 5.30533 11.9851L4.10533 10.6351L6.02533 7.33509L7.79533 7.69509C8.87566 7.91592 9.99948 7.73241 10.9534 7.17938C11.9074 6.62636 12.6251 5.74232 12.9703 4.69509L13.5403 3.00009H17.3803L17.9503 4.71009C18.2956 5.75732 19.0133 6.64136 19.9672 7.19438C20.9212 7.74741 22.045 7.93092 23.1253 7.71009L24.8953 7.35009L26.8153 10.6801L25.6153 12.0301C24.8857 12.8532 24.4828 13.9151 24.4828 15.0151C24.4828 16.1151 24.8857 17.1769 25.6153 18.0001ZM15.4603 9.00009C14.2736 9.00009 13.1136 9.35198 12.1269 10.0113C11.1402 10.6706 10.3712 11.6076 9.91706 12.704C9.46293 13.8003 9.34411 15.0067 9.57562 16.1706C9.80713 17.3345 10.3786 18.4036 11.2177 19.2427C12.0568 20.0818 13.1259 20.6533 14.2898 20.8848C15.4537 21.1163 16.6601 20.9975 17.7564 20.5434C18.8528 20.0892 19.7899 19.3202 20.4492 18.3335C21.1084 17.3468 21.4603 16.1868 21.4603 15.0001C21.4603 13.4088 20.8282 11.8827 19.703 10.7574C18.5778 9.63223 17.0516 9.00009 15.4603 9.00009ZM15.4603 18.0001C14.867 18.0001 14.287 17.8241 13.7936 17.4945C13.3003 17.1649 12.9158 16.6963 12.6887 16.1481C12.4616 15.6 12.4022 14.9968 12.518 14.4148C12.6337 13.8329 12.9195 13.2983 13.339 12.8788C13.7586 12.4592 14.2931 12.1735 14.8751 12.0577C15.457 11.942 16.0602 12.0014 16.6084 12.2284C17.1566 12.4555 17.6251 12.84 17.9547 13.3334C18.2844 13.8267 18.4603 14.4067 18.4603 15.0001C18.4603 15.7957 18.1443 16.5588 17.5817 17.1214C17.019 17.684 16.256 18.0001 15.4603 18.0001Z" fill="#202020"/>
</svg>
