<svg width="24" height="24" viewBox="0 0 24 24" fill="none" xmlns="http://www.w3.org/2000/svg">
<path d="M5.04235 15.1667C5.04235 16.5543 3.9088 17.6879 2.52117 17.6879C1.13355 17.6879 0 16.5543 0 15.1667C0 13.7791 1.13355 12.6455 2.52117 12.6455H5.04235V15.1667Z" fill="#E01E5A"/>
<path d="M6.3125 15.1667C6.3125 13.7791 7.44605 12.6455 8.83367 12.6455C10.2213 12.6455 11.3548 13.7791 11.3548 15.1667V21.4794C11.3548 22.867 10.2213 24.0006 8.83367 24.0006C7.44605 24.0006 6.3125 22.867 6.3125 21.4794V15.1667Z" fill="#E01E5A"/>
<path d="M8.83367 5.04235C7.44605 5.04235 6.3125 3.9088 6.3125 2.52117C6.3125 1.13355 7.44605 0 8.83367 0C10.2213 0 11.3548 1.13355 11.3548 2.52117V5.04235H8.83367Z" fill="#36C5F0"/>
<path d="M8.83388 6.3125C10.2215 6.3125 11.355 7.44605 11.355 8.83367C11.355 10.2213 10.2215 11.3548 8.83388 11.3548H2.52117C1.13355 11.3548 0 10.2213 0 8.83367C0 7.44605 1.13355 6.3125 2.52117 6.3125H8.83388Z" fill="#36C5F0"/>
<path d="M18.959 8.83367C18.959 7.44605 20.0925 6.3125 21.4802 6.3125C22.8678 6.3125 24.0013 7.44605 24.0013 8.83367C24.0013 10.2213 22.8678 11.3548 21.4802 11.3548H18.959V8.83367Z" fill="#2EB67D"/>
<path d="M17.6888 8.83388C17.6888 10.2215 16.5553 11.355 15.1677 11.355C13.78 11.355 12.6465 10.2215 12.6465 8.83388V2.52117C12.6465 1.13355 13.78 0 15.1677 0C16.5553 0 17.6888 1.13355 17.6888 2.52117V8.83388Z" fill="#2EB67D"/>
<path d="M15.1677 18.958C16.5553 18.958 17.6888 20.0916 17.6888 21.4792C17.6888 22.8668 16.5553 24.0004 15.1677 24.0004C13.78 24.0004 12.6465 22.8668 12.6465 21.4792V18.958H15.1677Z" fill="#ECB22E"/>
<path d="M15.1677 17.6879C13.78 17.6879 12.6465 16.5543 12.6465 15.1667C12.6465 13.7791 13.78 12.6455 15.1677 12.6455H21.4804C22.868 12.6455 24.0015 13.7791 24.0015 15.1667C24.0015 16.5543 22.868 17.6879 21.4804 17.6879H15.1677Z" fill="#ECB22E"/>
</svg>
