<svg width="534" height="216" viewBox="0 0 534 216" fill="none" xmlns="http://www.w3.org/2000/svg">
<g opacity="0.25">
<g opacity="0.8">
<path style="mix-blend-mode:color-dodge" opacity="0.7" d="M120.811 158.611C114.33 162.35 108.929 164.925 108.68 164.427C108.348 164.011 113.416 160.605 119.814 156.866C126.294 153.127 131.695 150.551 132.027 151.05C132.276 151.465 127.291 154.872 120.811 158.611Z" fill="url(#paint0_radial_1_388)"/>
<path style="mix-blend-mode:color-dodge" opacity="0.7" d="M119.481 158.278C115.742 151.798 113.083 146.314 113.582 146.065C114.081 145.816 117.487 150.801 121.143 157.281C124.882 163.679 127.54 169.163 127.042 169.412C126.543 169.661 123.137 164.676 119.481 158.278Z" fill="url(#paint1_radial_1_388)"/>
<path style="mix-blend-mode:color-dodge" opacity="0.7" d="M124.383 164.842C120.478 167.086 115.493 165.756 113.25 161.851C111.006 158.029 112.336 153.044 116.241 150.801C120.146 148.557 125.131 149.887 127.374 153.792C129.535 157.697 128.205 162.599 124.383 164.842Z" fill="url(#paint2_radial_1_388)"/>
<path d="M120.727 158.777C120.229 159.109 119.564 158.86 119.232 158.362C118.983 157.863 119.149 157.198 119.647 156.866C120.146 156.617 120.811 156.783 121.143 157.281C121.475 157.78 121.226 158.445 120.727 158.777Z" fill="#FFFFEB"/>
</g>
<path style="mix-blend-mode:color-dodge" opacity="0.7" d="M169.083 53.5904C169.083 61.0681 168.668 67.1334 168.17 67.1334C167.588 67.1334 167.172 61.0681 167.172 53.5904C167.172 46.1958 167.588 40.1305 168.17 40.1305C168.668 40.1305 169.083 46.1958 169.083 53.5904Z" fill="url(#paint3_radial_1_388)"/>
<path style="mix-blend-mode:color-dodge" opacity="0.7" d="M168.169 54.5874C160.692 54.5874 154.626 54.172 154.626 53.5904C154.626 53.0919 160.692 52.5934 168.169 52.5934C175.564 52.5934 181.629 53.0919 181.629 53.5904C181.629 54.172 175.564 54.5874 168.169 54.5874Z" fill="url(#paint4_radial_1_388)"/>
<path style="mix-blend-mode:color-dodge" opacity="0.7" d="M176.312 53.6735C176.312 58.1602 172.656 61.8159 168.169 61.8159C163.683 61.8159 160.11 58.1602 160.11 53.6735C160.11 49.1869 163.683 45.5311 168.169 45.5311C172.656 45.5311 176.312 49.1869 176.312 53.6735Z" fill="url(#paint5_radial_1_388)"/>
<path d="M169.249 53.7565C169.249 54.3381 168.751 54.8366 168.169 54.8366C167.505 54.8366 167.006 54.3381 167.006 53.7565C167.006 53.1749 167.505 52.6764 168.169 52.6764C168.751 52.6764 169.249 53.1749 169.249 53.7565Z" fill="#FFFFEB"/>
<path style="mix-blend-mode:color-dodge" opacity="0.7" d="M61.4042 65.3055C60.9057 72.7832 59.9917 78.7654 59.4932 78.6823C58.9116 78.6823 58.9116 72.617 59.4932 65.2224C59.9917 57.7447 60.9057 51.7625 61.4042 51.8456C61.9858 51.8456 61.9858 57.9108 61.4042 65.3055Z" fill="url(#paint6_radial_1_388)"/>
<path style="mix-blend-mode:color-dodge" opacity="0.7" d="M60.4071 66.2194C52.9294 65.7209 46.9472 64.807 47.0303 64.3085C47.0303 63.7269 53.0955 63.7269 60.4902 64.2254C67.9679 64.807 73.9501 65.7209 73.867 66.2194C73.867 66.801 67.8017 66.801 60.4071 66.2194Z" fill="url(#paint7_radial_1_388)"/>
<path style="mix-blend-mode:color-dodge" opacity="0.7" d="M68.6325 65.8871C68.3002 70.3737 64.3952 73.7802 59.9085 73.4479C55.4219 73.1156 52.0985 69.2105 52.4308 64.7239C52.7631 60.2373 56.6682 56.9138 61.0717 57.2462C65.5584 57.5785 68.9649 61.4835 68.6325 65.8871Z" fill="url(#paint8_radial_1_388)"/>
<path d="M61.5703 65.4717C61.4872 66.0533 60.9887 66.5518 60.324 66.4687C59.7424 66.4687 59.327 65.9702 59.327 65.3055C59.4101 64.7239 59.9086 64.3085 60.4902 64.3085C61.1549 64.3916 61.5703 64.8901 61.5703 65.4717Z" fill="#FFFFEB"/>
<g opacity="0.7">
<path style="mix-blend-mode:color-dodge" opacity="0.7" d="M394.163 109.341C398.234 115.572 401.142 120.89 400.644 121.139C400.145 121.471 396.572 116.652 392.501 110.338C388.513 104.107 385.605 98.789 386.02 98.5398C386.519 98.2074 390.175 103.026 394.163 109.341Z" fill="url(#paint9_radial_1_388)"/>
<path style="mix-blend-mode:color-dodge" opacity="0.7" d="M393.914 110.67C387.599 114.742 382.282 117.566 382.032 117.151C381.7 116.653 386.519 112.997 392.833 109.009C399.065 104.937 404.382 102.112 404.632 102.528C404.964 103.026 400.145 106.682 393.914 110.67Z" fill="url(#paint10_radial_1_388)"/>
<path style="mix-blend-mode:color-dodge" opacity="0.7" d="M400.228 105.436C402.721 109.258 401.641 114.243 397.819 116.652C394.08 119.145 389.012 117.982 386.602 114.243C384.193 110.504 385.273 105.436 389.012 103.026C392.833 100.617 397.819 101.697 400.228 105.436Z" fill="url(#paint11_radial_1_388)"/>
<path d="M394.329 109.341C394.661 109.839 394.495 110.587 393.997 110.92C393.498 111.169 392.833 111.086 392.501 110.587C392.169 110.089 392.335 109.341 392.833 109.009C393.332 108.759 393.997 108.842 394.329 109.341Z" fill="#FFFFEB"/>
</g>
<g opacity="0.8">
<path style="mix-blend-mode:color-dodge" opacity="0.7" d="M522.447 106.848C519.622 113.744 516.964 119.145 516.382 118.979C515.884 118.73 517.795 112.997 520.536 106.101C523.361 99.2045 526.02 93.8039 526.602 93.97C527.1 94.2193 525.189 99.9522 522.447 106.848Z" fill="url(#paint12_radial_1_388)"/>
<path style="mix-blend-mode:color-dodge" opacity="0.7" d="M521.118 107.43C514.222 104.605 508.821 101.863 508.988 101.365C509.237 100.866 514.97 102.777 521.866 105.519C528.762 108.344 534.163 111.003 533.996 111.584C533.747 112.083 528.014 110.172 521.118 107.43Z" fill="url(#paint13_radial_1_388)"/>
<path style="mix-blend-mode:color-dodge" opacity="0.7" d="M529.094 109.59C527.349 113.744 522.614 115.739 518.459 114.077C514.305 112.415 512.311 107.679 513.973 103.525C515.717 99.3706 520.453 97.3766 524.608 99.0383C528.762 100.7 530.756 105.436 529.094 109.59Z" fill="url(#paint14_radial_1_388)"/>
<path d="M522.447 107.014C522.198 107.596 521.616 107.845 521.035 107.596C520.453 107.43 520.204 106.765 520.453 106.184C520.619 105.685 521.284 105.353 521.866 105.602C522.447 105.851 522.697 106.433 522.447 107.014Z" fill="#FFFFEB"/>
</g>
<g opacity="0.7">
<path style="mix-blend-mode:color-dodge" opacity="0.7" d="M294.21 106.101C294.21 113.495 293.795 119.56 293.296 119.56C292.715 119.56 292.299 113.578 292.216 106.101C292.216 98.6229 292.632 92.6407 293.13 92.6407C293.712 92.6407 294.21 98.6229 294.21 106.101Z" fill="url(#paint15_radial_1_388)"/>
<path style="mix-blend-mode:color-dodge" opacity="0.7" d="M293.213 107.098C285.819 107.098 279.753 106.682 279.753 106.184C279.753 105.602 285.736 105.104 293.213 105.104C300.691 105.104 306.673 105.519 306.673 106.018C306.673 106.599 300.691 107.015 293.213 107.098Z" fill="url(#paint16_radial_1_388)"/>
<path style="mix-blend-mode:color-dodge" opacity="0.7" d="M301.439 106.101C301.439 110.587 297.783 114.243 293.296 114.243C288.81 114.326 285.154 110.67 285.154 106.184C285.154 101.697 288.727 98.0413 293.213 98.0413C297.7 98.0413 301.356 101.614 301.439 106.101Z" fill="url(#paint17_radial_1_388)"/>
<path d="M294.293 106.267C294.293 106.848 293.878 107.347 293.213 107.347C292.632 107.347 292.133 106.848 292.133 106.267C292.133 105.685 292.632 105.187 293.213 105.187C293.795 105.187 294.293 105.602 294.293 106.267Z" fill="#FFFFEB"/>
</g>
<g opacity="0.8">
<path style="mix-blend-mode:color-dodge" opacity="0.7" d="M387.931 47.6082C392.252 53.6734 395.409 58.8248 394.994 59.1571C394.578 59.4064 390.673 54.7535 386.353 48.7714C382.032 42.7061 378.875 37.4717 379.29 37.2224C379.789 36.8901 383.611 41.5429 387.931 47.6082Z" fill="url(#paint18_radial_1_388)"/>
<path style="mix-blend-mode:color-dodge" opacity="0.7" d="M387.765 48.9375C381.7 53.258 376.549 56.4153 376.216 55.9998C375.884 55.5844 380.537 51.6794 386.602 47.3589C392.667 43.0384 397.819 39.8812 398.151 40.2966C398.483 40.7951 393.83 44.6171 387.765 48.9375Z" fill="url(#paint19_radial_1_388)"/>
<path style="mix-blend-mode:color-dodge" opacity="0.7" d="M393.83 43.4539C396.489 47.1097 395.658 52.1779 392.003 54.7536C388.347 57.4123 383.279 56.4984 380.62 52.9257C378.044 49.2699 378.875 44.2017 382.531 41.543C386.187 38.9673 391.255 39.7982 393.83 43.4539Z" fill="url(#paint20_radial_1_388)"/>
<path d="M388.181 47.6082C388.513 48.1067 388.347 48.8545 387.848 49.1868C387.433 49.5192 386.685 49.4361 386.353 48.9376C386.02 48.439 386.103 47.7744 386.602 47.3589C387.1 47.0266 387.765 47.1928 388.181 47.6082Z" fill="#FFFFEB"/>
</g>
<path style="mix-blend-mode:color-dodge" opacity="0.7" d="M433.462 182.456C429.474 188.688 425.902 193.507 425.403 193.258C424.905 192.925 427.813 187.608 431.801 181.376C435.872 175.062 439.445 170.243 439.943 170.492C440.359 170.824 437.534 176.142 433.462 182.456Z" fill="url(#paint21_radial_1_388)"/>
<path style="mix-blend-mode:color-dodge" opacity="0.7" d="M432.133 182.706C425.819 178.718 421 175.062 421.332 174.646C421.581 174.148 426.899 177.056 433.213 181.044C439.445 185.032 444.347 188.688 444.014 189.103C443.682 189.602 438.365 186.694 432.133 182.706Z" fill="url(#paint22_radial_1_388)"/>
<path style="mix-blend-mode:color-dodge" opacity="0.7" d="M439.528 186.361C437.118 190.1 432.05 191.264 428.311 188.854C424.572 186.361 423.409 181.376 425.818 177.637C428.228 173.816 433.296 172.735 437.035 175.145C440.857 177.554 441.937 182.54 439.528 186.361Z" fill="url(#paint23_radial_1_388)"/>
<path d="M433.546 182.623C433.213 183.121 432.465 183.287 431.967 182.955C431.468 182.623 431.302 181.958 431.635 181.459C431.967 180.961 432.632 180.795 433.213 181.127C433.712 181.459 433.795 182.124 433.546 182.623Z" fill="#FFFFEB"/>
<g opacity="0.9">
<path style="mix-blend-mode:color-dodge" opacity="0.7" d="M13.6297 138.255C11.054 145.234 8.47835 150.718 7.97984 150.552C7.48132 150.385 9.14304 144.569 11.7187 137.59C14.2944 130.611 16.87 125.127 17.3685 125.293C17.867 125.46 16.2053 131.276 13.6297 138.255Z" fill="url(#paint24_radial_1_388)"/>
<path style="mix-blend-mode:color-dodge" opacity="0.7" d="M12.3004 138.836C5.32117 136.261 -0.162493 133.768 0.00367887 133.27C0.252936 132.771 6.06895 134.433 13.0482 137.008C20.0274 139.584 25.511 142.077 25.3449 142.575C25.0956 143.157 19.2796 141.412 12.3004 138.836Z" fill="url(#paint25_radial_1_388)"/>
<path style="mix-blend-mode:color-dodge" opacity="0.7" d="M20.3597 140.83C18.7811 145.068 14.1283 147.145 9.8909 145.649C5.65352 144.071 3.57638 139.418 5.07192 135.181C6.65055 131.026 11.3034 128.866 15.5407 130.362C19.7781 131.94 21.8553 136.593 20.3597 140.83Z" fill="url(#paint26_radial_1_388)"/>
<path d="M13.6297 138.421C13.4636 139.003 12.7989 139.335 12.2173 139.086C11.7188 138.919 11.3864 138.255 11.6357 137.673C11.8018 137.092 12.4665 136.842 13.0481 137.092C13.5466 137.258 13.879 137.922 13.6297 138.421Z" fill="#FFFFEB"/>
</g>
<path style="mix-blend-mode:color-dodge" opacity="0.7" d="M238.128 23.3471C238.128 30.8248 237.629 36.807 237.131 36.807C236.549 36.807 236.134 30.8248 236.134 23.3471C236.134 15.9525 236.549 9.88721 237.131 9.88721C237.629 9.88721 238.128 15.9525 238.128 23.3471Z" fill="url(#paint27_radial_1_388)"/>
<path style="mix-blend-mode:color-dodge" opacity="0.7" d="M237.131 24.3442C229.653 24.3442 223.671 23.9287 223.671 23.3471C223.671 22.8486 229.653 22.3501 237.131 22.3501C244.525 22.3501 250.59 22.8486 250.59 23.3471C250.59 23.9287 244.525 24.3442 237.131 24.3442Z" fill="url(#paint28_radial_1_388)"/>
<path style="mix-blend-mode:color-dodge" opacity="0.7" d="M245.273 23.4303C245.273 27.9169 241.7 31.5727 237.214 31.5727C232.727 31.5727 229.071 27.9169 229.071 23.4303C229.071 18.9436 232.727 15.2878 237.214 15.2878C241.7 15.2878 245.273 18.9436 245.273 23.4303Z" fill="url(#paint29_radial_1_388)"/>
<path d="M238.211 23.5132C238.211 24.0948 237.712 24.5933 237.13 24.5933C236.549 24.5933 236.05 24.0948 236.05 23.5132C236.05 22.9316 236.549 22.4331 237.13 22.4331C237.712 22.4331 238.211 22.9316 238.211 23.5132Z" fill="#FFFFEB"/>
<g opacity="0.5">
<path style="mix-blend-mode:color-dodge" opacity="0.7" d="M185.202 189.186C184.62 196.581 183.706 202.563 183.125 202.48C182.626 202.48 182.626 196.415 183.208 189.02C183.789 181.543 184.703 175.56 185.202 175.643C185.783 175.643 185.783 181.709 185.202 189.186Z" fill="url(#paint30_radial_1_388)"/>
<path style="mix-blend-mode:color-dodge" opacity="0.7" d="M184.122 190.1C176.727 189.519 170.745 188.605 170.745 188.023C170.828 187.442 176.81 187.525 184.288 188.106C191.683 188.688 197.665 189.602 197.665 190.1C197.582 190.682 191.516 190.599 184.122 190.1Z" fill="url(#paint31_radial_1_388)"/>
<path style="mix-blend-mode:color-dodge" opacity="0.7" d="M192.347 189.768C192.015 194.255 188.11 197.578 183.623 197.246C179.137 196.913 175.813 193.008 176.145 188.522C176.478 184.035 180.383 180.712 184.869 181.044C189.356 181.376 192.68 185.281 192.347 189.768Z" fill="url(#paint32_radial_1_388)"/>
<path d="M185.285 189.27C185.202 189.934 184.703 190.35 184.122 190.35C183.54 190.267 183.042 189.768 183.125 189.103C183.125 188.522 183.706 188.106 184.288 188.106C184.87 188.189 185.285 188.688 185.285 189.27Z" fill="#FFFFEB"/>
</g>
<g opacity="0.8">
<path style="mix-blend-mode:color-dodge" opacity="0.7" d="M333.011 201.483C333.759 208.878 333.925 214.943 333.344 215.026C332.845 215.026 331.765 209.127 331.017 201.649C330.27 194.255 330.103 188.272 330.602 188.189C331.184 188.106 332.181 194.088 333.011 201.483Z" fill="url(#paint33_radial_1_388)"/>
<path style="mix-blend-mode:color-dodge" opacity="0.7" d="M332.098 202.563C324.703 203.311 318.638 203.477 318.555 202.979C318.555 202.397 324.454 201.317 331.931 200.569C339.326 199.821 345.308 199.655 345.391 200.237C345.474 200.735 339.492 201.815 332.098 202.563Z" fill="url(#paint34_radial_1_388)"/>
<path style="mix-blend-mode:color-dodge" opacity="0.7" d="M340.157 200.818C340.572 205.305 337.332 209.293 332.928 209.709C328.442 210.207 324.454 206.967 323.955 202.48C323.54 197.994 326.78 194.005 331.267 193.59C335.67 193.091 339.658 196.332 340.157 200.818Z" fill="url(#paint35_radial_1_388)"/>
<path d="M333.094 201.649C333.178 202.231 332.762 202.729 332.097 202.813C331.516 202.896 331.017 202.48 330.934 201.815C330.851 201.234 331.267 200.735 331.931 200.652C332.513 200.569 333.011 201.068 333.094 201.649Z" fill="#FFFFEB"/>
</g>
<path style="mix-blend-mode:color-dodge" opacity="0.7" d="M58.9947 13.4599C58.9947 20.9376 58.5792 27.0029 57.9976 27.0029C57.4991 27.0029 57.0837 20.9376 57.0837 13.4599C57.0837 6.06526 57.4991 0 57.9976 0C58.5792 0 58.9947 6.06526 58.9947 13.4599Z" fill="url(#paint36_radial_1_388)"/>
<path style="mix-blend-mode:color-dodge" opacity="0.7" d="M57.9975 14.457C50.6029 14.457 44.5376 14.0415 44.5376 13.4599C44.5376 12.9614 50.6029 12.4629 57.9975 12.4629C65.4752 12.4629 71.5405 12.9614 71.5405 13.4599C71.5405 14.0415 65.4752 14.457 57.9975 14.457Z" fill="url(#paint37_radial_1_388)"/>
<path style="mix-blend-mode:color-dodge" opacity="0.7" d="M66.2231 13.543C66.2231 18.0297 62.5673 21.6855 58.0807 21.6855C53.5941 21.6855 50.0214 18.0297 50.0214 13.543C50.0214 9.05641 53.5941 5.40063 58.0807 5.40063C62.5673 5.40063 66.2231 9.05641 66.2231 13.543Z" fill="url(#paint38_radial_1_388)"/>
<path d="M59.1606 13.626C59.1606 14.2907 58.6621 14.7061 58.0805 14.7061C57.4158 14.7061 56.9173 14.2907 56.9173 13.626C56.9173 13.0444 57.4158 12.5459 58.0805 12.5459C58.6621 12.5459 59.1606 13.0444 59.1606 13.626Z" fill="#FFFFEB"/>
</g>
<defs>
<radialGradient id="paint0_radial_1_388" cx="0" cy="0" r="1" gradientUnits="userSpaceOnUse" gradientTransform="translate(120.323 157.743) rotate(60.071) scale(0.99418)">
<stop stop-color="#FFFFEB"/>
<stop offset="0.433" stop-color="#33331F"/>
<stop offset="1"/>
</radialGradient>
<radialGradient id="paint1_radial_1_388" cx="0" cy="0" r="1" gradientUnits="userSpaceOnUse" gradientTransform="translate(120.323 157.743) rotate(150.071) scale(0.994179)">
<stop stop-color="#FFFFEB"/>
<stop offset="0.433" stop-color="#33331F"/>
<stop offset="1"/>
</radialGradient>
<radialGradient id="paint2_radial_1_388" cx="0" cy="0" r="1" gradientUnits="userSpaceOnUse" gradientTransform="translate(120.303 157.833) rotate(150.071) scale(8.11832 8.11832)">
<stop stop-color="#FFFFEB"/>
<stop offset="0.433" stop-color="#33331F"/>
<stop offset="1"/>
</radialGradient>
<radialGradient id="paint3_radial_1_388" cx="0" cy="0" r="1" gradientUnits="userSpaceOnUse" gradientTransform="translate(168.128 53.617) scale(0.993704 0.993706)">
<stop stop-color="#FFFFEB"/>
<stop offset="0.433" stop-color="#33331F"/>
<stop offset="1"/>
</radialGradient>
<radialGradient id="paint4_radial_1_388" cx="0" cy="0" r="1" gradientUnits="userSpaceOnUse" gradientTransform="translate(168.128 53.617) rotate(90) scale(0.993705)">
<stop stop-color="#FFFFEB"/>
<stop offset="0.433" stop-color="#33331F"/>
<stop offset="1"/>
</radialGradient>
<radialGradient id="paint5_radial_1_388" cx="0" cy="0" r="1" gradientUnits="userSpaceOnUse" gradientTransform="translate(168.198 53.6785) rotate(90) scale(8.11832)">
<stop stop-color="#FFFFEB"/>
<stop offset="0.433" stop-color="#33331F"/>
<stop offset="1"/>
</radialGradient>
<radialGradient id="paint6_radial_1_388" cx="0" cy="0" r="1" gradientUnits="userSpaceOnUse" gradientTransform="translate(60.4445 65.2556) rotate(4.21871) scale(0.993907)">
<stop stop-color="#FFFFEB"/>
<stop offset="0.433" stop-color="#33331F"/>
<stop offset="1"/>
</radialGradient>
<radialGradient id="paint7_radial_1_388" cx="0" cy="0" r="1" gradientUnits="userSpaceOnUse" gradientTransform="translate(60.4445 65.2556) rotate(94.2187) scale(0.993907)">
<stop stop-color="#FFFFEB"/>
<stop offset="0.433" stop-color="#33331F"/>
<stop offset="1"/>
</radialGradient>
<radialGradient id="paint8_radial_1_388" cx="0" cy="0" r="1" gradientUnits="userSpaceOnUse" gradientTransform="translate(60.5084 65.3229) rotate(94.2022) scale(8.11854)">
<stop stop-color="#FFFFEB"/>
<stop offset="0.433" stop-color="#33331F"/>
<stop offset="1"/>
</radialGradient>
<radialGradient id="paint9_radial_1_388" cx="0" cy="0" r="1" gradientUnits="userSpaceOnUse" gradientTransform="translate(393.345 109.839) rotate(-32.787) scale(0.994236)">
<stop stop-color="#FFFFEB"/>
<stop offset="0.433" stop-color="#33331F"/>
<stop offset="1"/>
</radialGradient>
<radialGradient id="paint10_radial_1_388" cx="0" cy="0" r="1" gradientUnits="userSpaceOnUse" gradientTransform="translate(393.345 109.839) rotate(57.213) scale(0.994236)">
<stop stop-color="#FFFFEB"/>
<stop offset="0.433" stop-color="#33331F"/>
<stop offset="1"/>
</radialGradient>
<radialGradient id="paint11_radial_1_388" cx="0" cy="0" r="1" gradientUnits="userSpaceOnUse" gradientTransform="translate(393.437 109.854) rotate(57.2077) scale(8.11843)">
<stop stop-color="#FFFFEB"/>
<stop offset="0.433" stop-color="#33331F"/>
<stop offset="1"/>
</radialGradient>
<radialGradient id="paint12_radial_1_388" cx="0" cy="0" r="1" gradientUnits="userSpaceOnUse" gradientTransform="translate(521.492 106.469) rotate(22.1483) scale(0.993931)">
<stop stop-color="#FFFFEB"/>
<stop offset="0.433" stop-color="#33331F"/>
<stop offset="1"/>
</radialGradient>
<radialGradient id="paint13_radial_1_388" cx="0" cy="0" r="1" gradientUnits="userSpaceOnUse" gradientTransform="translate(521.492 106.469) rotate(112.148) scale(0.993932)">
<stop stop-color="#FFFFEB"/>
<stop offset="0.433" stop-color="#33331F"/>
<stop offset="1"/>
</radialGradient>
<radialGradient id="paint14_radial_1_388" cx="0" cy="0" r="1" gradientUnits="userSpaceOnUse" gradientTransform="translate(521.533 106.553) rotate(112.124) scale(8.11868 8.11869)">
<stop stop-color="#FFFFEB"/>
<stop offset="0.433" stop-color="#33331F"/>
<stop offset="1"/>
</radialGradient>
<radialGradient id="paint15_radial_1_388" cx="0" cy="0" r="1" gradientUnits="userSpaceOnUse" gradientTransform="translate(293.221 106.092) rotate(-0.287434) scale(0.993723 0.993719)">
<stop stop-color="#FFFFEB"/>
<stop offset="0.433" stop-color="#33331F"/>
<stop offset="1"/>
</radialGradient>
<radialGradient id="paint16_radial_1_388" cx="0" cy="0" r="1" gradientUnits="userSpaceOnUse" gradientTransform="translate(293.221 106.092) rotate(89.7126) scale(0.99372)">
<stop stop-color="#FFFFEB"/>
<stop offset="0.433" stop-color="#33331F"/>
<stop offset="1"/>
</radialGradient>
<radialGradient id="paint17_radial_1_388" cx="0" cy="0" r="1" gradientUnits="userSpaceOnUse" gradientTransform="translate(293.291 106.154) rotate(89.7244) scale(8.11841 8.11841)">
<stop stop-color="#FFFFEB"/>
<stop offset="0.433" stop-color="#33331F"/>
<stop offset="1"/>
</radialGradient>
<radialGradient id="paint18_radial_1_388" cx="0" cy="0" r="1" gradientUnits="userSpaceOnUse" gradientTransform="translate(387.158 48.159) rotate(-35.5099) scale(0.994152)">
<stop stop-color="#FFFFEB"/>
<stop offset="0.433" stop-color="#33331F"/>
<stop offset="1"/>
</radialGradient>
<radialGradient id="paint19_radial_1_388" cx="0" cy="0" r="1" gradientUnits="userSpaceOnUse" gradientTransform="translate(387.158 48.159) rotate(54.4902) scale(0.994153)">
<stop stop-color="#FFFFEB"/>
<stop offset="0.433" stop-color="#33331F"/>
<stop offset="1"/>
</radialGradient>
<radialGradient id="paint20_radial_1_388" cx="0" cy="0" r="1" gradientUnits="userSpaceOnUse" gradientTransform="translate(387.25 48.1691) rotate(54.4589) scale(8.11867 8.11868)">
<stop stop-color="#FFFFEB"/>
<stop offset="0.433" stop-color="#33331F"/>
<stop offset="1"/>
</radialGradient>
<radialGradient id="paint21_radial_1_388" cx="0" cy="0" r="1" gradientUnits="userSpaceOnUse" gradientTransform="translate(432.66 181.884) rotate(32.5741) scale(0.99384)">
<stop stop-color="#FFFFEB"/>
<stop offset="0.433" stop-color="#33331F"/>
<stop offset="1"/>
</radialGradient>
<radialGradient id="paint22_radial_1_388" cx="0" cy="0" r="1" gradientUnits="userSpaceOnUse" gradientTransform="translate(432.66 181.884) rotate(122.574) scale(0.99384)">
<stop stop-color="#FFFFEB"/>
<stop offset="0.433" stop-color="#33331F"/>
<stop offset="1"/>
</radialGradient>
<radialGradient id="paint23_radial_1_388" cx="0" cy="0" r="1" gradientUnits="userSpaceOnUse" gradientTransform="translate(432.685 181.974) rotate(122.589) scale(8.1187)">
<stop stop-color="#FFFFEB"/>
<stop offset="0.433" stop-color="#33331F"/>
<stop offset="1"/>
</radialGradient>
<radialGradient id="paint24_radial_1_388" cx="0" cy="0" r="1" gradientUnits="userSpaceOnUse" gradientTransform="translate(12.6725 137.93) rotate(20.2982) scale(0.993947)">
<stop stop-color="#FFFFEB"/>
<stop offset="0.433" stop-color="#33331F"/>
<stop offset="1"/>
</radialGradient>
<radialGradient id="paint25_radial_1_388" cx="0" cy="0" r="1" gradientUnits="userSpaceOnUse" gradientTransform="translate(12.6726 137.93) rotate(110.298) scale(0.993947)">
<stop stop-color="#FFFFEB"/>
<stop offset="0.433" stop-color="#33331F"/>
<stop offset="1"/>
</radialGradient>
<radialGradient id="paint26_radial_1_388" cx="0" cy="0" r="1" gradientUnits="userSpaceOnUse" gradientTransform="translate(12.7158 138.012) rotate(110.312) scale(8.11883)">
<stop stop-color="#FFFFEB"/>
<stop offset="0.433" stop-color="#33331F"/>
<stop offset="1"/>
</radialGradient>
<radialGradient id="paint27_radial_1_388" cx="0" cy="0" r="1" gradientUnits="userSpaceOnUse" gradientTransform="translate(237.115 23.3662) scale(0.99371 0.993706)">
<stop stop-color="#FFFFEB"/>
<stop offset="0.433" stop-color="#33331F"/>
<stop offset="1"/>
</radialGradient>
<radialGradient id="paint28_radial_1_388" cx="0" cy="0" r="1" gradientUnits="userSpaceOnUse" gradientTransform="translate(237.115 23.3662) rotate(90) scale(0.993706)">
<stop stop-color="#FFFFEB"/>
<stop offset="0.433" stop-color="#33331F"/>
<stop offset="1"/>
</radialGradient>
<radialGradient id="paint29_radial_1_388" cx="0" cy="0" r="1" gradientUnits="userSpaceOnUse" gradientTransform="translate(237.184 23.4286) rotate(90) scale(8.11832)">
<stop stop-color="#FFFFEB"/>
<stop offset="0.433" stop-color="#33331F"/>
<stop offset="1"/>
</radialGradient>
<radialGradient id="paint30_radial_1_388" cx="0" cy="0" r="1" gradientUnits="userSpaceOnUse" gradientTransform="translate(184.193 189.068) rotate(4.45746) scale(0.994221)">
<stop stop-color="#FFFFEB"/>
<stop offset="0.433" stop-color="#33331F"/>
<stop offset="1"/>
</radialGradient>
<radialGradient id="paint31_radial_1_388" cx="0" cy="0" r="1" gradientUnits="userSpaceOnUse" gradientTransform="translate(184.193 189.068) rotate(94.4575) scale(0.99422 0.994221)">
<stop stop-color="#FFFFEB"/>
<stop offset="0.433" stop-color="#33331F"/>
<stop offset="1"/>
</radialGradient>
<radialGradient id="paint32_radial_1_388" cx="0" cy="0" r="1" gradientUnits="userSpaceOnUse" gradientTransform="translate(184.257 189.136) rotate(94.4432) scale(8.11862)">
<stop stop-color="#FFFFEB"/>
<stop offset="0.433" stop-color="#33331F"/>
<stop offset="1"/>
</radialGradient>
<radialGradient id="paint33_radial_1_388" cx="0" cy="0" r="1" gradientUnits="userSpaceOnUse" gradientTransform="translate(331.992 201.588) rotate(-5.85358) scale(0.993901 0.993903)">
<stop stop-color="#FFFFEB"/>
<stop offset="0.433" stop-color="#33331F"/>
<stop offset="1"/>
</radialGradient>
<radialGradient id="paint34_radial_1_388" cx="0" cy="0" r="1" gradientUnits="userSpaceOnUse" gradientTransform="translate(331.992 201.588) rotate(84.1464) scale(0.993901 0.993903)">
<stop stop-color="#FFFFEB"/>
<stop offset="0.433" stop-color="#33331F"/>
<stop offset="1"/>
</radialGradient>
<radialGradient id="paint35_radial_1_388" cx="0" cy="0" r="1" gradientUnits="userSpaceOnUse" gradientTransform="translate(332.067 201.643) rotate(84.1435) scale(8.11831 8.11831)">
<stop stop-color="#FFFFEB"/>
<stop offset="0.433" stop-color="#33331F"/>
<stop offset="1"/>
</radialGradient>
<radialGradient id="paint36_radial_1_388" cx="0" cy="0" r="1" gradientUnits="userSpaceOnUse" gradientTransform="translate(58.0383 13.4931) scale(0.993706)">
<stop stop-color="#FFFFEB"/>
<stop offset="0.433" stop-color="#33331F"/>
<stop offset="1"/>
</radialGradient>
<radialGradient id="paint37_radial_1_388" cx="0" cy="0" r="1" gradientUnits="userSpaceOnUse" gradientTransform="translate(58.0382 13.4932) rotate(90) scale(0.993706)">
<stop stop-color="#FFFFEB"/>
<stop offset="0.433" stop-color="#33331F"/>
<stop offset="1"/>
</radialGradient>
<radialGradient id="paint38_radial_1_388" cx="0" cy="0" r="1" gradientUnits="userSpaceOnUse" gradientTransform="translate(58.1073 13.5555) rotate(90) scale(8.11832 8.11832)">
<stop stop-color="#FFFFEB"/>
<stop offset="0.433" stop-color="#33331F"/>
<stop offset="1"/>
</radialGradient>
</defs>
</svg>
