<svg width="64" height="64" viewBox="0 0 64 64" fill="none" xmlns="http://www.w3.org/2000/svg">
<rect width="64" height="64" rx="16" fill="#333333"/>
<rect x="0.5" y="0.5" width="63" height="63" rx="15.5" stroke="url(#paint0_linear_171_1333)" stroke-opacity="0.6"/>
<g clip-path="url(#clip0_171_1333)">
<path fill-rule="evenodd" clip-rule="evenodd" d="M24 20C22.9391 20 21.9217 20.4214 21.1716 21.1716C20.4214 21.9217 20 22.9391 20 24V40C20 41.0609 20.4214 42.0783 21.1716 42.8284C21.9217 43.5786 22.9391 44 24 44H40C41.0609 44 42.0783 43.5786 42.8284 42.8284C43.5786 42.0783 44 41.0609 44 40V33.3333C44 32.9797 43.8595 32.6406 43.6095 32.3905C43.3594 32.1405 43.0203 32 42.6667 32C42.313 32 41.9739 32.1405 41.7239 32.3905C41.4738 32.6406 41.3333 32.9797 41.3333 33.3333V40C41.3333 40.3536 41.1929 40.6928 40.9428 40.9428C40.6928 41.1929 40.3536 41.3333 40 41.3333H24C23.6464 41.3333 23.3072 41.1929 23.0572 40.9428C22.8071 40.6928 22.6667 40.3536 22.6667 40V24C22.6667 23.6464 22.8071 23.3072 23.0572 23.0572C23.3072 22.8071 23.6464 22.6667 24 22.6667H34.6667C35.0203 22.6667 35.3594 22.5262 35.6095 22.2761C35.8595 22.0261 36 21.687 36 21.3333C36 20.9797 35.8595 20.6406 35.6095 20.3905C35.3594 20.1405 35.0203 20 34.6667 20H24ZM44.4773 24.06C44.7845 23.8852 45.0097 23.5956 45.1035 23.2548C45.1973 22.9141 45.1519 22.55 44.9773 22.2427C44.8 21.9378 44.5102 21.7146 44.1702 21.6211C43.8301 21.5276 43.4669 21.5713 43.1587 21.7427C42.688 22.0093 42.2333 22.308 41.7853 22.6093C40.6492 23.3735 39.5531 24.1954 38.5013 25.072C36.312 26.8933 33.6827 29.4587 31.516 32.696C30.8424 31.809 30.0603 31.0099 29.188 30.3173C28.6187 29.8733 27.9853 29.4373 27.3013 29.1893C26.9693 29.0675 26.6011 29.0826 26.2802 29.2312C25.9592 29.3799 25.7105 29.6499 25.5887 29.982C25.4668 30.3141 25.4819 30.6809 25.6306 31.0018C25.7792 31.3228 26.0493 31.5715 26.3813 31.6933C26.4147 31.7067 26.8747 31.8933 27.5493 32.42C28.32 33.02 29.384 34.072 30.4107 35.8293C30.5288 36.0317 30.6981 36.1993 30.9016 36.3153C31.1051 36.4314 31.3356 36.4918 31.5699 36.4905C31.8041 36.4891 32.0339 36.4261 32.236 36.3076C32.4382 36.1892 32.6056 36.0197 32.7213 35.816C34.8333 32.0947 37.7707 29.1493 40.2067 27.1227C41.42 26.1133 42.5 25.3413 43.2707 24.824C43.664 24.5587 44.064 24.2987 44.476 24.0613L44.4773 24.06Z" fill="#68ADF9"/>
</g>
<defs>
<linearGradient id="paint0_linear_171_1333" x1="93.5" y1="87.5676" x2="-41.5861" y2="47.9527" gradientUnits="userSpaceOnUse">
<stop stop-color="white" stop-opacity="0.2"/>
<stop offset="0.575" stop-color="#313131"/>
<stop offset="1" stop-color="white" stop-opacity="0.6"/>
</linearGradient>
<clipPath id="clip0_171_1333">
<rect width="32" height="32" fill="white" transform="translate(16 16)"/>
</clipPath>
</defs>
</svg>
