<svg width="20" height="20" viewBox="0 0 20 20" fill="none" xmlns="http://www.w3.org/2000/svg">
<path fill-rule="evenodd" clip-rule="evenodd" d="M7.59224 1.20001C7.43496 1.34232 7.2697 1.47553 7.09724 1.59901C6.79924 1.79901 6.46424 1.93701 6.11224 2.00701C5.95924 2.03701 5.79924 2.05001 5.48024 2.07501C4.67924 2.13901 4.27824 2.17101 3.94424 2.28901C3.56234 2.42385 3.21547 2.64248 2.92909 2.92886C2.64271 3.21524 2.42408 3.56211 2.28924 3.94401C2.17124 4.27801 2.13924 4.67901 2.07524 5.48001C2.06433 5.69177 2.04163 5.90277 2.00724 6.11201C1.93724 6.46401 1.79924 6.79901 1.59924 7.09701C1.51224 7.22701 1.40824 7.34901 1.20024 7.59201C0.679238 8.20401 0.418238 8.51001 0.265238 8.83001C-0.0877617 9.57001 -0.0877617 10.43 0.265238 11.17C0.418238 11.49 0.679238 11.796 1.20024 12.408C1.40824 12.651 1.51224 12.773 1.59924 12.903C1.79924 13.201 1.93724 13.536 2.00724 13.888C2.03724 14.041 2.05024 14.201 2.07524 14.52C2.13924 15.321 2.17124 15.722 2.28924 16.056C2.42408 16.4379 2.64271 16.7848 2.92909 17.0712C3.21547 17.3575 3.56234 17.5762 3.94424 17.711C4.27824 17.829 4.67924 17.861 5.48024 17.925C5.79924 17.95 5.95924 17.963 6.11224 17.993C6.46424 18.063 6.79924 18.202 7.09724 18.401C7.22724 18.488 7.34924 18.592 7.59224 18.8C8.20424 19.321 8.51024 19.582 8.83024 19.735C9.57024 20.088 10.4302 20.088 11.1702 19.735C11.4902 19.582 11.7962 19.321 12.4082 18.8C12.6512 18.592 12.7732 18.488 12.9032 18.401C13.2012 18.201 13.5362 18.063 13.8882 17.993C14.0412 17.963 14.2012 17.95 14.5202 17.925C15.3212 17.861 15.7222 17.829 16.0562 17.711C16.4381 17.5762 16.785 17.3575 17.0714 17.0712C17.3578 16.7848 17.5764 16.4379 17.7112 16.056C17.8292 15.722 17.8612 15.321 17.9252 14.52C17.9502 14.201 17.9632 14.041 17.9932 13.888C18.0632 13.536 18.2022 13.201 18.4012 12.903C18.4882 12.773 18.5922 12.651 18.8002 12.408C19.3212 11.796 19.5822 11.49 19.7352 11.17C20.0882 10.43 20.0882 9.57001 19.7352 8.83001C19.5822 8.51001 19.3212 8.20401 18.8002 7.59201C18.6579 7.43473 18.5247 7.26947 18.4012 7.09701C18.2014 6.79889 18.0627 6.4641 17.9932 6.11201C17.9589 5.90277 17.9362 5.69177 17.9252 5.48001C17.8612 4.67901 17.8292 4.27801 17.7112 3.94401C17.5764 3.56211 17.3578 3.21524 17.0714 2.92886C16.785 2.64248 16.4381 2.42385 16.0562 2.28901C15.7222 2.17101 15.3212 2.13901 14.5202 2.07501C14.3085 2.0641 14.0975 2.0414 13.8882 2.00701C13.5362 1.9375 13.2014 1.79882 12.9032 1.59901C12.731 1.47527 12.5657 1.34207 12.4082 1.20001C11.7962 0.679008 11.4902 0.418008 11.1702 0.265008C10.8049 0.090389 10.4051 -0.000244141 10.0002 -0.000244141C9.59533 -0.000244141 9.19556 0.090389 8.83024 0.265008C8.51024 0.418008 8.20424 0.679008 7.59224 1.20001ZM14.3732 7.86301C14.5146 7.70832 14.5908 7.50508 14.5861 7.2956C14.5814 7.08612 14.496 6.88653 14.3479 6.73837C14.1997 6.5902 14.0001 6.50488 13.7906 6.50016C13.5812 6.49543 13.3779 6.57167 13.2232 6.71301L8.37324 11.563L6.77724 9.96801C6.62255 9.82667 6.41931 9.75043 6.20983 9.75516C6.00035 9.75988 5.80076 9.8452 5.6526 9.99337C5.50443 10.1415 5.41911 10.3411 5.41439 10.5506C5.40966 10.7601 5.4859 10.9633 5.62724 11.118L7.79724 13.288C7.94984 13.4403 8.15664 13.5258 8.37224 13.5258C8.58784 13.5258 8.79463 13.4403 8.94724 13.288L14.3732 7.86301Z" fill="#5DBB00"/>
</svg>
