<svg width="12" height="16" viewBox="0 0 12 16" fill="none" xmlns="http://www.w3.org/2000/svg">
<path d="M4.65656 1.65184L5.23343 1.07592L4.65656 0.5L4.07969 1.07592L4.65656 1.65184ZM11.1841 15.5C11.4005 15.5 11.608 15.4142 11.761 15.2614C11.914 15.1086 12 14.9014 12 14.6854C12 14.4694 11.914 14.2622 11.761 14.1094C11.608 13.9566 11.4005 13.8708 11.1841 13.8708V15.5ZM9.31312 5.14891L5.23343 1.07592L4.07969 2.22776L8.15938 6.30075L9.31312 5.14891ZM4.07969 1.07592L0 5.14891L1.15374 6.30075L5.23343 2.22776L4.07969 1.07592ZM3.84062 1.65184V9.79782H5.4725V1.65184H3.84062ZM9.55219 15.5H11.1841V13.8708H9.55219V15.5ZM3.84062 9.79782C3.84062 11.3101 4.44237 12.7605 5.5135 13.8299C6.58463 14.8992 8.03738 15.5 9.55219 15.5V13.8708C8.47019 13.8708 7.4325 13.4417 6.66741 12.6779C5.90232 11.914 5.4725 10.878 5.4725 9.79782H3.84062Z" fill="#5DBB00"/>
</svg>
