<svg width="24" height="24" viewBox="0 0 24 24" fill="none" xmlns="http://www.w3.org/2000/svg">
<g clip-path="url(#clip0_597_16239)">
<path d="M24 17.9096C24 18.0411 23.9959 18.3247 23.9877 18.5466C23.9671 19.0849 23.926 19.7795 23.8603 20.0959C23.7616 20.5726 23.6178 21.0205 23.4247 21.3945C23.1986 21.8384 22.911 22.2329 22.5658 22.574C22.2247 22.9151 21.8301 23.2027 21.3863 23.4288C21.0123 23.6219 20.5603 23.7658 20.0795 23.8644C19.7671 23.926 19.0767 23.9712 18.5425 23.9877C18.3205 23.9959 18.037 24 17.9055 24H6.0863C5.95479 24 5.67123 23.9959 5.44932 23.9877C4.91096 23.9671 4.21644 23.926 3.9 23.8603C3.42329 23.7616 2.97534 23.6178 2.60137 23.4247C2.15753 23.1986 1.76301 22.911 1.42192 22.5658C1.08082 22.2247 0.793151 21.8301 0.567123 21.3863C0.373973 21.0123 0.230137 20.5603 0.131507 20.0795C0.069863 19.7671 0.0246575 19.0767 0.00821918 18.5425C0.00410959 18.3247 0 18.0411 0 17.9096V6.09041C0 5.9589 0.00410959 5.67534 0.0123288 5.45342C0.0328767 4.91507 0.0739726 4.22055 0.139726 3.90411C0.238356 3.4274 0.382192 2.97945 0.575342 2.60548C0.80137 2.16164 1.08904 1.76712 1.43014 1.42603C1.77123 1.08493 2.16575 0.79726 2.60959 0.571233C2.98356 0.378082 3.43562 0.234247 3.91644 0.135616C4.22877 0.0739726 4.91918 0.0287671 5.45342 0.0123288C5.67534 0.00410959 5.9589 0 6.09041 0H17.9096C18.0411 0 18.3247 0.00410959 18.5466 0.0123288C19.0849 0.0328767 19.7795 0.0739726 20.0959 0.139726C20.5726 0.238356 21.0205 0.382192 21.3945 0.575342C21.8384 0.80137 22.2329 1.08904 22.574 1.43425C22.9151 1.77534 23.2027 2.16986 23.4288 2.6137C23.6219 2.98767 23.7658 3.43973 23.8644 3.92055C23.926 4.23288 23.9712 4.92329 23.9877 5.45753C23.9959 5.67945 24 5.96301 24 6.09452V17.9096Z" fill="url(#paint0_linear_597_16239)"/>
<path fill-rule="evenodd" clip-rule="evenodd" d="M17.9603 6.09836C16.4386 4.57659 14.4134 3.73633 12.2566 3.73633C7.81135 3.73633 4.19861 7.35295 4.19473 11.7943C4.19473 13.2154 4.56646 14.6017 5.2712 15.8214L4.12891 19.9995L8.40379 18.8804C9.58094 19.5232 10.9052 19.8601 12.2566 19.8601H12.2605C16.7019 19.8601 20.3185 16.2435 20.3224 11.8021C20.3224 9.64528 19.4821 7.62013 17.9603 6.09836ZM12.2605 18.4971C11.0562 18.4971 9.87522 18.1718 8.84909 17.5639L8.60515 17.4206L6.06887 18.0866L6.7465 15.6162L6.58774 15.3645C5.91785 14.2996 5.56161 13.0644 5.56161 11.7982C5.56161 8.10415 8.5703 5.09934 12.2644 5.09934C14.0533 5.09934 15.7377 5.79633 17 7.06253C18.2662 8.32874 18.9632 10.0131 18.9594 11.8021C18.9555 15.4923 15.9507 18.4971 12.2605 18.4971ZM15.9352 13.4826C15.7338 13.3819 14.7426 12.894 14.5606 12.8282C14.3747 12.7624 14.243 12.7275 14.1075 12.9289C13.972 13.1302 13.5886 13.5833 13.4686 13.7188C13.3524 13.8543 13.2324 13.8698 13.0311 13.7691C12.8297 13.6685 12.1792 13.4555 11.4125 12.7701C10.8123 12.2358 10.4096 11.5775 10.2934 11.3761C10.1773 11.1748 10.2818 11.0664 10.3825 10.9657C10.4715 10.8766 10.5838 10.7295 10.6845 10.6133C10.7852 10.4972 10.82 10.412 10.8859 10.2764C10.9517 10.1409 10.9207 10.0248 10.8704 9.92407C10.82 9.8234 10.4173 8.83212 10.2508 8.42941C10.0882 8.03832 9.92169 8.08866 9.79778 8.08479C9.68161 8.07704 9.54609 8.07704 9.41056 8.07704C9.27503 8.07704 9.05819 8.12738 8.87233 8.32873C8.68646 8.53009 8.16759 9.01798 8.16759 10.0093C8.16759 11.0005 8.88782 11.957 8.98849 12.0925C9.08917 12.228 10.4096 14.2609 12.4309 15.1322C12.911 15.3413 13.2866 15.4652 13.5809 15.5581C14.0649 15.713 14.5025 15.6898 14.851 15.6394C15.2382 15.5813 16.0436 15.1515 16.2101 14.683C16.3766 14.2145 16.3766 13.8079 16.3263 13.7266C16.2682 13.6336 16.1365 13.5833 15.9352 13.4826Z" fill="white"/>
</g>
<defs>
<linearGradient id="paint0_linear_597_16239" x1="12.0009" y1="24.0018" x2="12.0009" y2="0" gradientUnits="userSpaceOnUse">
<stop stop-color="#25CF43"/>
<stop offset="1" stop-color="#61FD7D"/>
</linearGradient>
<clipPath id="clip0_597_16239">
<rect width="24" height="24" rx="12" fill="white"/>
</clipPath>
</defs>
</svg>
